<mxfile host="app.diagrams.net" modified="2020-03-24T09:53:12.220Z" agent="Mozilla/5.0 (Macintosh; Intel Mac OS X 10.12; rv:72.0) Gecko/20100101 Firefox/72.0" etag="FgzYwVL4L4wLu9nM06OI" version="12.9.1" type="github">
  <diagram id="oWUf9qAa1GsoSm1Kra31" name="Page-1">
    <mxGraphModel dx="1788" dy="1155" grid="1" gridSize="10" guides="1" tooltips="1" connect="1" arrows="1" fold="1" page="1" pageScale="1" pageWidth="850" pageHeight="1100" math="0" shadow="0">
      <root>
        <mxCell id="0" />
        <mxCell id="1" parent="0" />
        <mxCell id="j6jogXTlzDITalrmMJ5L-43" value="copied to ngx_hash_elt_t" style="edgeStyle=orthogonalEdgeStyle;rounded=0;orthogonalLoop=1;jettySize=auto;html=1;strokeWidth=4;fillColor=#ffe6cc;strokeColor=#d79b00;fontSize=20;" parent="1" source="j6jogXTlzDITalrmMJ5L-17" edge="1">
          <mxGeometry x="0.2" y="-35" relative="1" as="geometry">
            <mxPoint x="845" y="960" as="targetPoint" />
            <mxPoint as="offset" />
          </mxGeometry>
        </mxCell>
        <mxCell id="uF9hVbnFrzSY0WjrrdnN-1" value="" style="shape=image;verticalLabelPosition=bottom;labelBackgroundColor=#ffffff;verticalAlign=top;aspect=fixed;imageAspect=0;image=data:image/jpeg,/9j/4AAQSkZJRgABAgAAAQABAAD/2wBDAAgGBgcGBQgHBwcJCQgKDBQNDAsLDBkSEw8UHRofHh0aHBwgJC4nICIsIxwcKDcpLDAxNDQ0Hyc5PTgyPC4zNDL/2wBDAQkJCQwLDBgNDRgyIRwhMjIyMjIyMjIyMjIyMjIyMjIyMjIyMjIyMjIyMjIyMjIyMjIyMjIyMjIyMjIyMjIyMjL/wAARCAMOBAADASIAAhEBAxEB/8QAHwAAAQUBAQEBAQEAAAAAAAAAAAECAwQFBgcICQoL/8QAtRAAAgEDAwIEAwUFBAQAAAF9AQIDAAQRBRIhMUEGE1FhByJxFDKBkaEII0KxwRVS0fAkM2JyggkKFhcYGRolJicoKSo0NTY3ODk6Q0RFRkdISUpTVFVWV1hZWmNkZWZnaGlqc3R1dnd4eXqDhIWGh4iJipKTlJWWl5iZmqKjpKWmp6ipqrKztLW2t7i5usLDxMXGx8jJytLT1NXW19jZ2uHi4+Tl5ufo6erx8vP09fb3+Pn6/8QAHwEAAwEBAQEBAQEBAQAAAAAAAAECAwQFBgcICQoL/8QAtREAAgECBAQDBAcFBAQAAQJ3AAECAxEEBSExBhJBUQdhcRMiMoEIFEKRobHBCSMzUvAVYnLRChYkNOEl8RcYGRomJygpKjU2Nzg5OkNERUZHSElKU1RVVldYWVpjZGVmZ2hpanN0dXZ3eHl6goOEhYaHiImKkpOUlZaXmJmaoqOkpaanqKmqsrO0tba3uLm6wsPExcbHyMnK0tPU1dbX2Nna4uPk5ebn6Onq8vP09fb3+Pn6/9oADAMBAAIRAxEAPwD0LwZ4N8LXXgfw/cXHhvR5p5dNt3kkksImZ2MSkkkrkknnNbn/AAgng/8A6FTQ/wDwXRf/ABNL4E/5J74a/wCwVa/+ilroKAOf/wCEE8If9Cpof/guh/8AiaT/AIQTwh/0Kmh/+C6H/wCJroaKAOe/4QTwf/0Kmh/+C6L/AOJpf+EE8If9Cpof/guh/wDia6CigDnv+EE8H/8AQqaH/wCC6L/4ml/4QTwh/wBCpof/AILof/ia6CigDn/+EE8If9Cpof8A4Lof/iaT/hBPCH/QqaH/AOC6L/4muhooA5//AIQTwh/0Kmh/+C6H/wCJo/4QTwh/0Kmh/wDguh/+JroKKAOf/wCEE8If9Cpof/guh/8AiaT/AIQTwh/0Kmh/+C6H/wCJroaKAOf/AOEE8If9Cpof/guh/wDiaP8AhBPCH/QqaH/4Lof/AImugooA5/8A4QTwh/0Kmh/+C6H/AOJpP+EE8If9Cpof/gui/wDia6GigDnv+EE8If8AQqaH/wCC6H/4mj/hBPCH/QqaH/4Lof8A4muhooA57/hBPCH/AEKmh/8Aguh/+Jo/4QTwh/0Kmh/+C6H/AOJroaKAOe/4QTwh/wBCpof/AILof/iaP+EE8If9Cpof/guh/wDia6GigDnv+EE8H/8AQqaH/wCC6L/4mj/hBPCH/QqaH/4Lov8A4muhooA5/wD4QTwh/wBCpof/AILof/iaP+EE8If9Cpof/guh/wDia6CigDnv+EE8If8AQqaH/wCC6L/4mj/hBPCH/QqaH/4Lof8A4muhooA57/hBPCH/AEKmh/8Agui/+Jo/4QTwf/0Kmh/+C6L/AOJroaKAOf8A+EE8If8AQqaH/wCC6H/4mj/hBPCH/QqaH/4Lof8A4mugooA5/wD4QTwh/wBCpof/AILof/iaP+EE8If9Cpof/guh/wDia6CigDn/APhBPCH/AEKmh/8Aguh/+Jo/4QTwh/0Kmh/+C6H/AOJroKKAOf8A+EE8If8AQqaH/wCC6H/4mj/hBPCH/QqaH/4Lof8A4mugooA5/wD4QTwh/wBCpof/AILof/iaP+EE8If9Cpof/guh/wDia6CigDn/APhBPCH/AEKmh/8Aguh/+Jo/4QTwh/0Kmh/+C6H/AOJroKKAOf8A+EE8If8AQqaH/wCC6H/4mj/hBPCH/QqaH/4Lof8A4mugooA5/wD4QTwh/wBCpof/AILof/iaP+EE8If9Cpof/guh/wDia6CigDn/APhBPCH/AEKmh/8Aguh/+Jo/4QTwh/0Kmh/+C6H/AOJroKKAOf8A+EE8If8AQqaH/wCC6H/4mj/hBPCH/QqaH/4Lof8A4mugooA5/wD4QTwh/wBCpof/AILof/iaP+EE8If9Cpof/guh/wDia6CigDn/APhBPCH/AEKmh/8Aguh/+Jo/4QTwh/0Kmh/+C6H/AOJroKKAOf8A+EE8If8AQqaH/wCC6H/4mk/4QTwf/wBCpof/AILov/ia6GigDn/+EE8If9Cpof8A4Lof/iaP+EE8If8AQqaH/wCC6H/4mugooA5//hBPCH/QqaH/AOC6H/4mj/hBPCH/AEKmh/8Aguh/+JroKKAOf/4QTwh/0Kmh/wDguh/+Jo/4QTwh/wBCpof/AILof/ia6CigDn/+EE8If9Cpof8A4Lof/iaT/hBPB/8A0Kmh/wDgui/+JroaKAOf/wCEE8If9Cpof/guh/8AiaT/AIQTwh/0Kmh/+C6H/wCJroaKAOe/4QTwf/0Kmh/+C6L/AOJpf+EE8If9Cpof/guh/wDia6CigDnv+EE8H/8AQqaH/wCC6L/4ml/4QTwh/wBCpof/AILof/ia6CigDn/+EE8If9Cpof8A4Lof/iaT/hBPCH/QqaH/AOC6L/4muhooA5//AIQTwh/0Kmh/+C6H/wCJo/4QTwh/0Kmh/wDguh/+JroKKAOf/wCEE8If9Cpof/guh/8AiaT/AIQTwh/0Kmh/+C6H/wCJroaKAOf/AOEE8If9Cpof/guh/wDiaP8AhBPCH/QqaH/4Lof/AImugooA5/8A4QTwh/0Kmh/+C6H/AOJpP+EE8If9Cpof/gui/wDia6GigDnv+EE8If8AQqaH/wCC6H/4mj/hBPCH/QqaH/4Lof8A4muhooA57/hBPCH/AEKmh/8Aguh/+Jo/4QTwh/0Kmh/+C6H/AOJroaKAOe/4QTwh/wBCpof/AILof/iaP+EE8If9Cpof/guh/wDia6GigDnv+EE8H/8AQqaH/wCC6L/4mj/hBPCH/QqaH/4Lov8A4muhooA5/wD4QTwh/wBCpof/AILof/iaP+EE8If9Cpof/guh/wDia6CigDnv+EE8If8AQqaH/wCC6L/4mj/hBPCH/QqaH/4Lof8A4muhooA57/hBPCH/AEKmh/8Agui/+Jo/4QTwf/0Kmh/+C6L/AOJroaKAOf8A+EE8If8AQqaH/wCC6H/4mj/hBPCH/QqaH/4Lof8A4mugooA5/wD4QTwh/wBCpof/AILof/iaP+EE8If9Cpof/guh/wDia6CigDn/APhBPCH/AEKmh/8Aguh/+Jo/4QTwh/0Kmh/+C6H/AOJroKKAOf8A+EE8If8AQqaH/wCC6H/4mj/hBPCH/QqaH/4Lof8A4mugooA5/wD4QTwh/wBCpof/AILof/iaP+EE8If9Cpof/guh/wDia6CigDn/APhBPCH/AEKmh/8Aguh/+Jo/4QTwh/0Kmh/+C6H/AOJroKKAOf8A+EE8If8AQqaH/wCC6H/4mj/hBPCH/QqaH/4Lof8A4mugooA5/wD4QTwh/wBCpof/AILof/iaP+EE8If9Cpof/guh/wDia6CigDn/APhBPCH/AEKmh/8Aguh/+Jo/4QTwh/0Kmh/+C6H/AOJroKKAOf8A+EE8If8AQqaH/wCC6H/4mj/hBPCH/QqaH/4Lof8A4mugooA5/wD4QTwh/wBCpof/AILof/iaP+EE8If9Cpof/guh/wDia6CigDn/APhBPCH/AEKmh/8Aguh/+Jo/4QTwh/0Kmh/+C6H/AOJroKKAOf8A+EE8If8AQqaH/wCC6H/4mk/4QTwf/wBCpof/AILov/ia6GigDn/+EE8If9Cpof8A4Lof/iaP+EE8If8AQqaH/wCC6H/4mugooA5//hBPCH/QqaH/AOC6H/4mj/hBPCH/AEKmh/8Aguh/+JroKKAOf/4QTwh/0Kmh/wDguh/+JrC8ZeDfC1r4H8QXFv4b0eGeLTbh45I7CJWRhExBBC5BB5zXe1z/AI7/AOSe+Jf+wVdf+imoAPAn/JPfDX/YKtf/AEUtdBXP+BP+Se+Gv+wVa/8Aopa6CgAooooAKKKKACiiigAooooAKKKKACiiigAooooAKKKKACiiigAooooAKKKKACkpaKACiiigAooooAKKKKACiiigAooooArX15FYWclzNnZGu4gdT9KpReI9GkSIjVLRTKAVR5lVufYnNQ+K4rqbw9dpafZxJsJ3zruCDHUDua820q2MPh+QSSwzfZrRY2mjIKl2YEAeh9RQB6x/aVp9smtPM/ewxCVx6L61Cdb08adFfvMUt5XVEZlPJY4HHvXk+tQ2n/CT39yLdYhEgJvbbgFtuPLdscHqTWh9hi1G2voLZnuy9xa+cbW4aVGGevH3SB1xQB61kYzkY9aCQBnIxXml7Ytp9rqdkuj+bYf2iBEklvJJDEhQZby05cZ7DvWdFZy/2Bp32u0luLy1uJVj0+fTpWhlUtkYGCEwMYJPFAHqNtqFrdzXMEEoeS2fy5VwRtbGcflWfP4p0u1u2t7iUxFZxAXfAXcV3dc9MVx13okrXmqakunTLeDUrcwsEJKphQ2326gkVl6jaLb6tcvDFZm4fVVjja2iAER2ZzywyfqQPagD02bXdNg0wanJcqtnuCiVgQDk4HXtnvUo1Wye6jtknDvJEZUK8gqOpyK8y1iC91DwFDfSXkiG1vGMqsx+chsA8FvyBxW3YaRC3iTS3aW+VjYs+1bqUdx2JGPpQB0MnjLQoTiS6kQ7tvNtJyfT7tWovEGmy2E16szi3g/1jtC67fwIziuU1garqWvaNcXCyadbLemK2hO1nY7G/eN1H0H51p6hcNa6JLF4lkO9JNsD2krRtdnHACqQcnoR0oA6Gz1C1v5Jkt5PM8khXIHHIyMHvwarxeIdLntL27iu1aGydo7lgp/dsvUEYzXBR6JqOj20KPLdQXF/cxvEyXsmVYtkxsu7DYUdakuNN1C18L63c29nO0ss91HJbrGd8qMx2so7kfyoA7pdd017e8mW6Bis1Dzttb5AV3A9OeOeKltNWsb8zi2nDmDaZPlI27l3DqPQ5rhXimsLLWtPmtboz6rbxLa+Xbu6k+UEIZgMLz/exVvRrtdF1fVrG9t71ZbgQLEyWcsiNiIKfnVSo59TQB1qazp76SuqC6X7ERuEpBAIzjvz1pkuvadHYJerOJYHkEYaPn5icfzrg49RV/h5Fo6xalDfwBA6iwkBUiQfdLJtJ/Oqh0DbpP2jUbOGVZ71cPdQKlwW83uAACCtAHrdFRxxpFGscahUUYVQMACpKACiiigAooooAKKKKACiiigAooooAKKKKACiiigAooooAKKKKACiiigAooooAKKKKACiiigAooooAKKKKACiiigApKWigAooooAKKKKACiiigAooooAKKKKACiiigAooooAKKKKACiiigAooooAKKKKACiiigAooooAKKKKACiiigAooooAKKKKACiiigArn/Hf/ACT3xL/2Crr/ANFNXQVz/jv/AJJ74l/7BV1/6KagA8Cf8k98Nf8AYKtf/RS10Fc/4E/5J74a/wCwVa/+ilroKACiiigAooooAKKKKACiiigAooooAKKKKACiiigAooooAKKKKACiiigAooooAKKKKACiiigAooooAKKKKACiiigApjMqKWZgFAySTwBT6qahG82m3UUY3O8Lqo9SQcUARxanpl/5sNve2twUXMiJKr4U9yAelVIJvDtzbiK3m02WGJwQsboVVieOnQ5rj38N3dlpdoEgjsUi0l4ppS6oqSbgfmOfrzTdKzrUmsz2GnI0c9tBAhV0Zd4yC2VOOOvBzQB6Gn2WbzYk8l9rYkUYOD7j1rNbXNIstWl02WWG1nVUbdIVRX3dACTyeOlUNJmHhfRBDqyT+YspVp4oXmM5678ICR+NZur6JPq15rV/b2Xm/atOijtZHUKxbJJGGwV/HFAHXPqunxXqWUl/apduMrA0yh2+i5yarXviPSbGO7LXsEs1pGZJreKRWlVR/s5zXGa1pXiC5v41jsJfJhlglXyEh2yhcbt7sd+72GB71NcaNqbx67Z2FhdJY3MMhEd15eTKx/5ZsGJ2nnO6gDt7HU7LU4i9ndQzhcbxHIGKEjODg8Gql3/ZVvKLW5trdY3DTsz7AoI6scnPfrisextf+Ee1a6vZ7ZoLAWEEQ8mIv84zkBUBJ/KqfiOyuPEjJeaZbSzQPp1xCDIhiO5iMAq+CM4PagDohqejw2TfY5bSaCKRUdLeSPCMT35AH86iPiPRJbGXV7SeG8EEhty8OC2/ONn51zN/4ZvzcMtnYBYPIslCoVAyj5bjPYVW1PQzZ6AXvo5YmtdYFxFsf5HDSAhsDrgHvQB0jeLNLuJ4BPp95gXPkxzSQDasvTg5z+NaGo6nZQ6gIXtGubqCBrgbEDGMD37E9q5KO487xRDJcRXMOgi4MtpM0BAe4Ixz3C5yQSME1HJo1nN4hvJbXUtVEcSO+o3n2ySJWfHyoMEDj26UAdB4j8S6Pomk23iG6tVuV48p1K713f3cn+VLp/je1v8ATrS/XT7wWt04jSUGNlUk4wcNkc+1cRe6D53g3w5BEly/2m6WadWLOTwc9eme+Kb4Rs00sPBqWnahMq3bGziEUm0HzepwMDHXmgD0rT/EulajO9vHdxR3KzPCIJZFWRihwSFzkir4vrNtuLmElpDEuJBy46qPf2rgrXSNUEV/p50Z4JJ9Ua5jv1ZCvl7w2W53A4BGAD+FPGjaul/aWi6c5hj1iS9e6Ei7AjBsYGck888fnQB1d/4k0uyhuHN1HO9u6JNFA6u6FmCjK545PerF1JpbA3F3JaEWbbjJKy4hOOpJ+6a42bR9Sn8GT6EumXEd3FJHm6BjAn/eAl1O7OQOeQKmv/D+qjR006ESKbS6Fz9pgCM90uTnIfIL887uDQB1B8Q6QL6zshqNsbi9QvbIsgPmqOpXHWtWuC0jQrm01DRL1ba+eOKS5E32wRLLGZMYOEO0LkdB69K72gAooooAKKKKACiiigAooooAKKKKACiiigAooooAKKKKACiiigAooooAKKKKACiiigAooooAKKKKACiiigAooooAKKKKACiiigAooooAKKKKACiiigAooooAKKKKACiiigAooooAKKKKACiiigAooooAKKKKACiiigAooooAKKKKACiiigAooooAKKKKACuf8d/8k98S/wDYKuv/AEU1dBXP+O/+Se+Jf+wVdf8AopqADwJ/yT3w1/2CrX/0UtdBXP8AgT/knvhr/sFWv/opa6CgAooooAKKKKACiiigAooooAKKKKACko7Vyo+IPhphlb6Z1/vJZTsD9CEwaiU4x+J2Gk3sdVRXL/8ACwPDn/P3c/8AgBcf/EUf8LA8N/8AP3c/+AFx/wDEVHt6X8y+8fLLsdRRXL/8LA8N/wDP3c/+AFx/8RR/wsDw3/z93P8A4AXH/wARR7el/MvvDll2Ooorl/8AhYHhv/n7uf8AwAuP/iKP+FgeG/8An7uf/AC4/wDiKPb0v5l94csux1FFcv8A8LA8N/8AP3c/+AFx/wDEUf8ACwPDf/P3c/8AgBcf/EUe3pfzL7w5ZdjqKK5f/hYHhv8A5+7n/wAALj/4ij/hYHhz/n7uf/AC4/8AiKft6X8y+8OWXY6iiuX/AOFgeG/+fy5/8ALj/wCIpYvH/hy4jEkN3dSRnoyWFwQfxCVUKkZ/C7iatudPRXN/8J1oP/Pa8/8ABdcf/G6P+E60H/ntef8AguuP/jdWTdHSUVzf/CdaD/z2vP8AwXXH/wAbo/4TrQf+et7/AOC65/8AjdAro6Siub/4TrQf+e97/wCC64/+N0f8J1oP/Pe9/wDBdcf/ABugLo6Siub/AOE60H/nve/+C64/+N0f8J1oP/Pe9/8ABdcf/G6AujpKK5v/AITrQf8Anre/+C65/wDjdL/wnOg/8973/wAF1x/8boC6OhZVdSrAFTwQe9JHFHEu2NFRfRRiue/4TrQf+e15/wCC64/+N0v/AAnWg/8APe9/8F1x/wDG6B3R0lFZuk63p+twyTafO0ixvscNE0ZVvQhgDWlQMKKKKACoLmdba1lmZWYRqWwqkk49AOanqG4RpLeRF+8ykDkj9RQBwk/judfD/wBrii/fmcJmXEQHzcqA3LEDqcVb1nxo1l/ZDLYvJFeXGxmieORSMHgHcOeKo3HhnW7N7SK1X7VbqH3xpeyRbSehLsWJ5qw3ha6vLXw++pWxnuLWU+aryBxEDn5sn7x6c0AXtF8WyahNDFc6dIkdzO8cEwK7cL0BGcg8V1exNpXaMHqMda4u18KTaXr9jJbzXU8IkMszzbAgOCMgDB3HPpXb0ANCgY4HHT2p2KKKACiiigAooooAKKKKACiiigAooooAKKKKACiiigAooooAKKKKACiiigAooooAKKKKACiiigAooooAKKKKACiiigAooooAKKKKACiiigAooooAKKKKACiiigAooooAKKKKACiiigAooooAKKKKACiiigAooooAKKKKACiiigAooooAKKKKACiiigAooooAKKKKACiiigAooooAK5/x3/yT3xL/ANgq6/8ARTV0Fc/47/5J74l/7BV1/wCimoAPAn/JPfDX/YKtf/RS10Fc94E/5J54Z/7BVr/6KWuhoAKKKKACiiigAooooAKKKKACiiigBvY15d4X/wCRbsP+uf8AWvUexry7wv8A8i3Yf9c/618vxQ/3EPU78B8b9DYooor4a7PWsFFFFF2FgoooouwsFFFFF2FgoooouwsA61P4F/5FCy/4F/6EagHWp/Av/IoWP/Av/QjX2HCTbqVPRHi5z/Dj6nSVzH/CWyf2nJbnS3FrHe/YmuTMOX7ELjkfjXT1iN4bt38z9/L898L49Pvf3enSvuGeBFrqVYfFMs+o20Eenbra6aRYJ/PHzFBzlccZPvVzSdfTV7mSGG2dPIGJyx/1cn9z3rE0/wAN6mNbjmlJtbK1aVreNZxJguMcDaMevJNbNroH9lLNJpk22eVPm84bkd/77AYOfoRSVypNdCLxFqt/puoaRFYQfaDcyujw5C7sLkfMQcCqlx4xMOhw6mtjCI2DeYLi8WJUKnBUEj5jxxwM1pRaXeXU9jd6rPAbqzkdk+yoURgwxyGJP61nS+CLaSCCNL2dPKEiklUbcrkkjBBAPPUc0ajTXUlh8V/atUsrO2s0xcQpNvnuBGdrf3Bg7yO/Iqp4f8UX11JbQahZnbczzRRXIcDcUJ42AdMd81bTwmB/ZyS6lcS21htMcRjjGSvQlgu78M1Yg8MwWqWXlTyFrOWSaPdjDM+eD7c0aheI7xLqt7o9pazWVpDctLcpCwkk2BQxxkcHmrOsHVBY/wDEr8oXBODvXdj6cgfnVSTStR1Sze31e5tQVlSWF7ONkKlTkZ3M2a3BkAAnJ9fWmTdKxX083bWUTXwjFyV+cRrgA/matUlFMm5j+Ff+Qn4i/wCv7/2QV09cBo+qX9pr3iKK10wXqC8DMY7lVcfKP4COnvmt0eKjH/x9aFq8AHVjCrr/AOOsT+lYPc9OHwo6OiueTxpobHD3M0J7+dayoB+JXFXYPEWi3R2wavYyN/dW4XP5ZzSKNSimq6uoZGDA9wc06gAooooAKKKKACiiigAooooAKKKKACiiigAooooAKKKKACiiigAooooAKKKKACiiigAooooAKKKKACiiigAooooAKKKKACiiigAooooAKKKKACiiigAooooAKKKKACiiigAooooAKKKKACiiigAooooAKKKKACiiigAooooAKKKKACiiigAooooAKKKKACiiigAooooAKKKKACiiigAooooAKKKKACuf8d/8k98S/wDYKuv/AEU1dBXP+O/+Se+Jf+wVdf8AopqADwJ/yT3w1/2CrX/0UtdBXP8AgT/knvhr/sFWv/opa6CgAooooAKKKKACiiigAooooAKKKKAG9jXl3hf/AJFuw/65/wBa9R7GvLvC/wDyLdh/1z/rXy3FP8CHqd+X/G/Q2KKKK+GPWCiiigAooooAKKKKACiiigBB1qx4E/5FCy/4F/6EagHWs3whqGvQ+G7aO10KG4gBbbK18ELDcf4dhx+dfYcJfxKnojxs4V4R9TvaK57+1fE3/QtW/wD4Mh/8bo/tXxL/ANC1b/8AgyH/AMbr7m589yM6Giuf/tXxN/0LVv8A+DIf/G6T+1fE3/QtW/8A4Mh/8bouHIzG8P6/rCrZJe+RLb3Us6RyMx8wFCSCx6Yx7U+18Y3815e2qRWt7LFbGeIWqSKMg425bh/qtCWGpxxW0Q8KwlLdpGjB1XP3/vZ+TnrVW30PVLVxJB4fmR1jaJGGuNlEP8I+TgelTqa2iyd9c1i9GiPZ3Vm9xPcyI6IkkcYAXo6k7sj04rpfD+py6to8d3NGiS7mRwmduVOCRntxXOWmn6rZtbunhhHlglaYSSauWZnYYJYlOePWruny69plsLa28MQLFuZ8HVM8k5P/ACzppikk1odXRXPf2r4m/wChat//AAZD/wCN0v8AaviX/oWrf/wZD/43TuZ8jOgorn/7V8S/9C1b/wDgyH/xuj+1fEv/AELVv/4Mh/8AG6LhyMpaT4e07VtX1+a4iZLlL7CXETlJE+QdGHNa32XxJpX/AB6Xceq24/5ZXfySge0g4P4g1V8ES3M1xr0l3brbzm++aJZN4X5R/FgZ/KuwrF7npw+FHNx+KtPdxb6rBLpk542XiYQn2f7p/MVpy6PpN7GC9jayowyD5YOfxq5PbQXURiniSWM9Vdcg1gNod3ojmfQHUQdX0+U/u2/3D/Af0pFDz4J8Pbi0enRwuf44SUP5g0n/AAiaRc22savB6AXjso/BiRV7StcttVMkSh4LuHia2lGHT/Ee4rVoA5z+xddi5h8TzsB0Wa2iYfmFB/Wjy/F8PSfSblR/ehdGP4hsfpXR0UAc22reI7bm48PRzRjq1rdgt+Cso/nTovGekhgl79p06T+7eQlAP+BDK/rXRVHLDFMhSWNXU9QwyKAGW11bXkIltriKeM9HicMD+IqeufufB2izymeO2NrcH/ltauYmH4rUX9la/p/zadrRu4x/yw1BA/H++MNn65oA6WiubHieWyIXW9MubEf89ox50P5qMj8RW3Z39pfw+bZ3UNxH/eicMP0oAs0UUUAFFFFABRRRQAUUUUANpaw9d8S22gS2kU1td3Mt0WEUdtGGPyjJJyR2rL/4T6D/AKAOt/8AfiP/AOLrCpiaNN8s5pPzdilCUtUjsKK5D/hPoP8AoBa3/wB+I/8A4uj/AIT6D/oBa3/34j/+LqPruG/5+R+9f5j9lP8Alf3HX0VyH/CfQf8AQC1v/vxH/wDF0f8ACfQf9ALW/wDvxH/8XR9dw3/PyP3r/MPZT/lf3HX0VyH/AAn0H/QC1v8A78R//F0f8J9B/wBALW/+/Ef/AMXR9dw3/PyP3r/MPZT/AJX9x19Fch/wn0H/AEAdb/78R/8AxdH/AAn0H/QB1v8A78R//F0fXcN/z8j96/zD2U/5X9x19Fch/wAJ9b/9AHW/+/Ef/wAXR/wn0H/QC1v/AL8R/wDxdH13Df8APyP3oPZT/lf3HX0VyH/CfQf9AHW/+/Ef/wAXR/wn1v8A9ALW/wDvxH/8XR9dw3/PyP3r/MPZT/lf3HX0VyH/AAn0H/QC1v8A78R//F0f8J9B/wBALW/+/Ef/AMXR9dw3/PyP3r/MPZT/AJX9x19Fch/wn0H/AEAtb/78R/8AxdH/AAn0H/QC1v8A78R//F0fXcN/z8j96/zD2U/5X9x19Fch/wAJ9B/0Atb/AO/Ef/xdH/CfQf8AQC1v/vxH/wDF0fXcN/z8j96/zD2U/wCV/cdfRXIf8J9B/wBALW/+/Ef/AMXR/wAJ9b/9ALW/+/Ef/wAXR9dw3/PyP3oPZT/lf3HXUVyP/CfQf9ALXP8AvxH/APF0yb4iWdvE0s2i6zHEvLO0CYUep+ehYzDN2U196D2c+zOzoqOORZYkkXoyhhn0NSV1EBRRVe7u4LG0lu7mQRwRKXdz0UDvQBYorlx8Q/C5AI1GQg9/sk3/AMRS/wDCwvDH/QQk/wDASb/4igDp6K5j/hYXhj/oISf+Ak3/AMRR/wALC8Mf9BCT/wABJv8A4igDp6K5j/hYXhj/AKCEn/gJN/8AEUf8LC8Mf9BCT/wEm/8AiKAOnormP+FheGP+ghJ/4CTf/EUf8LC8Mf8AQQk/8BJv/iKAOnormP8AhYXhj/oISf8AgJN/8RR/wsLwx/0EJP8AwEm/+IoA6eiuY/4WF4Y/6CEn/gJN/wDEUf8ACwvDH/QQk/8AASb/AOIoA6eiuY/4WF4Y/wCghJ/4CTf/ABFH/CwvDH/QQk/8BJv/AIigDp6K5j/hYXhj/oISf+Ak3/xFH/CwvDH/AEEJP/ASb/4igDp6K5j/AIWF4Y/6CEn/AICTf/EUf8LC8Mf9BCT/AMBJv/iKAOnormP+FheGP+ghJ/4CTf8AxFH/AAsLwx/0EJP/AAEm/wDiKAOnormP+FheGP8AoISf+Ak3/wARR/wsLwx/0EJP/ASb/wCIoA6eiuY/4WF4Y/6CEn/gJN/8RR/wsLwx/wBBCT/wEm/+IoA6eiuY/wCFheGP+ghJ/wCAk3/xFH/CwvDH/QQk/wDASb/4igDp6K5j/hYXhj/oISf+Ak3/AMRR/wALC8Mf9BCT/wABJv8A4igDp6K5j/hYXhj/AKCEn/gJN/8AEU0/EPwuBk6jIAO5tJv/AIigDqaKgtrmG7tIbqCRZIZkEkbjoykZB/Kp6ACiiigAooooAKKKKACuf8d/8k98S/8AYKuv/RTV0Fc947/5J54m/wCwVdf+imoAXwJ/yT3w1/2CrX/0UtdBXP8AgT/knvhr/sFWv/opa6CgAooooAKKKKACiiigAooooAKKKKAG9jXl3hf/AJFuw/65/wBa9R7GvLvC/wDyLdh/1z/rXy3FP8CHqd+X/G/Q2KKKK+GPWCiiigAooooAKKKKACiiigAHWsrTL2+svAej/wBnzJFPPeLCXdNwCszZ4/CtQdad4MtYLvwhpwniWQRuZE3DO1gxwfrX2HCX8Sp6I8bOHaEfUqwaxq0rrpbXyrcfbZrc3nlL91ADyvTnNVk8U6pB4f06+kmiuJbkvCwCADduwJOOw710OseHIdStjDBIlrvmM8hECPvb1+YcH3qey0DTrGyitkt0dY4zFuYZJU8kfjX3FmeFzKxo24f7PH5kgkfaNzgYBPrXAeHtR1Owh08zXyNZ3UlyvltGP3YTJDFuprsG0WM3sNzHd3sSwgBYIrhliIHqvQ1MmkaeiwqtpEFhLGMbfulvvY+tMhNI43T/ABDrV1qF3aWssl0z2ZuLV57dIlJ3Y+THJX/eqM3eo6jJoaRapMt6LuWOZ54EVoiE5XavynHbrXTjwz4egYILC2jeUMoHQsD1Aq5baLptmkCW9nFGLdi0WF+6TwSKVmVzpbIr+GdQuNS0OK4umDTB3RmAxu2sRnH4Vz2l6pdp4r1Kw3+RbvfsfPk+YOcD92voa6OfQLaRYUt7i7s44mLCO0naJWJOTkDrVo6XYlJUNtGRM/mSZH3m/vH3osxXSucfZ694i1LUJ/s1tcpAWljBe3TyoivQhs7mJxjBHetrTtcn1e+tIrYqqJF5l5xnDdAntzmtJdE01NSGoraRi7AwJR1qrb+G7a2tLuCKe4ie7mM0k0D+W+T6EdKLMHKLKms3moN4nsdKs9Rjso57Z5WYxK7EqRjG6szSNV1TUvE+nGS/dbc28wktwi7ZGR9u7pnnrWxN4R0+7uLaS9aa8WCFogty+8tk5yWPOa1F0yxRrZktY1NsCISFxsHtRZj5klYp+Ff+Qn4i/wCv7/2QV09cx4V/5CfiL/r+/wDZBXT1k9z0IfChaKKKRRh61oK6k0d3aym01KDmG5Qcj/ZYd1PpTdF1uS7nk07UoRbarCMvHn5ZV/voe4/lW9WLr2inVI457aT7PqNsd9vOOx9D6qe4oA2qKyNB1ZtVsWaeLyLuFzFcRH+Fx6ex6itegAooooAKKKKAGlQwwQCPQ1h3nhTS7qf7RFG9ndf897RzE/6da3qKAOZ+y+KNN/49r+21SEf8s7tPLkx6B14/Eg0q+LRa/JrGl3unkdZNnmxfgy8/mBXS01lDDDAEehoApWWradqPNlfW1xntHKGP5dqv1j3nhjRL7P2jTbdie4TB/Sqf/CIW8P8Ax5alqdmB0SK6bYP+AnigDpKK5v8AszxNa822vRXIHRLy2XH5pg0Y8af89dC/78y//F0AdJWfYa1puqSTx2V7DPJbuY5kRvmRh1BHWsojxpg/vdC/78y//F18qX134gt/iJqMmlSzjVPtj/8AHkG5bd2HXH1oA+mfGn/Iz+G/+3r/ANFiou1crZXXi+6vfDbeLbSCCcC58tkP7xx5Y++BwD9K6rtXwHE3++L0R6+B/hfMWiiivnDuCiiigAooopgA6UmOa57Wr3U01R7ayukgij097piYg5LK2ABnsaoX2vai2nz3lvcJbm2t7aVkMYYStLgnr0xyOK7oYGpOKkmtf+GXQxdaKbR2NFYD6pdL4lXShImxiJfN2/dTH+r+v9Km8Vs6eFdQaNtrhBtOeh3Csvq0lOEG/it+JXOrNrobNFcs2q39mdStbm+UyQmDy5lgBbMgPyKvQnjjP41Wi1rWJ9HlmV5l+zXjxXE3kJ5yxqAQ2z7ueefatll9R6pq2nfqr9ifbROyHSiuIur+/hvtV1CzvQYYba1lO6MHzsg/98gg9q6y/aX+yrl4ZTFKIGZZAASp25zzWdXCODim9/w0T/Ucailct0VnaC80ug2MlxO00zwqzyMACxIz2rRFc9SDpzcexad1cKKKKzKCiiigArK8Sf8AIt3/AP1y/qK1ayvEf/IuX/8A1y/qK6ML/Hh6r8zOp8DPSLL/AI8bf/rkv8hViq9l/wAeFv8A9cl/lViv1lbHzwVheM/+RN1f/r2at2sLxn/yJur/APXs1MDmLU/6HB/1zX+QqXJqG1/484P+ua/yFTUAGTRk0UUAGaM0UUAGTRmiigAyaM0Vz95daoPE0lvYtAY1sxIVnJ2g7uoA70AdBmjJrn08RSSxzSJAm1LH7UMk8sGxj6cVNa6ne6hclYEt0giiRpy+4sSy7sLzj86ANrNGTXLaB4gmudMkklBdbSJmmeQ/O5ycYHpx1qm/izULrS7mWzW3WVBHIkhhkCBWYDad2Mtz24oA7XJoyaytfnuLbRJXimSK4AGHzhd359K4bSfEGvRxwee0ckqlyCzlkkJPCjB7DmgD07Joya4bxDquoQarPDDdgFbcbvJDDadw7560221HUG0nUboXdwuFCJli2xt2CQSx5oA7vJoya4mKe5fXl0d7++S5DEu/2nKbOvB/ve1TahqN/DrV9bpLM0NtFGUwxX5iDySOvSgDsMmjJrmfC99NNNPA88tyixxuZZZCSpI5GCOh69a6agAyaMmiigAyaM0UUAGaMmiigAzUN4f9BuP+uTfyqaoLz/jxuP8Ark38qAOt8Jf8idon/XhB/wCi1rZrG8J/8idof/XhB/6LFbNABRRRQAUUUUAFFFFABXP+O/8AknviX/sFXX/opq6Cuf8AHf8AyT3xL/2Crr/0U1ACeBP+SeeGf+wVa/8Aopa6Guf8Cf8AJPfDX/YKtf8A0UtdBQAUUUUAFFFFABRRRQAUUUUAFFFFADexry7wv/yLdh/1z/rXqPY15d4X/wCRbsP+uf8AWvluKf4EPU78v+N+hsUUUV8MesFFFFABRRRQAUUUUAFFFFACDrVjwJ/yKFl/wL/0I1AOtZnhDTNbn8NW0lt4ga3hYttiFpG235jxkjJr7DhL+JU9EeNnCvCPqd9RXPf2P4i/6Gl//AKL/Ck/sfxF/wBDS/8A4BRf4V9zc+e5V3Oiornv7H8R/wDQ0v8A+AUX+FJ/Y/iP/oaX/wDAKL/Ci4cq7lLxnLew6job6fGr3Ikl2hv9zkj1NZeuatfiDT4rC7kaAws0lxLeC2IlB+6zEH/vmt9tE8QMys3iZiy/dJsYeP0qOXw3rM8ZSXxCroTkq2nwkE+v3aTuaRaVrlJ9Z1KwBsp5hLeX8SNaMrblDnhtp9B1rr7aJ4bWKOSRpHVQGdjksfWuUk8N6o+qWrv4mf7TBGfJX7BFtUHgkfLjNXX0vX4wC/itlBOAWs4Rk+nShCkk9mdJRXOnSPEKgk+KnAHJJsoeP0pF0rxA6hk8VsykZBFlCQf0p3I5V3Ojornv7H8Rf9DS/wD4BRf4Uf2P4i/6Gl//AACi/wAKLhyruWfCv/IT8Rf9f3/sgrp64/wTFcQXGvR3VybmZb75pSgTd8o7DgV2FYvc9OHwoWiiikUFFFFAHL37f2H4nt9QHy2WoYt7j0WT+Bvx6flXUVma5pq6ro1zaHhnTKN/dYcgj8aj8O6idU0O3mk4nUeVMvo68MKANeiiigAooooAKKKKACiiigAooooAKKKKAA8isjS/DWj6LLNNYWEEM07mSWUL8zsepJrXooA4jxn/AMjP4b/7ev8A0WKj4o8bQXtx4j8OR2DW63H+kkG4BKY2DPQg1X/sfxVj/XaN/wB+5f8A4qvk86yjFYvEKpSV1ZLc7sPjKNGHLN2ZYoqv/Y3ir/nto3/fuX/4qj+xvFX/AD20b/v3L/8AFV5H+reP/lX3nR/aWH7liiq/9jeKv+e2jf8AfuX/AOKpf7H8Vf8APbRv+/cv/wAVR/q3j/5V94f2lh+5PRVf+xvFX/PbRv8Av3L/APFUf2N4q/57aN/37l/+Ko/1bx/8q+8P7Sw/cWSzt5pWlkiRpGiMLMRyUPJX6Vk6h4Yt9Qu4XeQJbxRrGIViX7o7buuOBWp/Y3iv/nro3/fuX/4ql/sbxV/z10b/AL9y/wDxVbU8jzOm7x/Mh5hhXu/wE+wWm/f5CbjL52cc7/Wq66PBmcTz3NzFMMNDcTF0HOeAelWP7G8Vf89tG/79y/8AxVH9jeKv+eujf9+5f/iqSyLM1t+Yf2jhe/4DLjTLK6E4nto5PPCiXI+9t+7+VVm8OaQ0ZjNjFsLByvqQMZNXf7G8Vf8APXRv+/cv/wAVR/Y3ir/nro3/AH7l/wDiqFkWaR0X5h/aGFfX8Bj6bZusqtbRlZkVJBj7yr90H6UxdOUXrXP2m6III8kzExdMfd6VBq8HifSNJudQkbSJEgXcVCSAnkD+971cXSPFTIredo3Iz/q5f/iqSyLMtrfiP+0MNvf8CS3torWFYYEWOJfuqvQVLz61W/sbxX/z10b/AL9y/wDxVH9jeK/+e2jf9+5f/iqh8OZg3dpfeP8AtLDfzfgWaKr/ANjeKv8Anto3/fuX/wCKo/sbxV/z20b/AL9y/wDxVL/VvH/yr7x/2nh/5ixRUH9jeKv+e2jf9+5f/iqT+xvFX/PbRv8Av3L/APFUf6t4/wDlX3h/aWH7ljrWV4k/5Fy//wCuX9RV3+x/FX/PbRv+/cv/AMVWX4i0vxJF4evXuJdKMIjy4jjkDYyOmW61rQ4ex0KsZSirJrr5kyzHDyi0pHp9l/x42/8A1yX+QqxVey/48bf/AK5L/IVYr75HlhWF4z/5E3V/+vZq3awvGf8AyJmr/wDXs/8AKgDl7X/jzg/65r/IVNWFbahrQtIQNAUjy1wfty88f7tS/wBo63/0L6/+By//ABNAGxRWP/aOt/8AQvr/AOBy/wDxNH9o63/0L6/+By//ABNAGxRWP/aOt/8AQvr/AOBy/wDxNH9o63/0L6/+By//ABNAGxRWP/aOt/8AQvr/AOBy/wDxNH9o63/0L6/+By//ABNAGxWZe6FaX9+t673EVysflB4ZSh256cVF/aOt/wDQvr/4HL/8TR/aOt/9C+v/AIHL/wDE0AOuvDenXkSxukiIsflERyFdydcHHXnmpl0e2juo54nniZEEZVJCFkAGBuHeq/8AaOt/9C+v/gcv/wATR/aOt/8AQvr/AOBy/wDxNAFiLRbGGOFEjIEKlQd3JUkkg+o5pg0K2+zzW7zXUkEoA8qSYlUwcjaO1QnUtbAJPh9eBn/j+X/4mobPXNWv7SO6g0AGKTO3deqDwcf3fagDR1PTzf6W9kHXDqFLSrv4/HvWBa+CmtoVhGpSeXBJ5tsFQAq/qx/i+lav9o63/wBC+v8A4HL/APE0f2jrf/Qvr/4HL/8AE0AU9V8MS6vO0k16EDRqjKkeN2Dnn8RT38LhtOu7QXZT7REse5UC7SO+BVn+0db/AOhfX/wOX/4mj+0db/6F9f8AwOX/AOJoAow+GbuC3SFL6DaknmhjbqWL+pPXNWD4cH2u6vVmX7ZcBAZWQHbgEHA6c5qb+0db/wChfX/wOX/4mj+0db/6F9f/AAOX/wCJoANF0M6I8scV00tvId5WRRuD9zu9PbtWxWP/AGjrf/Qvr/4HL/8AE0f2jrf/AEL6/wDgcv8A8TQBsUVj/wBo63/0L6/+By//ABNH9o63/wBC+v8A4HL/APE0AbFFY/8AaOt/9C+v/gcv/wATR/aOt/8AQvr/AOBy/wDxNAGxRXP2uu6tdtcLFoAzBKYXzeqPmAB4+X0Iqx/aOt/9C+v/AIHL/wDE0AbFQXn/AB43H/XJv5Vnf2jrf/Qvr/4HL/8AE1DdahrRs5wdAUDy2yftynHH+7QB6J4T/wCRO0P/AK8IP/RYrZrG8Jf8idon/XhB/wCi1rZoAKKKKACiiigAooooAK5/x3/yT3xL/wBgq6/9FNXQVz/jv/knviX/ALBV1/6KagA8Cf8AJPfDX/YKtf8A0UtdBXP+BP8Aknvhr/sFWv8A6KWugoAKKKKACiiigAooooAKKKKACiiigBvY15d4X/5Fuw/65/1r1Hsa8u8L/wDIt2H/AFz/AK18txT/AAIep35f8b9DYooor4Y9YKKKKACiiigAooooAKKKKAEHWrHgT/kULH/gX/oRquOtWPAn/IoWP/Av/QjX2PCX8Sp6I8XOf4cfU6SiiivuT5088exlXVLjUQLo3I1sRocthYj1wOmDUNsUHiLTjdC4F+0twL3hwpXbx7HjpivQp7u1tiBcXEMRPI8xwufzrPsdM0S0vbi5tFgFx1lYSbiueeeeKmxqpaGL4almhu7mXVJJY4kjzaNMcKsOf4ieM/WrWs6jCb7RtRt7jz7KGZxNJbN5ijK4AO3PetwXNhe27bZ7aeFjsOHVlJ9P/rU61gtII2itY4Y1VvmSMAAH3A707C5tbnmWdQn0hmC3q+ZYz4yGDAmbj8cVPqmiRxzy2/2eeSzgms7j5tzYJ++3v2zXo813aQTRwzXEEcsnCI7gM30B61X/ALZ05YlkuLqC2DkhRPKqE4OPWlYrnfREOpT6fe2F5pgubeSeSBlFuJRvPy8DbnNQ+EIYrbwnp0EUZjEcQVkYEEMOvX3q6V0qO7juT9jW4m/1chKhpPoe/wCFX8YpkN6WCiiimQY/hX/kJ+Iv+v7/ANkFdPXMeFf+Qn4i/wCv7/2QV09YPc9WHwoWiiikUFFFFABXM6R/oHizV7AcRzKl2g7AnhsflmumrmtY/wBE8VaNfdFmL2r++4ZGfyoA6WiiigAooooAKKKKACiiigAooooAKKKKACiiigDlNf8A+R18Nf7t1/6LFak91bWq7ri4ihXBOZHCjA69ay9f/wCR18Nf7t1/6LFV9d0r+0vE2gSS2vn2kH2hpSwyqkoAufrzWkdjirpOeptSXtpBHHJNdQRxyfcZ5AA3fgk80/7Tb7Wbz4tqgFjvGAD0z9a8vuYZNM8P28Gq2wkL6TcW8Vs7LujlLuQ2Ce6kAEZ9K2X0y9ll0edLOU21ra2y3sY4NzwMDHfYeTn6VVzJ00up291PHZ2k1zLny4Y2kfAycAZP8qgs9Tsr+1Fxb3MTJsWRhvGUDDI3DPHB71n6pq1ne22qaPbTNJqH2WZRCI2GW2HjJGO471zUWiXmmQp9h0lXA0COJ4W4WScOMq3qcZptiUE1qdwmoWMlq10l7btbp96VZVKD6nOKqvr+lrepateRAyQeekpceWy7tvDZxnNcHa6VdG21kXlpqIjmktri2aG0RTuUEEGIHbweoPUVfOi3uoyR3GoaVGJV0GWJURRtWYuSAB2JGD7Ursr2ce56CDkZHSqk2o2kK3JNxGz20ZkljRgXVQM8jrWXpWrWljaaVpN5M6aibaJWiaNid20dWAx2PeuTtNB1GC+ukunvJLkQXWClsgjl3htoMmdzdRgHvRcmMNdTutO1vTdUYx2d3HJMI0leHd86KwyuR24qafUrG1u7e0uLqGK4uSRDG7ANIR1wK5Tw3ZNoN1dXl/aGCN9OtS0wTOCibXU45znFWr1rfW9X0DVrGL7Xb21xKkkgiIZNyYBwwBwDRfQbir+Rs6prlho/lC8kZTIcLtQtx6nHamDxHph1KPT/ADn8+QAr+7bGT0GcdavXVnbXiqtxCsgXoGHSg2Vsbpbkwp569HxyOMU9SPdMjxt/yJmqf9ch/wChCtlZEitVeR1RAgyzHAH41jeNv+RM1T/rkP8A0IU7xRaTX/gy+tIImlllgCrGvVuRxR1GldJGql9aSRSSpcwNHGSHdZAQmOuT2oivbWcKYbmGQMcKUkByfQYrhtR0uTTZ9Skjt1g08fY3Zcqqyhc+YoyQCTx161BY2k2paTqa6XaG3kudTaS1lGMQjaPmyPxHFK5Xs13PRUkSRd0bqy5xlTkU0zwDOZoxhth+YcN6fX2rDstVsNE0qxt74PZysu0RtGzEsDgnKg9T61g39lqK39xbR6dPKtzrEN4JkxsWIYyT78dKbYlC71OyTVbIwedLPHAuSP30ir0OPX1pY9TsZ7+Wxiu4XuolDvCrgsoPQkVwtj4cuZbmE3unMyR216F3gEB2kJX8SORV7w1Yy6NfPfahaNEG0yEPNtyVZM7g2Oc9KV2Nwjbc6261Kxsp7eC6u4YZrhtsKOwBc+grP8Yf8ihqn/XA/wAxWdqMlrr17ompWEX2yG0uz5jeUQyAqRnDAHGcVo+L/wDkUNU/64H+Yp3ElZo6Ox/48bf/AK5L/IVYqvZf8eNt/wBcl/kKsVgemFYXjP8A5E3V/wDr2at2sLxn/wAibq//AF7NQBy9r/x5wf8AXNf5Cpqhtf8Ajzg/65r/ACFTUAFFFFABRRRQAUUUUAFFFFABRRRQA1/9W/8Aun+VZXhf/kXLP6N/6Ga1X/1b/wC6f5VleGP+Rcs/o3/oZoA16KKKACiiigAooooAKKKKACiiigAooooAxtB/1+s/9hBv/QErZrG0H/X6z/2EG/8AQErZoAKgvP8AjxuP+uTfyqeoLz/jxuP+uTfyoA63wl/yJ2if9eEH/ota2axfCf8AyJ2if9eEH/osVtUAFFFFABRRRQAUUUUAFc/47/5J74l/7BV1/wCimroK5/x3/wAk98S/9gq6/wDRTUAHgT/knvhr/sFWv/opa6Cuf8Cf8k98Nf8AYKtf/RS10FABRRRQAUUUUAFFFFABRRRQAUUUUAN7GvLvC/8AyLdh/wBc/wCteo9jXl3hf/kW7D/rn/WvluKf4EPU78v+N+hsUUUV8MesFFFFABRRRQAUUUUAFFFFACDrVnwID/wiFlx/e/8AQjVcday/CHhPRdQ8NW11c2heaQsWbzGGTuPoa+w4S/iVPRHjZxbkjfud/g+lGD6Vzv8Awg/h7/nxP/f1/wDGj/hB/D3/AD4n/v6/+Nfc6nz1o9yn4g0I6n4iNzJZGdItMlSJiMgSEnA+vSs6HRbzT4oXtdLMjf2TtljfpJLu6N6nFWv7G8Ef2h9gzH9q3mMx+c+Qw7HnrR/Yvgn7e1l8n2lc5j82TPAyfrgVJqnZWMnStO1IR6tHJp1x/paRG3Jt1hWNxwThTxg9+9dNpN1F4d0RU1cyRT+YVklKM/nP/e+UHrUMPhXwncOiQwq7OnmKFmc5X160+Xwj4Xgmhhltgsk5IjUyvliOTjmmkxSlF7lbUYJJPF1lf2FpPOZVTzWlgBhCf3gx5Vh7CsuW1lg0S0sL3Q7qdZJpWlkjt1lZE3k4GTxn1q6+keDUfJjiFuImkaY3D4UK208Z9e9V57fwBb26znDxtMsAKPIfmPT8PekUmhmvaLdS6jDNEt5FYPBFHDHBaJI8JB56n5PqK9BjUiJBycKBk9a5i68I+GLKylu57RlhiQu7CRzgD2zUemeGPCmr6dDf2Vqz28y7kYyOMj6E00TJpo63B9KMH0rnf+EH8Pf8+J/7+v8A40f8IP4e/wCfE/8Af1/8aepnaPcteFf+Qn4i/wCv7/2QV09ch4IsoNPn161tU2Qx33yrknHyj1rr6xe56cPhQtFFFIoKKKKACue8ZR/8U9Jcrw1o6XAPoFIJ/SuhrJ8Tp5nhjUk9bd/5UAaMEomt4pV6SKGH4jNS1R0ht+jWLesCf+gir1ABRRRQAUUUUAFFFFABRRRQAUUUUAFFFFAHKa//AMjr4a/3br/0WK2+9Ymv/wDI6+Gv926/9FitutYbHBifjK09jaXMqSz20Uskf3GdASv0qzRRVnPcQKN2cDPrisLRfFmma0kKxTCO5l3YgbORhiuM4xnjp1reHBrhNF0TWYbLTNLu7GGBLO9N0bqKUHeodiFIxnJDcmky4pNanXRatp84tjFdxsLrf5JB+/s+9j6YqhL4p07bCbVzch7yOzYoCArPnByRyOO1c5aeGtZEmmWEsMUdpYpeRm5EmWcyqQrBew+b9Ks3Oh6lqvh3T9IuLIWws7qAPJHOMyRoCC64GQenFK7L5Y9zpJta0yCza8luohAjlDIAT8w7DA5/Co08S6VJq0emJdBriS3+0rhTtMfru6Vz+oeHdUlsLGFC+dMkbyjayiFp0K4HOPlI7+tS6X4fnsbqxlFk32YabLaywyzh3Vi+/lsfNnJFF2HLG250Wn6tYasspsrgTrGdrkKQM/iOfwq8ABwAB9K5zwnYajp8FzFdRNBablFrbySiVolA5G4Dp6DtXSU0ZyVnZBRRRTJMHxt/yJmqf9ch/wChCtuL/Ux/7o/lWH42/wCRM1T/AK5D/wBCFbkX+oj/AN0fypdSn8I24t4bqIxXESSxnqjrkGlhhigiWKGNY0XgKowBUlFMkxp/EemKt2I7iOaW0XdIpyFHOPvYxTpPEujw36WE14qXTsFWMo3LHoM4x+tczPoGrSw63a2lr9lsrmNhHBJOHDSFs7l4+UHnI9a0zFqzeJImuNIE1lAFWGRbhQF45crjJNTdmvLE24tX0+bUn0+O6RrtBloxnP59DV8jI5riNL8M3Wn+I45Jlu54Y5pJo5jdfu1L5/5Z4z3x1rt6aIkkthAAOgA+lYvjD/kUNU/64H+YrbrE8Yf8ihqn/XA/zFD2CHxI6Ox/48Lb/rkv8qsVXsv+PC2/65L/ACFWKwPVCsLxn/yJur/9ezVu1heM/wDkTdX/AOvZqAOYtf8Ajzg/65r/ACFS1UF3b2WmQz3UyxRCNAXc8AkDFMXWdOeza7W7jMCttZwDwfTGM0AXqKpwarYXKI8N1G6vu2kHrt6/lVmGWOeNJImDI/KsO9AD6KyrHxBYX07W4mWO4WR4/KY8naeT6VPDrOm3EssUV5GzxAs45GAOp5HP4UAXqKyJvEumxRQzLOJIZJvJMgBAQ4znkc/hWja3cF7brPbSrLE3RloAmoqrLqVlBdx2ktyiTyfcQ5yao2/iSwnvksWZ47mSSSONCpO7Z1ORwKANiiqep6paaRZm6vZDHDuC5CluT06Ut9fx2VkboxySpgECMcnPT6UAWX/1b/7p/lWV4X/5Fyz+jf8AoZq7aXiX9gLlI5EV1PyuMHpVDw5IkPhe2lkYKiK7Mx6Abm5oA2aKo2+s6bdpK9veRSLEu5yM8D1+lEGs6bdKWhvI3AYITyMMegORQBeoqOKeKcMYnDhWKsR2I6is9vEFhFqc9hcSrDLEUA3H7+4HGPTp3oA1KKpHVtPF8LI3cYuScCPnr6Z6ZqtdeI9Ot7W7mjmE5tRmREyMc46kYoA1qKrWeoWmoK7WlwkwQ7W254P40l5qNnp4Q3dwkQc4Xdnk/hQBaorHufEun2V69tdO0eHiRXALBy+cdPpWldXUNlay3Nw22GJSztjOAPpQBNRVSDUre50tNRt98tu8fmLtX5iPoaZpeqR6rA0scMsW1tpEg/kfpj86AKmg/wCv1n/sIN/6AlbNY2g/6/Wf+wg3/oCVs0AFQXn/AB43H/XNv5VPUF5/x43H/XJv5UAdZ4T/AORO0T/rwg/9Fitqsbwl/wAidon/AF4Qf+i1rZoAKKKKACiiigAooooAK5/x3/yT3xL/ANgq6/8ARTV0Fc/47/5J74l/7BV1/wCimoAPAn/JPfDX/YKtf/RS10Fc/wCBP+Se+Gv+wVa/+ilroKACiiigAooooAKKKKACiiigAooooAaehrybRr+30zwdaXl0zLDGihioyeWwOPqa9ZPQ15Bp9k+o+CbO1jdVZvLbLdPlkDH+VfM8RqLp01Pbm1O7BX5pW7GjH4gspLaWYLODE4jMTR4kLEZAC98jmnQ69YTQrNvkjjaR490qbdrJ1B9O/wCVZmq2E9rLc6hGGlka5imhjjjLcrHswwB6df0qK20O71HRmt7xhClxdS3Mg24bkkqMduvNfMOhhnBTvZaflr9x6HNO9jpra4S6t0njDBHGRuGDisiz8S289/LZzRyRyLcvbqwQlCVJwCfUgZqz5+oWi20AsBc/KBJJHKEVe3Q9fWqo0OYBf3kfGoteHj+E7uPr81Y06dFKXtOu2pTctLFhNes2uGidZ4tqM4eWIqrqv3ip74qtc+J4YrKC7jtrjyZJ1hzJHgsGBO5QOvSqFv4a1CHVo76WW2nkQSqWkLEyqw7joMYHSp7Tw9dRRRCR4I1S8W4EMe4oihSCFzzyTmuj2WDjre/9MjmqPobmn38Go25mg3gBijLIu1lYdQRVO6161sbi4S5J2xSRxARoSxZ1yBTI4r3SUuTDafbGuLqSbakgTYGORnPWoZ9EuLnUWvCyIHuIZ9h5ICIVI/M1hGlQ525P3emvp/WxTlK2m4s/ie1jt0njSVlxKXiMZEmUAJGOxrVsbxb+wgukjkjWVA4SQYYZ9axX8OzSXLu0yBHluXOByBKAB+VXon1DT7S0tlsRdFUCSSRyhAuOOh5PFOtToOKVLf19QjKSfvbEmlavHqrXYjgnh+zzGFvNXG4juK2PAn/In2X/AAL/ANCNZGm2MtjPeFnVo55zMmOoz1BrX8Cf8ifZf8C/9CNfTcMcnt6vJtZHk5vf2cb92dJRRWJrevDRbzT4ngeVLpnU+WpZwVGRgd6+zPASbdkZMnh28L3Eiwxb5NYW7DbuTEO/19qydLM0uvWFnbwpcDTpbh3mBOW3DgHIGOeO9dlb6/Y3LWqKZFkuWZEjdMMrKMkMOxqD/hJdO8qCSCOeZrhiqJDFluDgkjsM96myNFKXYoaJpl3oEl9d3MHnLOvnEQjc0Zz/AKtR3FSXr3erNpuq2FhOHs5nJt7oeUzZGM9+KtWXiSG4vrm0lTbNHdNBGifMzAD7xHakn8V6fE1yoS4kMKMwKx/LKV6hD3IoDW+2py6+E9YfTPKlghErWksbKJMjc0u7H0xWjqHhu+kvp57eGLYDavGm7G7y/vD2rqNI1FNX0q21COKWJJ0DhJRhh9aqSeIrT7dc2cUc7yW6sZJRHmNCBnBPrRZBzSbC51IXc9xpIsrxZJImTzmi/dZK/wB7NS+H7Wey0GztbmMJLDGI2AOQcd6oS+LrW1tbWae2vJEnRWEsEBaP5unOc1ck8Q2EWopZMZd7EKZAn7tWPRS3Y+1MTTtaxrUUUUzMx/Cv/IT8Rf8AX9/7IK6euY8K/wDIT8Rf9f3/ALIK6esHuerD4ULRRRSKCiiigAqhrSeZol6nrCw/Sr9Vr5Q1jcA9DG38qAKfhx/M8N6c3rAv8q1aw/Bz7/COlt6wCtygAooooAKKKKACiiigAooooAKKKKACiiigDjPFd7Bpvifw7eXbNHboLlWkCMwUlBjOAetSf8Jp4e/6CH/kGT/4musZFcYZQ31Gab5MX/PJP++RVKTRjUoqbuzlf+E08Pf9BD/yDJ/8TS/8Jp4e/wCgh/5Bk/8Aia6nyYv+eSf98ijyIv8Ankn/AHyKfOyPqse5yv8Awmnh7/oIf+QZP/iaP+E08Pf9BD/yDJ/8TXVeRF/zyT/vkUeTF/zyT/vkUc7D6tHucr/wmnh7/oIf+QZP/iaD418OgEnUQAOpMMn/AMTXVeTF/wA8k/75FIbeJgQYkIIwRtFHOw+rR7nKr428OOoZNSVlPIKxSEH/AMdpf+E08Pf9BD/yDJ/8TUnhQR2b6hoMqoZbCYmIEDLQv8yH+Y/Cum8mL/nkn/fIo52H1aPc5X/hNPD3/QQ/8gyf/E0f8Jp4e/6CH/kGT/4muq8mL/nkn/fIo8mL/nkn/fIo52H1aPc5b/hNPD3/AEEP/IMn/wATR/wmnh7/AKCH/kGT/wCJrqfJi/55J/3yKPJi/wCeSf8AfIo52H1WPc888WeKtFvfCuoW1teGSaSMBUWCTJO4f7Na8XjPw+IkB1DkKP8AljJ/8TXWeTF/zyT/AL5FHkxf88k/75FHOx/Vo2tc5X/hNPD3/QQ/8gyf/E0v/CaeHv8AoIf+QZP/AImup8mL/nkn/fIo8mL/AJ5J/wB8ijnYvqse5yv/AAmnh7/oIf8AkGT/AOJo/wCE08Pf9BD/AMgyf/E11Xkxf88k/wC+RR5MX/PJP++RRzsPq0e5yv8Awmnh7/oIf+QZP/iaX/hNPD3/AEEP/IMn/wATXU+RF/zyT/vkUeTF/wA8k/75FHOw+rR7nK/8Jp4e/wCgh/5Bk/8AiayvEvirRb7w3f2tteGWeWIqiLDJljkcfdrv/Ii/55J/3yKPJj/55p/3yKOdjWHine4yyBFjbgjBES8fhViiioOgKwvGf/Im6v8A9ezVu1heM/8AkTdX/wCvZqAOF1Oxk1HQbe3iRXO6FyGPG0EE1l6lA+l3U+oyCMRC/WaOPJxIuzbjgHFdNa/8ecH/AFzX+QqbAPUUAcZb6Rean4eigEawb7iW439wCcgD2NdEuoGzNrbS2NzvZVBMEe+NO3JzWjRQBzUGiXUQtiIog6ajJcOc9UOcH3+lUrfR9XbU0uL62aeMRSwyR+eAhDdNgx8orsqKAOWtNI1ForFLmL9xb3qypFLIHaOMDoT35q5ZvJodrIlxaXMpmupHUW0e/Ck8Z5GK3aKAOWvtDnn1p7vZdzW9w8bmOO4EYTb/AHgRzUtnpF7banBdNGjKtxcMwDchXxg//WrpKKAMLUZH1zTLm0trS5ilRlYfaI9ivhs4Bz7Vt48yMeYgGRkqece1OooAYyhYWVQAAp4FYWkwPc+CFgjALyQyKoJ7lmref/Vv/un+VZXhj/kXLP6N/wChmgDJvtImt7RpG8uCGPTo4WYHjerAkYA6cHmo7OK51qDV5YrZIkvXiVWzwgAILDgZIrsaKAMW0lfQ9Kgt57S4mZGKA2yeYWH9488ZqnfaPc3n9sSxwpuvFh8kscNheoPpXTUUAcjf6ZrVxrST+WXghu0mjVZgqMg7Fcfe96STRdRls9UtIbYwWkw/dW8kwcb92SQccAjPFdfRQBiqj6VqOpXzW0skEwhWNLdNzHAIPy/iKpaxptxq0tvqFvHe7DA0TW6SiB8E9859K6eigDlpNDvFnaWGEbEe0eNHkySIs7gT6+/etee8F3JcactrdK7IyiZ4sRdP72a0qKAKWkwS2+jWdtcRhZIoVjZQcj5RjP44zVtERBhFCj0AxTqKAMbQf9frP/YQb/0BK1WeQS7Vi3LsJ3bsc9lx/WsrQf8AX6z/ANhBv/QErZoAijklZow8BQMm5juB2tx8vv359qS8/wCPG4/65N/KpqgvP+PG4/65t/KgDrPCf/InaJ/14Qf+ixW1WL4T/wCRO0T/AK8IP/RYraoAKKKKACiiigAooooAK5/x3/yT3xL/ANgq6/8ARTV0Fc/47/5J74l/7BV1/wCimoAPAn/JPfDX/YKtf/RS10Fc/wCBP+Se+Gv+wVa/+ilroKACiiigAooooAKKKKACiiigAooooAb2NeXeF/8AkW7D/rn/AFr1Hsa8u8L/APIt2H/XP+tfLcU/wIep35f8b9DYooor4Y9YKKKKACiiigAooooAKKKKAAdazvCHinRLDwzbW1zfpHNGWDKUc4O4+grQHWpvA0cbeEbItGpPzckD+8a+w4S/iVPRHjZxbkjfuT/8Jr4c/wCgmn/ft/8A4msLX/EGnXt7pl5putWsctlI7lZoZCHDDGOBxXceTF/zyT/vkUvkxf8APJP++RX3NmeApRTvY85/tLTUaC/i1m0GoLcyXDKYpDHlwAQOM8YqLTdRstIjsJ7fWrKa8hR4pvMilCMrPuyMDg816V5MX/PJP++RWdq1/FpiwpHZfabmdisUCYUsRyeT0pWKU09LHG219olnq95q1vrUC3k9wZP9VJtaM4+VuP1qnZjw5Z6lK63tm0LrLi4YTGVC4OcDG3vXRXPieWw1q9guNKL20EUMjlAv7nf1ye/PpV678R21lqsFpNp22GaRY0nLIMs3TCdSPekVd9jGtPGdjpGl2FjG8V6Y0EbyRsyBQOAcFeeKqXOq6Vc6/PepqlnbQvE8bGJJd02VwN4xjg9xXVaLrCa20jx6U8NsjMgmk24ZlOCAP602zk1Z9blhubK1WxGdrqvPH880Cuk3ocgNaitn0yOHVdMntbOFU2TJMPn7twOfai4m8OnxIdTS7sp1lmWaQzCYMjD+6AMH8a9L8mL/AJ5J/wB8ik8mL/nkn/fIp2F7RdjE/wCE28Of9BNP+/b/APxNH/Ca+HP+gmn/AH7f/wCJrb8mL/nkn/fIo8mL/nkn/fIp6kXiYngm8t7+4166tZBJC998rgEZ+UetddXL+FAF1LxCAAB9u6D/AHBXUVi9z0ofChaKKKRQUUUUAFQXn/Hlcf8AXNv5VPUF5/x5XH/XNv5UAY/gr/kTdK/64D+ZrfrA8Ff8ibpX/XAfzNb9ABRRQelAHLz+NLKz1S8s7qKUCCMSKyISWXODx7Gi98b6XZaTLfyGVRHKsRjkQq244xxz2Oa5LV9Auv8AhM7x1lu7q5u4FiXcuYwpbnnou0VLqdrqN3ZX8elQSyTSaggg3x/I+xACWJ6AEZz6igDsU8V6ZLexRJcw/Z5UQrcbxtZ2PyoPc4NGm+K9M1G9lsxMsV0k8kAic8sUPJH+FcJbaVLbym2OkTqftEI8swbkI43MW9c5ORW/B4Zv4mgdYIlkXXJLx23cmIg4Pv1HFAHSweINJubqa2hv4XlhBaRc4wB1OT1x7VSufGWkQwW9xHcCa3lultmkXICMQTk5HI47Vy9roGuvr0N5qVmZ4VjuIJohMojKuOCigcDjBz61Zs/D2sS2mnQ3Vvi2ttTjmjgnkDvFCqkEFgOcHGPagDfv/F+nW0OnzQTRzR3k4iVhngc5PTqMdKb4f8Vxa7FbMltJH5ysxZiAoIJGB3PT8K5+fRLmGezgnWYebrctwsUPKmM5IZj2FZ/hOxvZdXsvtaSL50VyJ1ww8ok4GB0X8KAOsj8cabLa6lMmQLIuBuYAS7e6nPPNXrzxFaW2lQ34KSxyFQVSVcjOM9+cZ5FcLY+Fm0/S/E9s9gzW6eYLcyIDv442966PUEit9JsNMsdISe+niBiBiHlwkqAXY9senegDZ0vxDY6okrRzwqUneFF81SX2nGQPes+38a2Vx4Ym1xbeYJC+x4GwHGX2A/Q9aw4vDMel6xo+kw7ZljnF2HEWGiCKdwLejMeBTLjwlqv/AAhNpa2scf8AaGFiuIi/ytH52/OfUDkfWgDppvFVvDpGp6ibeUx2F21q6gjLEMq5Ht81WIfEEMunateCGQLpss0TqSMuYxkkfWudvNC1R4NU0WO0322o3xuvtnmACIFlYgr1J+X9aWK01u3j8Q6WNJLQ6jc3MkV2J12gSLhcr160AdJNr0MOj2Oo+RK4vPLEcSDLZcZArLk8d6SE09o5M/a5hEyurAx5z7e1Y9xZ6zqnhvTNJudAeP7G9vv3XQw4RcHBXketJZ6JcaSPD1lKXaV7hJGtwNyw7FbcQ3ocigD0IEMAR0PNOoooA5/X9Hnumi1TS2EerWgJjJ4Ey9429j+hq5omswa3YC4iUxyKSk0L/eicdVIrUrnNR0a5ttUOs6NtFwy7bm2Y4S4A6H2YdjQB0dFZWla5baqGRQ0N1H/rbaUYdD9O49xWrQAUUUUAFFFFABRRRQAUUUUAFFFFABRRRQAUUUUAFYXjP/kTdX/69mrdrC8Z/wDIm6v/ANezUAcxa/8AHnB/1zX+QqWobX/jzg/65r/IVNQAUUUUAFFFFABRRRQAUUUUAFFFFADX/wBW/wDun+VZXhf/AJFyz+jf+hmtV/8AVv8A7p/lWV4Y/wCRbs/o3/oZoA16KKKACiiigAooooAKKKKACiiigAooooAxtB/1+s/9hBv/AEBK2axtB/1+s/8AYQb/ANAStmgAqC8/48bj/rk38qnqC8/48bj/AK5N/KgDrfCf/InaH/14Qf8AosVs1jeE/wDkTtD/AOvCD/0WK2aACiiigAooooAKKKKACuf8d/8AJPfEv/YKuv8A0U1dBXP+O/8AknviX/sFXX/opqAE8Cf8k88M/wDYKtf/AEUtdDXP+BP+Se+Gv+wVa/8Aopa6CgAooooAKKKKACiiigAooooAKKKKAG9jXl3hf/kW7D/rn/WvUexry7wv/wAi3Yf9c/618txT/Ah6nfl/xv0Niiiivhj1gooooAKKKKACiiigAooooARetWPAn/IoWP8AwL/0I1XHWrHgT/kULH/gX/oRr7HhL+JU9EeLnPwR9TpKKKK+5PnQrL1fS5NR+zzW1z9mu7Zi0MpQMBkYOQetalZ2uak+kaJdX8cImeFQRGTjccgYz+NJjV76FC68NfbF1IzXZ8y+iijdggAUpjkD3rPvPBButUN6t/giZJk3QhmRl7Bj0X2qaPxJfiG/S5tbWG6tljcbpT5e1xkZPqPaqVv42vr2C0SysLe4uprp7YlZCIwVGdwJGcUtDVc502i6YNI05bQSmXDs+4jH3jmtGuQsPF91O1tJdWCRW05lQMr5bfGCWOP7vHFS+G/F6a/qD24SLaY/NjaIscLnGHyMA/SndEOEt2dVRRRTICiiigDH8K/8hPxF/wBf3/sgrp65jwr/AMhPxF/1/f8Asgrp6we56sPhQtFFFIoKKKKACoLz/jyuP+ubfyqeqeqS+RpV3L/diY/pQBmeCv8AkTdK/wCuA/ma36xvCsXkeFtNjxjEC1s0AFFFFAHMax4sTSdSmsxp89w0FsLqWRCAqR5wTz346U2/8Y29kxMNlNcW6GISyxkARmQjaCD7HNWtS8NrqF5qNwbhk+22P2MgL93knd+tc3qXhrUpdRNhZxyJYzG3aediu12i28+o4XGKAOnXxHA2q/2WYJBeeaVaP0QDPmf7tN8WatcaJ4dnv7ZQ0sbxgKVzkFwCMeuDTY/D3la4dYF0xu2chyRw0WOI/wAOuaiutO1fXLG5sNVFrbRGRHie3Ysx2uG5B+lABH4qMlret/Zs63VpKI5LdnUY3DIJboBiqo8d28ljaS29lJLcXMzwCEyqoDp94b+h9vWpNU8IG+l1CVL0xtd3EU+1kDJ8i7drD+IH0qmPAs0eiS6THfxC2luHmYG2XK7uoT+7zyD2oAfJ4xnstc1OC7sJHtLWS3Uypj9yJFHX+98x7V0uq3AsNIvLwfKYYXkyqgngE1i3Hg9J7fU4ftkgF81u2SMlfKCj8c7atXdtrGpG/wBPuUtItPuIZIkljZjIMjAJB470AZjeOYY2ZHsLmSKBbc3NxwFQSqCDjvyRkUkPjCY+IINPWzaaGW5uoXuCQvkiIA9O45qZvBaNp+oWv21sXgtgW2j5fJCj9dtSw+E/suox38N0TPHeXFyFZRgrKAGT9BzQBgat41vNNgs5BeafJHJKzPchHw0SuBjAHDHIH4VqXnim8t4tOZYPN86UljaoWVwOAgLdCT+QFZt74Mv7zS7izuYLeQyymVZIpWXZlwxGOh6YrRv/AAxNcabC0VsIZ4A7IqylmVj/AHSTjJ96AKeh+MdQv/Es8M1ujWUsipEUBPlbQdxPoM96W78f2kt1qiWmqW0EVtEFg81D++kByzA4+7j5c+vNQ+HfCWsaXqC3MlxKLSdgJLXzQTEoz1OPmyScj8q0JtDv7mLVLuWygSVrR7KxtIyMIpz8zH1PH4CgDH8YePruLQdLvfDrETXkhXZJH0wMkEHv9KseH/F19q8ehTx3azm7Ki4h+zjMQIOSWHTkVe1HwldXp8NKPJH9mwMsrH++YwuR+Rqv4V8Ka54bhtrSKez+zmRHuHGd2AWyqjpg5FAHf0UUUAFFFFAGTquh2+qFZgzW97H/AKq5iOHT/EexrOTX7zSJBb6/bsEHC38C5ib/AHgOVP6V09MZFdSrKGU9QRmgBsFxDcwrLBKkkbdGRsg1LXOXPhcQytdaLcvptyeSqcxP/vJ0/KoU8Q6ppuY9b0iXC8fabIeYje+3qKAOporM0/XtL1Pi0voZH6bCdrZ+h5rToAKKKKACiiigAooooAKKKKACiiigArF8VwS3PhTVIYI2kle3YKijljjoK2qKAPK4NUkjtokbR9X3Kig/6IeoH1qT+1m/6BGsf+Ah/wAa9QqKeeG3jMk8qRIOrOwA/WgDynUPFVlpNv8AaNRtNRtYc43y2xA/nXNX/wAXdDiKRabDcX0znCqF2jPpXofiz+yfHGly6Ha2p1GR/uzqCI4D/e3f0FePeF/hTqulfFay0/UofMtID9oE6j5HVen69qAPSbfWZpLaN5dF1ZJGUFlW1JAP1zUv9rN/0CNY/wDAQ/416gOBRQB5f/azf9AjWP8AwEP+NH9rN/0CNY/8BD/jXqFFAHl/9rN/0CNY/wDAQ/40f2s3/QI1j/wEP+NeoUUAeX/2s3/QI1j/AMBD/jR/azf9AjWP/AQ/416hRQB5c2rOUYDSNX5BH/Hof8az9DvLix0a2tp9G1dZUDbgLQnqxPr717DRQB5f/azf9AjWP/AQ/wCNH9rN/wBAjV//AAEP+NeoUUAeX/2s3/QI1j/wEP8AjR/azf8AQI1j/wABD/jXqFFAHl/9rN/0CNY/8BD/AI0f2s3/AECNY/8AAQ/416hRQB5f/azf9AjWP/AQ/wCNH9rN/wBAjWP/AAEP+NeoUUAeX/2s3/QI1j/wEP8AjR/azf8AQI1j/wABD/jXqFFAHl/9rN/0CNY/8BD/AI0f2s3/AECNY/8AAQ/416hRQB47pN3cWkupNLo2rgT3bSx4tScqVUevqDWl/azf9AjWP/AQ/wCNeoUUAeX/ANrN/wBAjWP/AAEP+NRXGpySWs0a6Pq+5kIH+iHqR9a9VooAyPDMMtv4V0eCdGjlisoUdG6qwQAg1r0UUAFFFFABRRRQAUUUUAFc947/AOSeeJv+wVdf+imroa5/x3/yT3xL/wBgq6/9FNQAeBP+Se+Gv+wVa/8Aopa6Cue8Cf8AJPPDP/YKtf8A0UtdDQAUUUUAFFFFABRRRQAUUUUAFFFFADexry7wv/yLdh/1z/rXqPY15d4X/wCRbsP+uf8AWvluKf4EPU78v+N+hsUUUV8MesFFFFABRRRQAUUUUAFFFFACD71ZvhLWNUt/DVtFB4euLmNSwWVZ0Ab5jzg1pD71WPAv/In2X/Av/QjX2HCX8Sp6I8bOHaER39v6z/0K11/4ER0f2/rP/QrXX/gRHXRVx2s69rFpqmpi2e2Wz09YXZWTLSb8ZGe3XrX3D0PAjZ9C/wD2/rP/AEK11/4ER1V1K/1TVNPmsp/C14IpQA225jB4IP8ASobrxFqf21ZYHgS0W/SyeF0yxz1YGr2na5eXfiKfSXEX+iktLIBw4P3QPcd6CrW1sYt/aXd+blpPDOoK84jyy3ceVMf3SKjsLC9sL2O6Xw7qckiSmYb7uMguRgn8a6fxPqV3penQSWTQrNLcxw7pRlQGPJrLuNf1Ow+1WE0kM16ksMaTrHtQeZ0JHtSsNSbRThgu4Y7SMeFr5ltZJJEDXUfJf72fbmpNMfVtLuXkh0DUmhK7Vge5i2IPaphr2qyCPTVkgXUDdvbG5MfyfKu7O2jR9XuNU8RafJKxXdZSh0U/KzK+N2KB3dtUX/7f1n/oVrr/AMCI6P7d1r/oVrr/AMCI6XXrnUYdf0KK0u1ht55nWeMx7t4C569qs67pd5qSQi0vpLYo2TtbAPpT1I00uir/AG/rP/QrXX/gRHR/b+s/9Ctdf+BEdb0KNHAiO7OyqAWbqT61JTsTzLsc/wCCJ5rmfXpZ7ZraVr75oWYMV+UdxXX1zHhX/kJ+Iv8Ar+/9kFdPWL3PSh8KFooopFBRRRQAVi+KnMfhTU2U4b7OwH1xW1XPeM32+Gpl/wCekiR/mwFAGtpqeXpVmmMbYUH6CrdRxJ5cSJ/dUCpKACiiigAooooAztZvxp2lTXG5AwGF3ttyfTPrXHeG/FVv/a0wvtY8xPsqMolGCpLHg44z7967TVY7qWxZbOO3eYkY88ZUe9c4ngx45jqaXgOsMR5khQeU6j+DZ2H60AY3inxZcWHjLTrJGlNvNC8u1ZQEfAG0nuBn86S78Ta7HodxK1xG05tbe4j8uMIQXl2lfy4rpbjwnbza5DqKqi5SVbgHktuUAY9AMdKqp8PdLXT7mya4uniuIUhcmQ5AVtwwe3NABd+K77SoruPULOEXcKxyokTkqY3kCck9xmpr3xVLb6hf2MNqj3EVzDbW+5iFd5ELfN6AYNWB4Ss3trmK7uLi6edBH5szZZFU7lAPseajj8G2UUV5m6u3uLqVJ2uWfLrIi4DKexxQBm3fiW/0zxVDY3Sq01xYIY7aM/u/OMhGdx6DFSat45TTNcGnGOFmhMQuFy28l+mwAc475rXPhizmm868kmupTai1Z5G5ZQ24N/vZ70yTwvG1xDcRX11DMu0SOpBMwXpuyPTigDmLrxRrh0e9kuIIR5WrNag20oRiikYHzdycDjtmrLa7q/8AwlcQZ1WDyPLZETcokLDgc88d63Z/ClpLHcxpK6R3F19qZcBtrkclc9MnmsRPA19HqPnLfwGAXy3IDQ5kIGON9AGLfeL9aTXPEtlHJCot2hVXQswhGOSOMfUV3Hh/VrrUZr+C7EBa2dArwElXVl3A1AnhO0kv9Qa5iR7S4kiljjXIIdAQST3zmpfDegnRGvsCNIppB5UUZJCIowOT3oA6CiiigAooooAKKKKACiiigAo6iiigDK1Dw9pWp83VlGz9pFG1h9COazv+Ed1OxH/Ep1yeNB0hul85APQZ5rpqKAOaN14qtP8AW2NleIO8UhR2/A8Uf8Jabc7dQ0fUbVu+2LzVH4rXS0nXgigDFt/FuhXLbV1KFX7rJlCPzrShvrS4OIbqGQ+iSA/yps+m2N0uJ7SCQf7SA1my+ENBkGBp0UR9YfkP6UAbtFc1/wAIfBCP9B1LUbT/AK5zlv55o/4Ra9/6GjV/++1/woA6Wiua/wCEWvf+ho1f/vtf8KB4Xu8/P4l1Zh3HmKP6UAdLUEl3bQ/6y4iTH95wKwv+EM0+Qf6RcX059WuWH8jU0Xg/Q4+tisn/AF1Jf+dAEt14q0W0bbJqMLP2SM7yfyqp/wAJW9xxp2i6hcn1dPKH5tWtb6bp2nxn7PZwQooydqAYqla+LNBu7hLe21OCSVjhUXPJ/KgCozeKtQO1VtNMiP8AEf3sn5dKfD4QsWlE+pTT6lOP4rl8r+C9KtxeKNFmvBZx6jE1wW2+WM5z6dKSLxTok16LOPUYmuC23yxnOfTpQBqQwRW8YSGNY0AwAowKftBbdgZHesmPxRos14LOPUYmuC23yxnOfTpRH4o0SW8+xpqMTXBbb5YznPp0oA2KKxo/FOiS3gs01GJrgtt8vnOfTpSp4o0SW8+xpqMRuN23yxnOfTpQBsUVjJ4p0SS9+xpqMRuN2zy+c59OlCeKNEkvfsaajEbnds8vBzn06UAbNFYyeKNEe9+xLqMRud2zy8HOfTpQvijRHvfsS6jEbnds8vBzn06UAbNFYy+KdEe++xLqMRud2zy+c59OlC+KNEa++xDUYjc7tnl85z6dKANmisZfFGiNffYhqMRud2zy+c59OlA8UaI199iGoxG53bPL5zn06UAbNFYw8U6Ib77ENRi+07tnl85z6dK0bW8tr1He2mSVUcxsVOcMOooAsUUUUAFFFFABRRRQAUUUUAFFFFABRRRQAUUUUAFFFFABRRRQAUUUUAFFFFABXP8Ajv8A5J74l/7BV1/6Kaugrn/Hf/JPfEv/AGCrr/0U1AB4E/5J74a/7BVr/wCilroK57wJ/wAk88M/9gq1/wDRS10NABRRRQAUUUUAFFFFABRRRQAUUUUAN7GvLvC//It2H/XP+teo9jXl3hf/AJFuw/65/wBa+W4p/gQ9Tvy/436GxRRRXwx6wUUUUAFFFFABRRRQAUUUUAA61P4E/wCRQsf+Bf8AoRquOtWPAn/IoWP/AAL/ANCNfY8JfxKnojxc5/hx9TpKoXGjWFy1000AY3YUTc/eC9P5Vfor7k+dTscvN4S+0+IBqE08fkJIsiRJHg7l6EnPNbCaPZRMrwxeXKu4rIp+YFup960KKVinJs5u78Km+sRaXep3V1H9oSY+fg4C/wAIxV6Lw7pcVhNZrb5imOX3MSxPbk81y8+r3q3OtXI1hg9jeeXDZDaA68cHuetTya1f/wBtNJ9rKlL1LYWPGGQjl8dfxpaGlpdzoH8OaWdLFg1vi3U7wd5DA+u7rmnjRLIRo1oDBIkBhimiPKKTniuTGs38zO8l40n2oXMclpxiBUU4PqM+9dV4YOfC+mHOc26fyoVmS00r3Fg0SMQQpeXM99JDL5scs5+ZT7EVq0UVRDbe4UUUUCMfwr/yE/EX/X9/7IK6euY8K/8AIT8Rf9f3/sgrp6we56sPhQtFFFIoKKKKACub8YjzNNtLf/nreQj8mB/pXSVzniXL6loEXUNfAkewUmgDo6KKKACiiigAooooAKKKKACiiigAooooAKKKKACiiigAooooAKKKKACiiigAooooAKKKKACiiigAooooAKKKKACiiigAooooAKKKKACiiigCC8QyWU6AgFo2AJ6dKy/DWmx2Ph3T4XSB5Y4gC6AEE+oNal4hksp0BALRsAT06VQ8N2r2XhvT7aR0d44QpZDkH6GgDQFvAG3CGMN6hRmgW8AfcIYw3rtGalJwM15xr2u63Ff6ksUtiiJZMybLk8c9frQB6ELeAPuEMYb12jNAt4A24QxhvXaM1meHru9utORrwW24Iu0wS78jA6+hrFm8V3T/ANsp5EUKWMbkL5hE5x0bGMYPrQB1ot4A+8QxhuudozQLeAPvEMe7rnaM1zU+uazFe6fDb2VrPDdKhG6Y+aFIBZiMY4qK38cW9z4mGmIkZjMzW42sTIHHUkYwF980AdULeANvEMe7rnaM0C3gD7hDHu652jNZWuazJY7LOygee/nU+WoHyoO7MewFZvhzWL4RW0F4k13FOx8q8Ve/cOO31oA6cW8AfcIY93XO0Zo+zwB94hj3dc7Rmud17U9VtfEWl2mmIkvnxylopG2qSBwSetLZ+Kmubu1tWtQssgmWXDcK8YyQPUUAdD9ngDb/ACY93XO0Zo+zwB9/kx7uudozXNWPie91Y2UdhZw+dLF584lkICJvK8Y6nioNA8Tz3up3unsDNLBdS+Y7fKI4hjAHqaAOs+zwbt/kx7uudozR9ng37/Jj3dc7RmuF/wCFhSXS3yafDbSSLDJJb5djymc+Zxx0rsdGubi80WyurtES4mhWR1jOVBIzxQBZ+zwb9/kx7uudozWV4ctobaPURDcLMHvpHbaMbGIGV/CtusTw7bxW0eoiK4WbffSOxUfdJA+X8KANuiiigAooooAKKKKACiiigAooooAKKKKACiiigAooooAKKKKACiiigAooooAK5/x3/wAk98S/9gq6/wDRTV0Fc947/wCSeeJv+wVdf+imoAPAn/JPPDP/AGCrX/0UtdDXPeBP+SeeGf8AsFWv/opa6GgAooooAKKKKACiiigAooooAKKKKAG9jXl3hf8A5Fuw/wCuf9a9R7GvLvC//It2H/XP+tfLcU/wIep35f8AG/Q2KKKK+GPWCiiigAooooAKKKKACiiigAHWszwhaeIpPDVs1nqtpFAS2xHtdxA3Hqc81pDrVjwJ/wAihZf8C/8AQjX2HCX8Sp6I8bOHaEfUd9h8V/8AQasf/AP/AOvR9h8V/wDQasf/AAD/APr10VcD4gS5bVddulurtTZpbtBGjkIGOMnA69a+4eh4EW2bn2HxX/0GrH/wD/8Ar0fYfFf/AEGrH/wD/wDr1zmoXkp1iJ5rq4jvf7SijSJXYK0BHUjpg1qaTdXD+JpIpZ5v7OQubRmz+8b+IE+g7UFNNEMHg/WYb2a7Oo6dLPLMZt8ljkqx9OauNoGvtei8bUdMNyBgSmx+YD65pfGd9GmiQPDeMifbIkke3fLBSTkcVkS3Tx2d/HptzPJpCzQgz72Yqp/1mGPPFLQacmrmsvh7XluZbhb/AEsTSjbI4seWHoeadHa+IoJI7KPXNNRwmUiFnj5RxwM9KxTdMdPijlu7hdD+2un2ne24xBfl+brjNWtAmuJNd0ye8LcWEoEknGU8z5SSfbFAamsbLxUCAdbsAT0/0Tr+tRXCeI7UKbjxDpsQY4G+1xk/nTPEUVvda94duxKzRx3LKzxSHaCV4zjjrWzq2iWesrGLpM7OhHWmTe1rmcLLxUwBGt2BB6EWn/16X7D4r/6DVj/4B/8A1634o0hiSKMAIgCgDsKfTsTzHP8AghLqOfXkvJkmuBffPIibQflHauvrmPCv/IT8Rf8AX9/7IK6esXuelD4ULRRRSKCiiigArnNY/e+LNDh/umSX8hj+tdHXN3o3ePdL/wBi0mz+JWgDpKKKKACiiigAooooAKKKKACiiigAooooAKKKKACiiigAooooAKKKKACiiigAooooAKKKKACiiigAooooAKKKKACiiigAooooAKKKKACiiigCC7QyWc6AgFo2AJ+lUPDdq9l4c0+2kdHeOEKWQ5B+hq/dxtLZzxr9542UfUiuZ0671TQdKsdN/sS6vGhhVXlhddufxNAHVsMqRjOR0NcsnguwuWuX1G0tiJkMaxRJgIp9+pNX7zW7+2mRIdBvLhWUEujoACe3JovNa1C2lRItAvLhWUEsjoAD6cmgB3h3Rzolm9sfKYBsJIibWZe273qtP4St7y8u7m7u7md7iJoVDEDylbqFwP51Pea1qFtKiRaBeXCsoYsjoAp9OTRea1qFtKixaDeXCsoYsjoAp9OTQBAPCpj1Vb6DVr6LaiJ5SlSpVRjHI71Yi8OxW+rC+trqaFC5d7dQuxmPUnjNJea1qFtIixaDeXAZQxZHQBT6cmi81rULaRFi0G8uAyhiyOgCn05NAGxJGHRgANxUjNUNC06TS9KitZXVmQsSV6cnNVL/AFy/sypj0C8uF2b2ZHQbfUcmoF8T3Fxa211Y6Fe3UE8YcOjINvbByaALWteHYdZu7S7N1cW1zabvKkgbBG4YP1qCXwjZvbQIlxcRTRFybhGw77+Gz9amvNa1C3eNYtBvLgMoYlHQbT6HJovNa1C2eNYtBvLgMgYlHQbT6HJoAgg8JW9lFYrZXl1bvaJ5e9GBMiZztbPXmp4/DFjCWeNpFmNw04lB+YFuq/T2ovNa1C2eMRaDeXAZAxKOg2n0OTRea1qFs0Yi0C8uA6BiUdBtPocmgCOHwrbwzThbmb7JMjIbXA2AN1wcZrV0+0WwsILVZGkWFAis/XA6fpWdea1qFs0Yi0C8uA6BmKOg2n0OTRea3qFs0Qi0C8uN6BmKOg2H0OTQBuVieHbaK2j1ERXCzB76R2Kj7pIX5fwpLzWtQtjEItBvLjegZijoNh9Dk0/w7YS2FrctKCr3Vy9xsPVNwHB/KgDZooooAKKKKACiiigAooooAKKKKACiiigAooooAKKKKACiiigAooooAKKKKACuf8d/8k98S/8AYKuv/RTV0Fc/47/5J74l/wCwVdf+imoAPAn/ACT3w1/2CrX/ANFLXQVz3gT/AJJ54Z/7BVr/AOilroaACiiigAooooAKKKKACiiigAooooAb2NeXeF/+RbsP+uf9a9R7GvL/AAuD/wAI3Y8H/V/1r5fij+BD1O7AfG/Q16KXB9DRg+hr4azPXuJRS4PoaMH0NFmFxKKXB9DRg+hoswuJRS4PoaMH0NFmFxKKXB9DRg+hoswuNHWrHgT/AJFCy/4F/wChGoADnoaseBAf+EQsuP73/oRr6/hJfvKnojxc5+CPqdHUUrQxRvLMUVAMuzYAAHrUuKo6xafbdFvrXyxJ5sDqEPckHH619yfPrcpppOkS366x5nmPIQyO02Uz22jOK1H+z48tzEM8bSQM5rzjUdMuxoujrHGbexitPLeNrVpCkvqFHIPvUmoaDNctq100VzPcJZ2y20uCCW4yyjs3Wlc05L9Tsl0LREg2RWtvHGJVlOwgDevTNaMYgeIiIRtGeoTBFeca5p5043EItZ/sTXFmQi5/eHB349T610OiXFrYT6jeBGsdHOwRLMhQB8fMcH1NCYpQdr3Omk+zxx7JPKVP7rYA/Km3EVpLbmO4WIxONuGxhh6Vxmu3WmXfivTrieCS/sWsXI8lS4zu64HWqlxZ3a2FidTtLie38iVYo1QsUkJ/dkgdMDH0ouCgdza2Wn6bEtvbQwQIzbhGuBk+oFPtr+3u5biOB9zW8nlyjHRsZxXB6hY6gGjW8t55r17SFLORFLCKUfeJPaum8NW9xBdayZ43Uvd7lLD73yjkUJicNL3OgooxRiqMzH8K/wDIT8Rf9f3/ALIK6euY8K/8hPxF/wBf3/sgrp6we56sPhQtFFFIoKKKKACucf5/H0X/AEzsmP5sK6OucgO/4g3Y/uWCfqxoA6OiiigAooooAKKKKACiiigAooooAKKKKACiiigAooooAKKKKACiiigAooooAKKKKACiiigAooooAKKKKACiiigAooooAKKKKACiiigAooooAKKKKACiiigAooooAKKKKAIp9ptpQxwuw5I9MVmeGEtk8N2S2cjyW4Q7GcYJGTWnPtNtKGOF2HJHpiszwwltH4csls5Gktwh2O4wSMmgDYooooAKKKKACiiigAooooAKKKKACiiigAooooAKKKKACiiigAooooAKKKKACiiigAooooAKKKKACiiigArnvHf/ACTzxN/2Crr/ANFNXQ1z3jv/AJJ54m/7BV1/6KagBfAn/JPfDX/YKtf/AEUtdBXPeBP+SeeGf+wVa/8Aopa6GgAooooAKKKKACiiigAooooAKKKKAErkl+HegxrtjW8jQdFS6cAfQZrraKicIz0krjTa2OU/4V7on96//wDAt/8AGj/hXuif3r//AMC3/wAa6uis/q1H+Rfch88u5yn/AAr3RP71/wD+Bb/40f8ACvdE/vX/AP4Fv/jXV0UfVqP8i+5Bzy7nKf8ACvdE/vX/AP4Fv/jWdaeCdCm1bULYXWou0JTMZuXAjyoPBzznOa7ysTTY7VfEestFKzXDNF5yHov7sYx+GKPq1H+Rfcg55dzP/wCFe6J/ev8A/wAC3/xo/wCFe6J/ev8A/wAC3/xrq6KPq1H+Rfcg55dzlP8AhXuif3r/AP8AAt/8aP8AhXuif3r/AP8AAt/8a6uij6tR/kX3IOeXc5P/AIV7on96+/8AAx/8adB8P9FtYVhge/jjXoq3bgD9a6nFLV06cIfCkvQTblucx/wg2lf8/Go/+Bj/AONH/CDaV/z8aj/4GP8A4109FaXI5V2OZ/4QfSv+fjUf/Ax/8aP+EH0v/n41L/wMf/GumoouPlXY5SbwBotwFE0l+4VgyhrxzgjoetPfwJpEi7Xl1Bh6NduR/OuooouHKuxyY+H2hrMswa+EirsVhduCB6dam/4QfSv+fjUv/Ax/8a6aii4cq7HM/wDCD6V/z8aj/wCBj/40f8IPpX/PxqP/AIGP/jXTUUXDlXY5n/hB9K/5+NR/8DH/AMaP+EH0r/n41H/wMf8AxrpqKLhyrsZmj6HZaFDLFZrJiV/MkaSQuzN6kmtSiigYUUUUAFFFFABXOQjZ8Qbk/wDPSwQfkx/xro65yb5PH9t/00snH5EUAdHRRRQAUUUUAJSUyZisMjDqFJH5V5hpV1r+paXBeyeIbpGmBYqsaYHJGBxXFjcbSwcVKq9Hoa0qUqjtE9Tpa83267/0Mt7/AN+4/wDCjGu/9DLe/wDfuP8Awrzv9Y8F3f3G31Or2PSKK83xrv8A0Mt7/wB+4/8ACjGu/wDQy3v/AH7j/wAKP9Y8F3f3B9Tq9j0iivN8a7/0Mt7/AN+4/wDCjGu/9DLe/wDfuP8Awo/1jwXd/cH1Or2PSKK83xrv/Qy3v/fuP/Cjbrv/AEMt7/37j/wo/wBY8F3f3B9Tq9j0iivN8a7/ANDLe/8AfuP/AAo267/0Mt7/AN+4/wDCj/WPBd39wfU6vY9IorzfGu/9DLe/9+4/8KMa5/0Mt7/37j/wo/1jwXd/cH1Or2PSKK83267/ANDLe/8AfuP/AAoxrv8A0Mt7/wB+4/8ACj/WPBd39wfU6vY9IorzfGu/9DLe/wDfuP8Awoxrv/Qy3v8A37j/AMKP9Y8F3f3B9Tq9j0iivN8a7/0Mt7/37j/wo267/wBDLe/9+4/8KP8AWPBd39wfU6vY9Iorzfbrv/Qy3v8A37j/AMKNuu/9DLe/9+4/8KP9Y8F3f3B9Tq9j0iivN9uu/wDQy3v/AH7j/wAKMa5/0Mt7/wB+4/8ACj/WPBd39wfU6vY9IorzfGu/9DLe/wDfuP8Awoxrv/Qy3v8A37j/AMKP9Y8F3f3B9Tq9j0iivN8a7/0Mt7/37j/woxrv/Qy3v/fuP/Cj/WPBd39wfU6vY9IpK84267/0Mt7/AN+4/wDCo7htdhtZpV8S3hKRswzGnYZ9Ka4hwTdrv7hfU6vY9MoryvS7nxBfaVaXUniS7DzRK7ARJgEj6Vb/AOJ7/wBDLe/9+4/8K91anKek0V5t/wAT3/oZb3/v3H/hR/xPf+hlvf8Av3H/AIUAek0V5t/xPf8AoZb3/v3H/hR/xPf+hlvf+/cf+FAHpNFebf8AE9/6GW9/79x/4Uf8T3/oZb3/AL9x/wCFAHpNFebf8T3/AKGW9/79x/4Uf8T3/oZb3/v3H/hQB6TRXm3/ABPf+hlvf+/cf+FH/E9/6GW9/wC/cf8AhQB6TRXm3/E9/wChlvf+/cf+FH/E9/6GW9/79x/4UAeiXAU20oY4XYcn2xWZ4YS2j8N2S2cjSW4Q7HYYJGTXGsmuOjK3iW9IYYP7uP8AwqGysdW0+zjtLbxFepDGMKvlocd/SgD1CivNv+J7/wBDLe/9+4/8KP8Aie/9DLe/9+4/8KAPSaK82/4nv/Qy3v8A37j/AMKP+J7/ANDLe/8AfuP/AAoA9Jorzb/ie/8AQy3v/fuP/Cj/AInv/Qy3v/fuP/CgD0mivNv+J7/0Mt7/AN+4/wDCj/ie/wDQy3v/AH7j/wAKAPSaK82/4nv/AEMt7/37j/wo/wCJ7/0Mt7/37j/woA9Jorzb/ie/9DLe/wDfuP8Awo/4nv8A0Mt7/wB+4/8ACgD0mivNv+J7/wBDLe/9+4/8KD/buD/xUt7/AN+4/wDCgD0misDwde3WoeFbK6vJjNcNvDyEAbsOyg8ewFb9ABRRRQAUUUUAFFFFABRRRQAUUUUAFFFFABRRRQAVz/jv/knviX/sFXX/AKKaugrn/Hf/ACT3xL/2Crr/ANFNQAeBP+Se+Gv+wVa/+ilroK5/wJ/yT3w1/wBgq1/9FLXQUAFFFFABRRRQAUUUUAFFFFABRRRQAUUUUAFFFFABRRRQAViabHar4j1p4pWadmi85COF/djGPwrbrE02O1XxFrTxSs07NF5yEcJ+7GMfhQBt0UUUAFFFFABRRRQAUUUUAFFFFABRRRQAUUUUAFFFFABRRRQAUUUUAFFFFABRRRQAVzWrE2/jLRLljiORJbf/AIEwBH8q6Wud8YRMNGW9T/WWUyTg+gB+b9M0AdFRUcUqzQpIv3XUMPoakoAKKKKAIZ/+PaX/AHD/ACrzTwx/yLVh/uH/ANCNelz/APHtL/uH+VeaeGP+RasP9w/+hGvluKf4EPX9Dvy/436GtRRRXwx6wUUUUAJRRRQBXXULN7n7Ot1CZ8keWHG7I6jFINRsjO8AuoTKmSybxkYGT+Vc/Fos8cyTC2AlOtNcs4xkw8859Pas7SGLavp0KQLNJZR3SzyoQfNLDj8+nNeqsHSabjK9l5ef+Vjn9rLqjt1nikYIkisxUOADnK+v0qrfara6fc20N04j+0ByrscKNgycn8aydFtZtEivJr6NirKJFdAW8tf+eQHXippo49a1bRr2OBpLWBp/MMqbdpKADg+9YKhBVHd3ir6+dr/mU5vl8zTl1Owt44pJruFEl5jZnADfSnm9tEuorV7iJZ5cbIy3LfSuMn0nV/7Bs7FbVgTayxuyKrMrlm2qSei4I5HNaFnZ3ser6ZcRWU0bmGGO8aXaY9qrjg9Qw9q3eDoqLfP36rpt95PtZdjb03WrLVIka3mXzHUt5TH5wASOR+FXWljWREZ1DvnYpPLY64rldI0afTl0GRrbyzbi7a6K9RuyVz65q1q0z63pLTaQshu7aUNGJIyhORggZ9j+lZVMNT9raD93v21aVxxqPl13NefU7SG0+0LNHIhzt2uPmwcHH0pqatatHdyySCGO2naCRpDgbhj/ABrjz4Wv4LTUrJE8y3iiVLIZ+8XdWf8ALB/OtRtPvILuS7a1aeJdSuJjAuCZEdQFYZ44INbfVcOk7Tv/AEn/AF5k+0nfY2YNbsZ7e4uDOkcME7QNI5wpYY6H05qeTUrGKSKOS7hR5QDGrNgtnpiuYttOvIP9Mk05jGmozzm0UglkdQFPpwRmm+J7DVNQeZLWzdYnhjaMoq5LAglWJ5GO2KX1Sg6iipad7rT+tx+0ny3sdV9vszcG3F1EZhkFNwyMdfyqGDWbO7vxZ28yzOYTNuQ5UANtx9c1jpo9xLp2uEQCG7u7h5ImbG4qQuBn8CKLUSR662pyaZJZ2sViYm4BYtvB6D2qfq1GztK7Xpv/AF+Q+eWl0blzqNpaXVtaT3CRz3JIhQ9XIq1isK4K6rfaRqNrC8kVtNIsm+PayhlxnB7A1vVyVYKCj36+t3+hpGTbYUUUVzlhRRRQAVBff8g+6/64v/6CanqC+/5B91/1xf8A9BNXT+NEz2KHh7/kXNO/690/lWlWb4e/5FzTv+vdP5VpV+vQ2R84wooopgFFFFABRRRQAVRvNWtLC7ht7qQRGVGcOxwoA65/Or1YGtW9x/bunXsenfbYIY5FkUYyucYwD1oA2luoH2bZkbepdMN94DqRTG1CzTyS91EomOI8t9/6VzaWGoWZtrpLRpWCXC+SGAKeYflB9hT9JsrvTpNPkubB5h9mSFlXB8hgSSefr2oA3bTUre8QsjbD5rRBX4LMpwcUk2r6dBFcSSXkIW3GZvmzs+tYWl6Pe2F5PdvGZPOmlGxjzGrHhl/rVK28PXaxXVvMLqSb7PJGjuqCJifcck/WgDrnv7ddPN8rh7fZ5gZe4rFtPGuk3gzHJtUTeUWYgAe/0q7OrJ4Y2MogdbcKVYcAgYwcV5vY2LGKYiwdb0SZ8mOM7TG33m546dKAPR77xJYWLxq0gkEkbSAoc8Co7fxRZ3DOBFKu2IzE8EbR9O9c74jCSGza23yxi0ZY40jwRwAM03SraWPT7zMchaW0ZwBng4xt560AdEviiFoRKtjdGM4+bA79O9WZddt4p4rd4pRPJH5nlnAKrnHNcXBMJ5rbUjm3aEIBaFGIlwACz+/pWrqKtqHiE3axn7ILIZlbI/i54xyaAOg0zW4NUleOOKWMqu4GTHzDOMitOuK8MIw1lvtSSIY4ylsHjxvXOdwPb6V2tABRRRQAUUUUAFFFFABSHofpS0h6H6UAbfgH/kS7D6y/+jXrpa5rwD/yJdh9Zf8A0a9dLQAUUUUAFFFFABRRRQAUUUUAFFFFABRRRQAUUUUAFc/47/5J74l/7BV1/wCimroK5/x3/wAk98S/9gq6/wDRTUAHgT/knvhr/sFWv/opa3mJCkjrisDwJ/yTzwz/ANgq1/8ARS1vSDMbAdSDQBzukf8ACUXCWlzfXOmCKRVeWKGNiRkdA2cfjVmGDxGL8NNe6e1pv5RYWD7fTOetP8K2stj4T0i0nKmWG0jRyrZBIUA896sanq9ppL2gu32LdTGFXPRSEZ+T2GENAFSGDxGL8NNe6e1pv5RYWD7fTOetEUHiMX4aW9sDab8lFhYPt9M561dl1jTobSO7kvrdLeX7khkG1voadLqthbvAk15AjXGPKDOMvnpj1oAoRQeIxfhpb2wNpvyUWFg+30znrRFB4jF+GlvbA2m/JRYWD7fTOetS2PiHTL55Y0uUSWOSWNo3YBv3bFWOPTINZaeOdNe8SDk73uFBj+cnymVeg9d2RQBfjg8R/bw0l7p5tN/KLCwfb6Zz1pY4PEY1ANJe6ebTfkosLb9vpnPWpLnxBp9lZQ3V3N5HnRl0jf7xwMkYHfkUlj4j0u+8pUukWWRdwiY4bpk0ARxweIxfhpL2wNpvyUELb9vpnPWlSDxGL8M97YGz35KCFt+30znrVa88Z6ZZ2j3MnmlFmWJdqE7ssFz9Oan1LxLZadYQXrlmhkkCk4wVBOC2D6HFADkg8R/bwz3tgbPfkoIW37fTOetCQeIxqAZ72wNnvyUELb9vpnPWi38UaTc3Yto7k+aSVwyEDIGcZx6c1BD4v0u5truW1mWZrefyPLRgWZt20YHpnP5UATrB4jGoBmvbA2e/JQQtv2+mc9aFh8R/bwzXmnm035KCFt+30znGamutcsrXTY77zVljkdY4xGwO9mOMD/Pan2GsW1/5wU+W0c0kJVzgkocMR7UAVlg8R/2gGa90/wCx7/uCFt+30znrQIPEf9obje6f9j352CFt+30znrUEvjHSI4LqYXCyLbyLGdjAltxxke3X8jUereN9I0m2guGkeeObdtaFSw46/wAqALYh8R/b9xvLD7Jvzs8lt+30znGapWuja7aeIr3UFv7E293IheMwtuCqoUAHPXAq1Y+LNK1C8+yxThZTGrhX+UnIzgA98U6DxRp891Pb/vI2gOJTIuAp9/zoAUQeIvt+83un/ZN/3PJbft9M560eR4j+37vtun/ZN+dnktv2+mc9aT/hJ7AiEqxxLM0WWIG3b1Y+3T86S38U6dcarcWCyYaEKd5BwcjNADvI8R/b9323T/sm/OzyW37fTOetHkeIvt+77bp/2Tf9zyW37fTOetU18c6MfNIuEIjuvsx2sDnr8304res762v4BPazJLETjcp4zQBmmDxF9v3C9sPsm/OzyW37fTOetBg8Rfb9wvbD7Jvzs8lt+30znrW3RQBiGDxH9v3C90/7Jv8AueS2/b6Zz1oaDxF9v3Le6f8AZN/3DC2/b9c9a26KAMRoPEX2/et7p4tN/wBwwtv2+mc9aGg8Rfb9y3uni03fcMLb9vpnPWtuigDEeDxEb/cl7p4tN33DC2/b9c9aHg8RG/3Je6eLTd9wwtv2/XPWtuigDEeDxEb/AHJe6eLTd9wwtv2/XPWiSDxEb/dHe2AtN33DC2/b9c9a26KAMSSDxEb/AHR3tgLTd9wwtv2/XPWiSDxEb/dHe6eLTd9xoW37frnrW3RQBzepza5pxmvpL6wTTojuZTAxcL9c9a6GNxJGjjoygj8ay/E8dvL4cvkupTFAY/ndRkgZFaNsALWEKcqEXB9RigCaiiigAooooAKKKKACq19bLe2M9q/3ZUKH8RVmigDn/C945sW0u6yL7T8RSg/xD+Fh7EV0Fc9r1rNazx63YoWuLcYmjX/lrF3H1HUVsWV5b6hax3VtIskUi5Ug0AWaKKKAIZ/+PeX/AHD/ACrzHwzLGPDdiDIgOw8Fh/eNemz/APHtL/uH+VeReH/D+k3Gg2c01jE8jqSzHOSdxr5niVQdGHO+vT/h0d2Bvzux0vnRf89o/wDvoUedF/z2j/76FZn/AAjOi/8AQNi/M/40f8Izov8A0DYfzP8AjXxfLQ7v7l/men7/AJGn50f/AD2j/wC+hR50f/PaP/voVmf8I1ov/QOi/Wj/AIRrRf8AoGxfr/jRah3f3L/MPf7I0/Oi/wCe0f8A30KPOi/57R/99Csz/hGdF/6BsP5n/Gj/AIRnRf8AoHRfrRy0O7+5f5h7/kafnRf89o/++hUaG2iJMbQIT1KkDNUP+EZ0X/oGxfmf8aP+EZ0X/oGxfmf8adqP8z+5f5h7/ZGn50f/AD2j/wC+hR50f/PWP/voVmf8I1ov/QOi/X/Gj/hGtF/6B0X60rUO7+5f5h7/AGRp+dH/AM9Y/wDvoUedH/z1j/76FZn/AAjWi/8AQNi/X/Gj/hGtF/6B0X60Wod39y/zD3+yNPzo/wDnrH/30KPOj/56x/8AfQrN/wCEZ0X/AKB0X6/40f8ACM6L/wBA6L9f8aLUO7+5f5h7/ZGl50f/AD1j/wC+hR50f/PWP/voVm/8Izov/QOi/X/Gj/hGdF/6B0X6/wCNFqHd/cv8w9/sjS86P/nrH/30KPOj/wCesf8A30Kzf+EZ0X/oHRfr/jSf8I1ov/QNi/X/ABotQ7v7l/mHv9kafnR/89o/++hR50f/AD1j/wC+hWb/AMIzov8A0Dov1/xo/wCEZ0X/AKB0X6/40Wod39y/zD3+yNLzo/8AnrH/AN9Cjzo/+e0f/fQrN/4RnRf+gdF+v+NJ/wAI1ov/AEDov1/xotQ7v7l/mHv9kannRf8APWP/AL6FHnRf89Y/++hWP4e8NaNceJtZhm06F44o4CinOFyDnFdT/wAIb4c/6BFt+R/xr6XDcM/WKUasalk1fb/gnmVs0VKo4OOxm+fD/wA9I/8AvoUefD/z0j/76FaX/CGeHP8AoEW35H/Gj/hDPDn/AECLb8j/AI1v/qi/+fn4f8Ey/tqP8v4mb50X/PSP/voVBezRf2fc/vI/9S/8Q/umtn/hDPDn/QJtvyP+NVtQ8H+HU026ZdJtwywuQcHrtNOPCbi7+0/AP7Zi9OX8TC8Pyxjw7pwMif8AHun8Q9K0fNi/56x/99iud0Pw5o8ug2Ej6fCztAhJIPJxV/8A4RnRf+gbD+Rr6xKyscxp+bF/z1j/AO+xR5sX/PWP/vsVmf8ACM6L/wBA2H8jR/wjOi/9A2H8jTA0/Ni/56x/99ijzYv+esf/AH2KzP8AhGdF/wCgbD+Ro/4RnRf+gbD+RoA0/Ni/56x/99ijzYv+esf/AH2KzP8AhGdF/wCgbD+Ro/4RnRf+gbD+RoA0/Ni/56x/99ijzYv+esf/AH2KzP8AhGdF/wCgbD+Ro/4RnRf+gbD+RoA0/Ni/56x/99ijzYv+esf/AH2KzP8AhGdF/wCgbD+Ro/4RnRf+gbD+RoA0/Ni/56x/99ijzYv+esf/AH2KzR4Y0TcP+JbB19DWT4f8P6TPZXDS2MTst3KoLZ4APAoA6gyQkYMkZHuwpA8IORJFk99wrN/4RnRf+gbD+Ro/4RnRf+gbD+RoA0t0H9+L/voUvmQ4x5keP94Vmf8ACM6L/wBA2H8jR/wjOi/9A2H8jQBpboP70P5ijfDjHmRY/wB4Vm/8Izov/QNg/I0f8Izov/QNg/I0AafmQ5B8yPI/2hR5sX/PWP8A77FZn/CM6L/0DYPyNH/CM6L/ANA2H8jQBp+bF/z1j/77FHmxf89Y/wDvsVmf8Izov/QNh/I0f8Izov8A0DYfyNAGn5sX/PWP/vsUebF/z1j/AO+xWZ/wjOi/9A2H8jR/wjOi/wDQNh/I0Aafmxf89Y/++hR5sX/PWP8A77FcxYeH9Jk17VonsYjHH5OxTnC5DZxWp/wjOi/9A2H8jQBp+bF/z1j/AO+xQZYsH97H0/visz/hGdF/6BsP5Gg+GdFwf+JbD09DQB2HgHnwXYfWX/0a9dLXMfD5Fj8EaeiDCr5oA9B5r109ABRRRQAUUUUAFFFFABRRRQAUUUUAFFFFABRRRQAVz/jv/knviX/sFXX/AKKaugrn/Hf/ACT3xL/2Crr/ANFNQAeBP+Se+Gv+wVa/+ilrdkGY2A6kGsLwJ/yT3w1/2CrX/wBFLW7ICY2A6kGgDJ8K2stj4T0i1nKmaG0iRyrZBIUA896g8R6W+p3mgj7OJoLfUPOmz0VRDIAT/wACK1P4VtZrHwnpFrcEGaG0iRyGyMhQDz3qxqus6fo0UUuoXAhSWTyoyQTufBOBjvgGgDi59K1aDToLWKwPlte3pZo40d40aUmPaG4CkHn0wKj07SdVtovDZXTrkahbW0NtctKqtDsRjuyTyG6kEeorr7TxNo9/cQwQXivLMCVGCOR1X2bg8deKWDxLpVzLPFFckvDG0rAowyo6kccj6UAc3B4duoWtZ1sxHP8A25dXE0uAT5LCbax9R8ycVzslpMv2FoZWInub+Q3O0RkYkULjjgHJPvivU7fULS7mMcEyyMI1kO3kbW6fyqtqmq6bpCwi9Kr5hIjRYy5OOuAB7igDijaXt9pvh2KCPbePpFztJ42ufJ79jViz0q80/U9Kt7kqbhriWRFL+YUTy8cn0zXTza9Y2jXTTjCWsqwkxoXYFkD8gDI4P8qaviTRW06LVRODDIzIj+UdxwcEAYzxigDiP7JvpLC6llEUsIuboTzzZBUxyHyztHGOBj6Cl1nRtRuvh5YrdX7QqzxvMUQljlhyc84HXFdpqfiLT9OS1LtC9tcgszbgNq4JDY7gkGpNJ17T9XsLZ/OtxLLH5hg3glRjnj2oA5GwQx3WmzSK37+9edVKHPlLGVDEds4/Wufs9OuI7mO5vbGSESXG2K4SE4aP5juKjnJbPXoDXdP450eK4mlkmg+yxOsKTBgWJP3iB12g4Famo67HpxeWSNXtUtzN5quM7uy4685GKAOEl0QzeGrK/to2jnhv/wDR4GVliDGT75Xr0q5orf2N/abX0M9zrFxeTJ8sbBArMTlewHeupsPFel31m8zlk8lC8waJsRkdQTjqKof8J5YtHEVidpGnKSQhDvSPbu3EY9Cv50AchoOjLq+p28n2ho3s9PjdGMJVAwkfIYY+bjP50zU7OS6sYDHbq6D7XLkgquAeCPzrs9c8Y2ul2mnz2kKzpeKxXC8hQAenpzSeH/FkGrJe/a7MW0VsBtLJjeCMnAoA5HwbawW2uQSkTGFomeO6miOPPZRuXPoNoxVmz8KXWp3upXi3BmgBLRXEwKGaRiC5P+yMcV0y+NtI/tptPBHkLbiUMIW4JYjGMegq3P4u0y0v47SQMIZbUXCOqE5BYrjaBntQBykOlPfWdjPFZi48q7kfPlFtw3cc5HGeai0K6abxBbSiJvtFw7rLGVkAG0cAk8EV6Cur6bGpVLiMKlubkhRwIufm/Q0z+2tMW6trVZA0twA8apGTweQTgcfjQB5/YeFNQBvZ7R4pLmPUZZHMmFVCOwGOQe9dh4K3HSZ2dVUtcyH5Pu9e3tVrR/EFnqdnDJhYpZ1aQxdSADgk1XuPGGh2GnXF0JWMNsyq4jiOeTgEDHI96AOkoriNY+ItjpGu2mmyQv8A6RyJDkALtBz/ADq/Y+M9PvdNuLoNtlgiMjRnI4wSoyeOaAOoory2x+McV5e21u2iXEQmkCGRnGEz3NenRyJNGskbBkYZBByDQBJRRRQAUUUUAFFFFABRRRQBkeJ47eXw3fJdSmKBo8O4GSoyK0bYAWsIU5UIuD6jFZ3ieO3l8N30d1KYoGjw7gZKjIrRtgBawhTlQi4PqMUATUUUUAFFFFABRRRQAUUUUAIRkc1z93oVxazPeaFMttOxy8D8wyH3HY+4roaKAOYTxVNZOIdb0y4s5O0samWJvoR0/GuM+KHxIl0HTNPvfD99E8vn7ZYnX7y47g16yQCMEAj3rz/4neA5vGmj2ljYC3gkW5V5JWUDCYOenWgDnPDHx40fWYvsmsW72N26lQyjcjHH5itLwuQ3hjT2HQxkj/vo1oeFfhR4e8I2bTLALu/EZzcTDODjsO1UPDP/ACLVh/uH/wBCNfLcU/wIev6HfgPjfoatFFFfDHrBRRRQAtFFFAEVzcJaWk1xJnZCjSNjrgDJrLt/EtncRSyNHNCqQLcL5q43oxwCPx4rRvrc3mnXNsG2mWJ4wx7ZBGaw9R0JjbSSFnl26fHaiONfmLI4YEfiOld2GjQlG1Te5lNzT90uw+IbaQXHmW88BtpI0mWRcFN4yCfar9neRXtuZocmPcVViOGx3HtXPWOmajqEWpy358k38kQkUrg7FXDADtmtKKC+0rTobWzgjuhGxVQ0nl7Y/wCEe57VValRXuweunXTbXX1FCUt3sV5vEiWmr6haXMEhhtjD+9jXIQOOrfjgVbl1qGHVI7KSCdfMlEKTFfkLnoPWq15oMl5Hq2ZVjbUBAcYz5Zjxn65xVa78M3Nzrf9oi5iJS7W5iLqSygfwdcbetaRjhJbu2n42X63JvURJd+J1Gi3+oWlvI0dqPlkkHyP84UgY59a1LDU4tRkuI0ilikt2AdJVwcMMqfoRWPN4YnnXUt88EX2xVUJChCjDhtxH97AxWk1pdWmoajqFtGk8l2YQsTNs2hFIPNTUjhnFxhv0/DT8xp1L3ew86qR4hGk/Zpebfz/ADuNuM4xWj3rMis55NWg1OXZFJ9mME0IO7Hzbhg/WtPqa5KygrKPbX1NI31uFFFFYFhRRRQAUUUUAReGP+Rs17/rlbf+gtXYCuP8Mf8AI2a9/wBcrb/0Fq7AV+sZR/uNP0R8fj/94kFFFFekcYVV1L/kF3n/AFwf/wBBNWqq6l/yCrz/AK4P/wCgmga3OJ8P/wDIu6d/17p/KtGs7w//AMi7p3/Xun8q0a5z1gooooAKKKKACiiigAooooAKKKKAFX7w+tYvhr/jwuv+vyb/ANCraX7w+tYvhr/jwuv+vyb/ANCoA2aKKKACiiigAooooAKKKKACiiigAooooAx9O/5GTWvpB/6C1bFY+nf8jJrX0g/9BatigApD0P0paQ9D9KANvwD/AMiXYfWX/wBGvXS1zXgH/kS7D6y/+jXrpaACiiigAooooAKKKKACiiigAooooAKKKKACiiigArn/AB3/AMk98S/9gq6/9FNXQVz/AI7/AOSe+Jf+wVdf+imoAPAn/JPfDX/YKtf/AEUtbsgzGwHUg1heBP8Aknvhr/sFWv8A6KWt2QZjYDqQaAMnwtazWPhPSLW4IM0NpEjkNkZCgHnvSa5pT6le6LIqxmOzvvtEof08qRRj33MtL4VtZrLwnpFrcEGaG0iRyGyNwUA896j8Q64+hvpZWBplu7v7OyoMtjy3YbR65UD8aAMy08NXUBsG2whodaub6Qg9Y384L+P7xaz9N8P+IrXXLfU7lY55YreeBw1x8jFtpVlXGFGUAx710sHiSzm+zK8c0U09z9l8qRMNHJsMmG9PlXP4io5PFFmIlaCC5uJXnmgWGJMuxiYq5x6A9/cUAU9D0u68K2N7uia9Vysw8kZkLHAZQPQdvama7a6hr1hZXNhp8ttfIz+XLNKI3tjwMkDO4HHT2FXIPE0b61f6bMn72G5SGGOMZdgYkcsR2ALHn2p7+KbMahJZpFPI6l0V1UbZJFBJjU5+9wfyoAzrzS9cthrL2CRSy39zE3+t2HyxCiOQexyp/OodS8O3moWOlypaNaz2SyJ9kgu9mVbAzvA/2f1rofDusjX9CtNUW2lthcJvEcvUCmDX4G1x9Kit55JYsedIqjZFldwyc+mPzoAwJtNkubCy8N2+m+TEkCJdTyESCOPuisfvE9M02304abrxPkS3NtpltJtZYvmbzGGEH94gKPzq+3jBLfRrPUZLC8uYbiFZDLbxfKCTgDBOc+1XrnxPY2uoR2kiy5JRZHC/LEz/AHQ3oTkfnQBy39kCzlstVvtJCxTXMrywJEHMSMoCKQPYc+9TTaPP4h1PT7xbAW1q8TLMzEhlCsNhA9ePwq9rPjI6XqEluIwymSOKJvLb7275weOeASMVY1XxlZW+l3UtixmuYiE2FCNpOOTntg5oAxItBuLfQ/EbC4vpHMs4jids+Z6HHc1X0nQt9xq2rXUN/Bcw+V5Uki/vGUQqCuO4J/lWtpHi281LUIbX9yrOzKd8TLkrjcBz15q9rPid7e8S00tY7iWNx9oJPyqP7gP989h7UActq3h3WLvRdOlhgkh+yWEnmFXAdiR93GOelWPCyalZX093qVpfm0MG62Rhu475HZucAV0Oo+L7eCys7qzUz+ZeLbTRbTvQlWOMeuQKuReJrN0iEkU8M0lwtsYZEw6OylhkemBQBhx6dqf22XxOLQC6fCCxOMmAdB/vd/xqxPDq0+vWuu6bYwvA1iIHguG8t1beT+HWtKXxRZxo/lRXE8y3ElusMSZd2Q4bA9BUUfidF1u80+eMh42iWGNRmRtyBjke2aAMWfwtq9rZBLHyJpZdNeyfzHwEJLHPv97Faml6VqWk6mjpDFPDcQxJO3mYMRRAvA7g4q5L4osYtSay8uZ2DGPzFX5TIBnZn+9VFPG1s3hNdcltJ7fzCVjhkXJLA4HTt70AUtE8I3mkafJAroTeRPFdDdkoTkBlP49KqW3gy8j0++tTE/nmBIoriW7MgcK4bG3Hy9P1rV0Xxnb398NPlbfKIt7TojBNw5ZeRwRVe48avaGEGOO6AZnme1O7bFnCn2JPagDnPFOmahceJIZnsZbmwTaLlFgDFSRghT36AVp6PYXFho+rWl9pcweaPNuAA2EwQg/3hXcWt/8AarD7SYZIMglVlwDWHoHiS+1C0tzNplwzOxDTLjbjPXr0oA8isfDOuQ6iry6PP5KNGdwByQOte/2ez7HF5cflrtGEIxiuDuvH9zFqRtgbZAbl4MNDIxUL3yOD+FXl8bSHQoLsWrS3EzPgRIcBU+82Dz0oA7aiuN03xxHf3+Y7d30+V0ihuFH8ZGSDWVqXjXWF1S9gsLUzRRSNHEVA+YgdOaAPR6K5y28Rumk2s1zZ3Mly6ZlWGPOxu+ap+GfF76xZQSTWN2XlkZPMWL5BgkDJoA6+iuL1LxZqVregRaZ+4iy04Z8tszgHjpU114qnOnWssduLea4kYIZDuQqo3E5HYigDrqK5Cz8Xvd31tFGtvLDLKI2aNjlcjIODXX0AZHiaO3l8OX0d1KYoGjw8gGdoyK0bYAWsIU5UIuD6jFZ3iaOCbw5fR3UxhgaPDyAZ2jIrRtgBawhTlQi4PqMUATUUUUAFFFFABRRRQAUUUUAFFFFABRRRQBDP/wAe8v8AuH+VeReH9dsbfQLOGT7RvRSDtt3I+8e4FeuXB/0aX/cP8q5fwZn/AIQ7TP8Arkf/AEI1w47LaeOgoVG0k76DWKlh/eir3Oc/4SPT/wDp5/8AAZ/8KP8AhI9P/wCnn/wGf/CvQqK8v/VPC/zv8P8AIf8AbNX+VHnv/CR6f/08/wDgM/8AhR/wken/APTz/wCAz/4V6FScZxR/qnhf53+H+Qf2zV/lR59/wken/wDTz/4DP/hR/wAJHp//AE8/+Az/AOFehUnGKP8AVPC/zv8AD/IP7Zq/yo8+/wCEj0//AKef/AZ/8KP+Ej0//p5/8Bn/AMK9B4paP9U8L/O/w/yD+2av8qPPf+Ej0/8A6ef/AAGf/Cj/AISPT/8Ap5/8Bn/wr0HjOO9FH+qeF/nf4f5B/bNX+VHn3/CR6f8A9PP/AIDP/hR/wken/wDTz/4DP/hXoNHHtR/qnhf53+H+Qf2zV/lR59/wken/APTz/wCAz/4U1PFGlvI8ayzl0xvUW75XPTPFeid653SP+Rz8S/S0/wDRZpf6qYX+d/h/kNZxVafuo5//AISPT/8Ap5/8Bn/wo/4SPT/+nn/wGf8Awr0Kin/qnhf53+H+Qv7Zq/yo89/4SPT/APp5/wDAZ/8ACj/hI9P/AOnn/wABn/wr0LFFH+qeF/nf4f5B/bNX+VHnv/CR6f8A9PP/AIDP/hR/wken/wDTz/4DP/hXoPA44paP9U8L/PL8P8g/tmr/ACo89/4SPT/+nn/wGf8Awo/4SPT/APp5/wDAZ/8ACvQqKP8AVPC/zv8AD/IP7Zq/yo4jwbdxXvibXZod+zy7cfOhU/dbsav3fiaW0guYXhQ6hFOY1jzwyY3b/ptBqbTf+R517/rhbf8AoLVoy6LYzasupyQhrpYjDuJ42n2r6HDUFQpRpRekVY86tU9pUc5Lc5W58VX40m4e5iiBmsRe23ksQQm4DDH157VJr+t6rNo2ry6c0UMNiBE7EnzC/wApJU9OhraTwlpSW9zAUlZLhPLIaQnYmc7V9BntRf8AhTS9RaUzecEmAEkccpVHIxgkDqeBW9mRzQ7FjVLW+vdJjjsbpoJmAyw6kY9ac0VxD4cmS7m82cWz73wBk7T6VpKoRQo6AYFVtS/5BV5/1wf/ANBNMlPWxxPh/wD5F3Tv+vdP5Vo1zyXU1j4AS6tyFmislZCRkA4FVm1TUrN7u2muVlkH2fZKEA8vzcg8egxWB6h1VFcp/bF/aWWozSXKXTWV55QAUAyrtHAx35roNLlluNNhnmdXeRd5KjgZ7fhQBborj2ur+01XU7mK5AtxqUcJhK53bgoPPapP7cuv+Eigt4rhpreaaSHBjAjUqCcBupORQB1nSiuIur7UJtKuIbm6db+O6gzGUAWPL8EEdQa6LRri6lm1C2uphM9rP5YkC7cggHoPrQBq0VzOu6tqVvqwtLCGZtkSy/u0DByT90k9B9KpNNe/8JDiO8kgV9SVJIwAQR5Wcc0AdnRWb4haePw/fSW0zQSpEWWRRkinxwSXWiRRPcOZXhXMwOCTjrxQBoL94fWsXw1/x4XX/X5N/wChVc0mwbTrUQNO8x3ZBY5wPQVR8PErpd6w6i6nI/OgDborj7PWtUigtrm6nScXFpLMI1TG0p0qeDUdQWe7jfUI5AlmlypKAbST904/KgDqaKytAv59Usmu5gF3thYscoB61lazLfQ6/eTWl15Ig08SsCu7dhulAHVUVx2qeIbq3khlguGOBCZYViBRd+PvMeR17VNfX16txqltdzugMEjW8aqNjKB13dcigDq6K53QLi+W6isru4E6mxjnUhcbc4GPepfEepXlk1pBZpLvnLZeJAxXAz0PHNAG7RXCard6mwafzpLK7+wIzhcEg+aB06ciu3ZX+zMokO/ZjzMd8daAJKKxvDTXE/hyFrq6eeZy4MhwD94jt9Km0rSn055me5km8w5AZiQPX+lAEWnf8jJrX0g/9BatisfTv+Rk1r6Qf+gtWxQAUh6H6UuR6ikPQ/SgDb8A/wDIl2H1l/8ARr10tc14B/5Euw+sv/o166WgAooooAKKKKACiiigAooooAKKKKACiiigAooooAK57x3/AMk88Tf9gq6/9FNXQ1z/AI7/AOSe+Jf+wVdf+imoATwJ/wAk88M/9gq1/wDRS1vSAmNgOpBrC8Cf8k98Nf8AYKtf/RS1uyAmNgOpBoAyfCtrNZeE9ItbggzQ2kSPg5+YKAee9R+I9Iu9V/s2Sxu0tp7G7FyGdNwb5HXb+O+pPCtrNZeE9ItbnHnw2kSSYbPzBQDz3pniHVb3Tm0yGwhilnvrv7P+9JAUeW77uP8AcoAoP4avXUXhuoBqn24XpIQ+VuEPk4x1xt/WorXwvqWnwW01vfW8mpQz3TmSWM7HWeTewwO4wv5VHL4qvV0OK5Js4LkTzwS+ZuZWaJyh2qOSDjPtVOTxtqk9qt5ZWNv9lj0aLVZzIxyA2/KD3wnBoA2D4WZNav8AWIbhY7+eZZI3C8BRGiFG9QSmahtPCCWXiP8AtGKGzeN55LhpJFYyq75zt5x1Y/gahm8YXmnQai+oWsSPDbwXEQjJOBM5RQ3qQRzin2ms6nr/AIfvRbRYu45vKE0ZMSkbQwdd4zxkAj60AXLO21Xw9odjp1naxagYAY9xlEWEH3evU460s+hXVz4pt9V328EUI58sHzZPlxtY9CMnP4CsDSPF2oJHfXVxarOrXUaBROMhWKxhlGOQSCeKz9Q8U3tv4t1e2sb0/JaiUkx5TepxgZ4PHBx6UAb0fhrWbO00e1tLyxkh0+AKUuI2w0g/j49ulTX/AIRW51/+1VhspnleJ5hcKxwUAAKYOOw696ydW13WItEvIxfQCWO+jgE0q7fl2q56ewao7TxXq015BcyWaLMBFC9uZMLg8sy/7XIwD2FAG9JpF34gvJbjVojBaRKyWtujfPuP/LQn19PSqDeFZ9Z0fUPtSCK6ubpXjM+SQiFQN2PVUH51k6x4vna51aWR5rNImtUs4ScPMDKNzBfU8j6V0OtaxqMWkWSsIbKe+mMRZyT5SYJGcd8CgDDh8GX9r4isisNpJAkkk7y4fC7iML156cV1OraKq21jFp1qihL5JpAgxxzkn865HSvF+r30sOpHZAjJBELeQHEqlsNIp+pI/Cse+8Ua/Yaxd3CXk8qF5Y44VCnkYHT0HWgD0nxDoc2qQW32CeO0uYLtLnzDHncVDDB+uapS+Gb64V7ua6gGom6juQVQ+XlEKAY69DWK/iHUYfBElzPcbblZTDbPACTLg43Nnt3NQW3ivUp7WGJXdQXX98XDGT95tJBH8JoA3LfwtqVpGl1FfW76kl1POryRnYRKckEDnsKsv4Vdtau9ZW4SO/kMbROq/d2oFKn1BxWJ4z8SX2l6laN5xs7GFwGIZTJcORxtU9VFJqXiLV7DwFcarLfQTXAcf6grlFJGF46tigDVi8HrB4h/tNYrKTzJzcSNKreYrkc7ecfnTX0TUrXRYdAt1jlgdyHuiceXHuzjHdiOK57SvFmqteWoDRR/bWWKOK8ckoFxkkjuetauueIr+O01GeBZWUXS2KCPpFhgHcn8eKALkFvqelahdW1tppljnuFZJzgoqYwc+9Z9z4IlfRtTE8aTTySlraOH5dqlgcE9+9MuJNQh1FbSLVrpr1r5VSEngQdckemP503W/Et2mtzWsGqx+Vp8ZuZ9kZOSAcJkfrQBp6l4bkj/ALISxsvtFvCXaeF5yoJKgDn86Ww0e6tNftrqHSI7K2iicOsU+7eT0GKo6r4lvV8ILqMVyJDO8fKrsMYJGevXqKzP7a1qXxTbzLdSfZN6I6ooK5x0oA1I/CE8n2G7nikExuZJ50WTG0HoBVO58M6p/ZVnDHYtIyrc5TztpXeDtye9WNd1i58uWe0uL0RxXZFxExCMgA5wfTNJa6xqNv4N1K6M1x5onDQlzvZY2IwB68UAXIfDT2kOipa2RjmTy2uSGwi7R3HrWHqvgjV/7Ra6gSKea7nkZirsqw5AwTn+lbMGr3Sa3pUKTajsncrILmIKpGM8Gqvi7U9Wt5FhhvZ/+PtAojgGOvTOeaANDTrDW7Dw3Do8FoI7iQsk1y0u5VB6sP6Crtjpd54bnht9PiFxpspAkQthom7sPUH0rPuPEGo2eitdm73sbqOAmSHHlg9Tgdax7DxNd22o35j1SO5L36oIjE3Knrj0oA19T0m6OpiTT7K/ijklP2ry58CRcdqsX2iS38ekW0NpJb28LSpJvIJVWTGfzrA8R+KdRTVtT8lri0jtUEKcDD7lJ3HPTnpTdN8R6rN4Hu55LmZpoIogrnC5z1w2KANWx8HS6JqFktsDMpnWSR1GFQKuPzNd7XjsHiHVBeyjzbgBLqJFzehwoPUYxzXo2lX0x1jUNMncyGDbKjn+6/b8KAJfE0cE3hy+juZjDA0eHkAztGRWjbAC1hCnKhFwfUYrO8TRwTeHL6O5mMMLR4eQDO0ZFaNsALWEKcqEXB9RigCaiiigAooooAKKKKACiiigAooooAKKKKAIbj/j2l/3D/KuV8HsV8E6cw6iAn9TXVXH/HtL/uH+Vct4MAPgzTAeQYSD/wB9Grhuc2J+FHO6f4l1iG0sb28njuReWVxcCJYwu0x8jB75q1a6vqv2u8hk1KKQLpsd6jGMDYzMcqcdscV1B0izWGJIII4mhjaOBgufLDdcCszSPCNnponM7C6eZQjFkCjaDuAwPerszm5o9ifwzqlxrVhJfzgRiSTCQY5jA4wfc9awfENxqNv4o1CexvPIFto/nspXduKuSBg9M4611N3o9vcxSojzWplcO72z7GYgY601dN0+PEMwEs0sBty0zZeWMckH160WEpJO5yOteLL21aC4trhmKrbNNAkIKL5mPvseR14xU2qanqCXOu2l9cvEDaXDWkSINkiKn3t3XcO4rpbjw5o91Jvn0+F28sR8j+EdB+FOXQdLSaeYWcfmToUkY5O5SMEc+1FmPnj2MPwve6it9Bpt7crcK+lQ3SkJjYSduPcd+ateK9XvtPksLSxSffds4MkMYdk2rnoeOa0206wuo5PIPluIha+bA2HRVOdoPbFA0OzbTRY3Xm3cQYtuuHLN+dGom1e5wGu6lrLB7ozy6df/ANkQu4XB2k3IU8dOQa9MKObcoJTv248zHfHXH61UGh6Z5Rj+xxlDB9nIPOY852/TPNNOkRnUYrtbq7TygAsKykR4AxytCTCUk7Gd4KkurzwbaSX15JczyiTdKwAb77DHHpimQeFporK9gbUrhjckEHzD8v8Ae/Ot61tLeyjaO2iWJGcuVXpuPJNWKdiXLXQoaRYPpunRWrzvOyZ+dzk+36VmaR/yOnib6Wn/AKLNdF3rndI/5HTxN9LT/wBFmhji7pmTrmt6xa6lrstvdRpa6WLV1hMYJk8z7wJ9Oadd67qX9qJJFdJFANYTTmtigJZO7A9cn+ldVNpVjcfafOto3+1BRPkf6zb93P0rKk8Kw3HiEarcXG/bIsqRCMDay/dOepxSsylKPYg0rWb288SXGlySoY7PeWlA/wBfk8Af7vetDxFf3GnRae1uwXzr+GCQkZ+Ric1cXS7KMJ5cCxtGH2MvBXd97BqnbaLYrBcWM0816rkF0uZd5X0x6U9RXV7nLzeI7uXU2ZZInWC8voomAzhY4Qy/rVHUNb8QLoTb9UCz3GlR3yyRRAGJt6qQPY5rvItB0qFAkdjCqhnYADu42sfxHFSNpGnsgVrSIqIPswBHSP8Au/SlZlc8exZhRzaIhlLSbADJjqcdcVg+CJry48NRy31491M00oLuACAHIA4+laLaNEb2C5S6u4hCFVYUlIjIHTK96t2tnb2autvEsau5kYL0LHqaZF1axi6b/wAjzr3/AFwtv/QWpda1uXQ7/wAy4INnNA3lcciYdF/Gm6b/AMjzr3/XC2/9Batq6s7a+REuoUlWNxIocZww6GkhyaT1OFk8SaraalZJJdtMxuore5iWACOMv2LddwzRoWt3VpbrC06iAWl5cbpOfnWUgcn+VddceHtKurp7mexieZyCzEdSOh+vvSy6BpM0CQSWMLRRliq44G7r+eaLMfPG1rHHt4p124+xLaQTSyi0huH8qJSsxfqCSflH0ruL8k6PdFhgm3fI9PlNQT6FpdxDBFLZxlLcBYgMjaB0HFWNRAGlXYHQQP8A+gmnYTabVjhdGhjufC9jDMgeN7ZAynoRipr/AEuK8t50TbFJMqo0mwMSo6DBpvh//kXdO/690/lWjWB6Zmabodrp1uI8CV/MMpdhjLYxnH0qSfSYJkjRJZ7dIySFgkKA5Oeav0UAVjYWrBw0CHfIJWyPvOOjH34qA6JpjXBnNnH5pbeW/wBr1rQooAoxaPp0EbRx2kYVnDsOuWByDS3OmQXCyBXlgaR/Md4H2Mxxjk1dooApTaTZ3MMUdzF5/lDCs5O78TTzp1mxJNuhJcSE46sOAatUUAUU0uJLiaZp7iUSghopJNyYPoKtxRJBEkUShY0GFUdhT6KAFX7w+tYnhsA6fdg9DeTA/wDfVba/eH1rF8Nf8eF1/wBfk3/oVAF5tOthEqRRJGY42jiYLnYD1xVDTPDdtYCXzG+0PKAGLIFGAcgYHvW1RQBSuNMgnidFaW33sGZoH2Eke9PTTrYIVdPNZovKZ5DlmX0J71aooAz5tE0y4kDy2cTMFCZI7DoKcmj6fHJLItqm+Vdrk5OR6VeooAqS6dbyIwUNExjEQkiO1go6AGmDSbZrIWk/mXMYOczOWb86vUUAUxpdiI/L+zIV8vysHn5M5x+dNOmR/bEuRPcrsAAiWUiPA9qvUUARQW0NshSCNY1LFiF9T1qWiigDH07/AJGTWvpB/Jq1WiR5EkZcsmdp9M8Vlad/yMmtfSD/ANBatigCFLWFPL2xgeWSU56Z6/zqU9D9KWkPQ/SgDb8A/wDIl2H1l/8ARr10tc14B/5Euw+sv/o166WgAooooAKKKKACiiigAooooAKKKKACiiigAooooAK5/wAd/wDJPfEv/YKuv/RTV0Fc/wCO/wDknviX/sFXX/opqADwJ/yT3w1/2CrX/wBFLW7ICY2A6kGsLwJ/yT3w1/2CrX/0UtbsgJjYDqQaAMnwrbTWXhPSLW5/18VpEknOfmCgHnvV27sLe9ms5pQS9pN50WDjDbWTn8GNUvCttPZeE9Itrn/XxWkSSfNn5goB571W8U6je2T6PBZXMVu17ffZ3kkXIC+VI3HvlRQBJN4T02XytpnieKaaZXjkIbMrbpBn0J7Uy38IaVbWVxZosphns/sLBpCcQguQo9Mb2/Sst9b1NFbTBdIbkamtj9uMYxgw+bu29M/w/WmJr2qX0FjaRXUVtO7XYkuigKt5DhOAePmzn6CgDo5dCsJpp5ZYyzTW8du+W/gRmZfxBYnNUbjw9M9n9gg1W7EEjlrgySb5GTGNqn+EHFZOl315rmpTTpsSS70O0k8qUnYpZ5d3T2/pWNYaxq2mS6lcLPb3CW9qY7Z5N5WcQ5ztPrubHvQB2d94ehmuNOWEQwW1qysyhfmcLnav0BOar33hZL7WWuzcIlq4j8yFUGW2HIGewJ61xfjK8vm1G+cCPctrbNzv/dsW524/rWpoAu7kaxa/Y1nXzIf3McrRhQUySC3PWgDYufByanb3NvqF0Hhurrz5o41A3AABVB6jpSL4KMUpA1N/INxHNseNSxKAYG7r2rF03Trr/hItTQaRM4t2iMcZvuEO0H8c9av63qutJrdhIdIc2UU3lxp9oCtLMQefdQN1AGnqvhS01O7vL2eZEaZIRFLtBMRjYMCCfUgVBceGLm9vIbs635k0cobcY1IACkYC9O9ctqepaqPh/rMUtr5MUFwbaBhJvcESbCp9cdjWL4Qt72S21Hw+8Sy3cblo7mSUr5a7UOc5560Aekp4YMehaXpP2qMm0ZDJIUG5wpyAPTkVnS+BJDdLPa36QuZZmkkCZYiQ8gfhXI6/cajB4slktrqaWaGZIo4EmYb2KEgfTmtvQL7U28K6lJO895twkMMS4czFcsC3sxI/CgDo7fwrNaaN/Y0OoEWQYqGZAZFjI5XPvzzU974YtJbextLJYbdLYoCcZby1OQB+NcDY63qZ0R0WZjAyyIZ8tukZVUnr0wSR+FbL6ne2utXkkt4iQpbR/MFYN0GFBPHuT6mgDb1Hwha3l/a6lZSQRywmQyPKglD7gPXjjFNTwdHJpt5bzXEMktzIJkZIwqoeOQo+lczb3l7aeCNXhF9J58EDYwQ5JYHAAI9D1qpb6vqVsInutSltrlLBREpRev3trD19/SgDtl8I2yXUDXEiPbRIRhvvPISCWJ+oFTal4cae21CK3uVhiuykpDDIV1YEn8cVg+IXa5e3jvb+6t7aeNHdwCsa4A6EdTnFNhudSi8MandPfTSqpjhQtkqwLqCVzzyDigDXXwpMNRj1dNUc6oMKZSoKGP8AuBfT3p2o+EWuL6aWyvVsI7i3MMqxwhi+c5PP1rizq8rTXNjFDNAkCuIpVkb+BgPx61f1vXdYh1lWspWlnikit4YCg2NvQkkt65oA6pPC7z+HpdIu9Ta5hZVSOQRKrRhSOmPpWcngSJL8yRX2Al0lx5e3JGOxPvWRaanqWl6PeQrezAxWyPiZMNE5kAb6jk1BJfXdnqurXlvfXckEiRrFdAAo0igBlP8AjQB0N/4I+3axdzT3a/2fdOHliI+Y/wCyD2Bq1/wiKR6Rd6at3stpWUxMBhowDnGe9c54jul1TWoNOj1K+tiIlluHDsIsjooAHXPXFL4duLnVNN1GRtQaVQCI0lkdlaNT8xOQMHigDqT4bhTULC5OpXTtbuWVJpdwbjHAqC78Kyi6W6s7lGlJdpBcruVixzn8K4rUvEGsyaxayQeXb29qx+zq3zsQUH869ZtpDLaxSMQWZATj1xQBm6VocVhG7zETXE2GmYj5WYdwO1Lp2jJZXd/O4icXM/mqNn3eK16KAOU1rwedZv7x5Lwx2t2sayxqvzYT0PanDw1fPYpp9zfxyWkcqMMRBWKL/CfWupooA5i68JJNLO0cqRrPcpM2IxkBewrV0/TPsdxdXMsnmXFw2WbHRR0UVpUUAZHiaKCbw5fR3M3kwtHh5MZ2jIrRtgotoQpyoRQD6jFZ3iaKCbw5fR3M3kwtHh5MZ2jIrRtgFtoQpyoRQD6jFAE1FFFABRRRQAUUUUAFFFFABRRRQAUUUUAQ3H/HtL/uH+Vcv4L/AORO0z/rkf8A0I11Fx/x7S/7h/lXL+C/+RN0z/rkf/QjVw3ObE/CjeooorU4QrjPFhgHirw8txeyWcTrcKZkbafujjPb612dRT2sFyAJ4I5QOAHUH+dJ6lRdnc4mz1q6gvtNNzduLBZbyLzXPEqqB5ZJ7nrj1qLQ9Tn1OPRRqOpTQQSWnnpKJNhnl8wjaT3+XHFdy1pbtEsTW8RjTBVCgwMegoeytZEjR7aFljOUBQEKfb0pWL512OH8P3dzDrl8lw7QaedUuTG6dJJcj5XPYenrWdFd65qVrqf2iZ4TJaXPmxLdAyKyg7NiDlenP1r0z7PFtK+Um1m3EbRyfX60wWdsLg3At4hMRgybBuI+tFg51e9jhLi6lsrHw5M2ozy2X2WJXiiuMTM5I+f1cdiK9CNV/sNpvjf7LDui4jOwZT6elWKaREpXCiiimSFc7pH/ACOnib6Wn/os10Vc7pH/ACOnib6Wn/os0mXHZnRUUUUyDl/Gk1xbafbzxXZhhjctPGkwiklXHRG9R1x3rKl1OAS63JdXl1BarDZtEVfZJuZDgFvUnrXbz2tvdBRcQRyhTld6hsH1GaSWztp1ZZbeKRXxuDIDnHTP0pNGkZJKxwt1PqNj4f06K31CS9S4uH+03C3QBiG3IUSdBg8V1nh6S7l0G0e+kjkuCvzPG4dTzxyOvGKurYWiWxt1tYRATkxiMbT+FSRQxwRLFDGsca8BVGAPwoSFKV0SUUUUyDntN/5HnXv+uFt/6C1dDXPab/yPOvf9cLb/ANBauhpIue4UUUUyAqrqX/IKvP8Arg//AKCatVV1L/kFXn/XB/8A0E0FLc4nw/8A8i7p3/Xun8q0azvD/wDyLunf9e6fyrRxXOeqFFGKMUAFFFGKACijFGKACijFGKACijFFACr94fWsXw1/x4XX/X5N/wChVtKPmH1rF8ND/QLr/r8m/wDQqANmijFGKACijFFABRRRigAooxRQAUUYoxQAUUYoxQBj6d/yMmtfSD/0Fq2Kx9OH/FSa19IP/QWrYoAKQ9D9KXFBHB+lAG14B/5Euw+sv/o166Wua8A/8iXYfWX/ANGvXS0AFFFFABRRRQAUUUUAFFFFABRRRQAUUUUAFFFFABXP+O/+Se+Jf+wVdf8Aopq6Cuf8d/8AJPfEv/YKuv8A0U1AB4E/5J74a/7BVr/6KWt2QExsB1INYXgT/knvhr/sFWv/AKKWt2QExsB1INAGT4Vtp7PwnpFtc/6+K0iSTnPzBQDz3p2t6LaayLM3p/c2k5nKno3yOmD6ffz+FN8K209n4T0i2uv9fFaRJJzn5goB571B4mdmOlWpyLa5vljuD0+QKzAH2LKo/GgCWPS9El046bHFA1vvOYw3O5Tyc9cio5rHw9d6TawSJbGyT/UAttHHBwf51zlhe6bHdXjTs6Pp+o3M7SpwI1JI2n13ensK1fCdpYar4S0/7TAkrRBgySLzExPKkdjQBcv7PSL+MxxX0Vs8iJC7wSgM0akkJnsPmP50alp2mNp1ppf2iK1t1kVVjUjL7Tu2e2dvNc74V0hlurh2sbSexbUbpVbGJINsrY+o4/CsvxVbw2skjWenX7XM12Qhntd6eY7Elgc9OuAKAO5l0Swkg1DzrjcL6VXkcsBgLjao9gFFS6fBp9tqV1LHepLcXhVipkBIULgAD0xXCaqsNno2kWyJeW8kuqK0v2hCgkPkvkqOcDpxSW3nDxZbW0aqNQkuEnWQKMrCIgp4/u8Y+tAHeWlvaabqOoXE18rXF06u/mMF2ADCgfgKF0y2vdXGqG7M/lLtgjDApEcYJA9a4udHV9d1HXhDK1jqcUrKvTyvKUBR64D5+opJZDpfgm41G3tpmnvppLm3ihbCxKem49gFx+NAHVJ4bsrrRJ9Oe5edJbtriWRSATJv3Ee3NRHwLpXnXE0cl1DJcf6xopdpIKhSPpgCuf0G0mttei0v7Nc/Z1tI5y5uBkuztlz9cdKsWt5qSanDePqVw6Sa5NZCAkbBEPMwMevyDmgDYvfBNnds0kdzLBI0yy70xuBVdoANTWnhS3061uLWwvLm3hnwZFVsnP8AEwPYnvXPaZqlzcavppm1adWvLW5e7ty4xAy7MYHbGTWx4S1O91KW6a/mYNEFSKMjG9O0mP8AaoA0bvQrF9Ij0iFltoyMLtALFf4sZ9e5pmoeFtO1C2lhcSK7qFEoY5XGOnbtWf4ltXvvFGgQRXUttlLndJCcNjEfAPaua1HxFfHwxYyrd3f9ofYWuAI5VjViucEk/ePH3RQB2dr4WtrWO/U3VzO95F5bPO24qNu3I/OpJ9Ds7/RxaxvGdyKhuFRWZgOOtc/Dqdw3iLS5ri/kltruOPyoraYDa5TJ3p1IPJzVPwg13Ynw+Pt00kN7HPvhb7iBSCuB68mgDrdQ0A6hafYzfTR22xUMagdsf4Uy50NZNLmtLzUJGt32DLYG3awI/UCofFuo3Oj6fFqduzMkLlZI15DBhgZ/4Fj864waxrr6dd2d5cyGfTlQzOV4kLyrtz/wH+dAHc3eg6df200cAiikc7ZZY1Bbg5I9s4qu3hWyuNU+2rezkxzpIYlcbAyLtAI9awLW7kjnntmuntLW41S5864RtpXGCBntnJ/Kq2mXTKkluuqSxWNxqlyJr5X2txjb83bPP5UAdhqHhmDUpL57ieQ/a41ix2RQwOB+IqzfaNDdaOdMhb7NCcA+Wo6A5x+Ncb4t1ybT7zbY3l0ZLZYWP75VTaxGSQeX4PbpVmG81J7PXdWW/uJWtrl44IQfkVcgZx3wCTQB1D6XbtqUM6T7LiK3MaLwTg/xYptpo9pY6KujmZisisu4kBnzycfnXOaKYf8AhOkEOqSXw/s3LM7htpLnjIq/4tvZ7W70428u3MVyxIHcR5H60ASXfhWBJmngvntE2KhyoYDA2ggnoa3dPtEsLCK2R2dY1xuY5J9684mv9Us9NxLqM9y1zpkdyxlwQr+YBwO3FTQW2pNZatHaT3t1MNVUvF5vzCLHOPQUAeiw3UFw8qRSq7RNscA/dPpQ9zBFIY3lVXCFyCedo715hp9rqDalqH2LTr2KQagpZzPkKvfI71W8XNqI1HXLi98pkgWNU2nmONlP6k0Aesi5gNuJ/OTyiM79wxj61CmqWDsFS8t2YnAAkHNeZWen6jZeALkXEPlGVIVg/iLdO2cVnpbajFeXbSAhUvYQ3+jIuOncdPwoA9mV1cZVgw9QafXO6MzReIdWtI8m1URyL3Adh8wroqAMjxNFBP4bvo7mbyYWjw8mM7RkVo2wAtoQrZUIoB9eKzvE8UE/hy+iuJvJhaPDyYztGRWjbBVtYQDlQigH14oAmooooAKKKKACiiigAooooAKKKKACiiigBjKHRlPQjBrl4PA9rawrDb6pqsUK52xpc8KM5wOK6ukoE0nuc3/wh8f/AEGdY/8AAr/61H/CHx/9BnWP/Ar/AOtXSUU7sXJHsc3/AMIfH/0GdY/8Cv8A61H/AAh8f/QZ1j/wK/8ArV0lFF2HJHsc3/wh8f8A0GdY/wDAr/61Y9voDz+KryxGt6t9lt7dGI+0872J749K7yub8P8A73xD4iugcq1xHEP+AJg/qaLsOSPYP+EPj/6DOsf+BX/1qP8AhD4/+gzrH/gV/wDWrpKKLsOSPY5v/hD4/wDoM6x/4Ff/AFqT/hD4/wDoM6x/4Ff/AFq6Wii7Dkj2Ob/4Q+P/AKDOsf8AgV/9aj/hD4/+gzrH/gV/9aukoouw5I9jm/8AhD4/+gzrH/gV/wDWqvH4Fsobme5j1XVlmn2+a4uuW2jAzx2FdZRRdhyR7HN/8IfH/wBBnWP/AAK/+tR/wh8f/QZ1j/wK/wDrV0lFF2HJHsc1/wAIfH/0GdY/8Cv/AK1ZPibQjo3h281CDWNWaWFVKhrnjlgPT3ru6w/Ft2LDwvfXPkxzeWqny5BlT8wHNF2HJHsVV8IRlQf7Z1jkf8/X/wBal/4Q+P8A6DOsf+BX/wBaujQ5RT7U6i7Dkj2Ob/4Q+P8A6DOsf+BX/wBaj/hD4/8AoM6x/wCBX/1q6Sii7Dkj2OTTwLZx3Utymq6sJ5gokcXXLBenbtmrH/CHx/8AQZ1j/wACv/rV0lFF2HJHsc3/AMIfH/0GdY/8Cv8A61H/AAh8f/QZ1j/wK/8ArV0lFF2HJHsc3/wh8f8A0GdY/wDAr/61NfwZDJGyPrGrlWBBH2rqD+FdNRRdhyR7HHw/DvTbeFIYtQ1VI0AVVFyeB+Vea/Ei9tvA3iPRrddQ1OW1mBa7T7T823OAQcV73Xz38WvBPijxd40uLuxsD9htLcKJpG2qwAycetIo9J0nwtomt6ZBqFhrOqS28yhlZbr9OlXv+Ff2P/QT1b/wK/8ArVznwh8Gar4X0rzrjV1ubK7QSJbIpwhPcE16hQByX/Cv7H/oJ6t/4Ff/AFqP+Ff2P/QT1b/wK/8ArV1tFAHJf8K/sf8AoJ6t/wCBP/1qx9J8IQXWratazapqhW2mVYsXGMKVB9PWvRa5zSvk8Ya1H/eWN/0oAq/8K/sf+gnq3/gV/wDWo/4V/Y/9BPVv/Ar/AOtXW0UAcl/wr+x/6Cerf+BP/wBaj/hX9j/0E9W/8Cf/AK1dbRQByX/CAWP/AEE9W/8AAr/61QwfDjS7ZGSG/wBURWYuQLk8k9T0rs6KAOS/4V/Y/wDQT1b/AMCv/rUf8K/sf+gnq3/gV/8AWrraKAOS/wCFf2H/AEE9W/8AAr/61H/Cv7H/AKCerf8AgV/9autooA5L/hX9j/0E9W/8Cf8A61UNb8F2thot5dQ6pqoliiLKTc55/Ku8rD8Wtt8M3o9VA/M0AYth4FtJ9OtZpdT1UySQozYue5AJ7VZ/4V/Yf9BPVv8AwK/+tXS2S7LK3X+7Eo/QVYoA5L/hX9j/ANBPVv8AwK/+tR/wr+x/6Cerf+BX/wBautooA5L/AIV/Y/8AQT1b/wACv/rUf8K/sf8AoJ6t/wCBX/1q62igDjU+HOlxzSzJf6oJJcb2+0nLY6dqyvEHg62sksGi1PVP3l7FG+bn+Etg9q9HrnfF/FhZN/dvYT/48KAKn/Cv7H/oJ6t/4Ff/AFqP+Ff2H/QT1b/wK/8ArV1tFAFDSNLt9G0uDT7Xf5MIIUu2WOSScn6k1foooAKKKKACiiigAooooAKKKKACiiigAooooAKKKKACuf8AHf8AyT3xL/2Crr/0U1dBXP8Ajv8A5J74l/7BV1/6KagA8Cf8k98Nf9gq1/8ARS1uyAmNgOuDWF4E/wCSe+Gv+wVa/wDopa3ZATGwHXBoAyfCttPZ+E9Itrr/AI+IrSJJOc/MFAPPeptXl01o4bHUJ44zdyBIVZtrM4+YbfcYzUPhW2ns/CWkW11/x8RWkSSZOfmCjPNVfEunG7vtAuhaC4+x6gJHwoJRTG65H0ZlP4Z7UATPoeiSasJGWJrlD5ph3jG7Od5Xufc1YtpNJtprq4guLZWlKyTESjGcYBPPGeK5Ow0a+t/GXnXctyW+1zzRtHago0bBtqtLnOACOPUCq+geEEt4/DKT6YVVNNm+2Bx1mPl7Q/r/AB49KAO1tf7M0iFokuIollkac75ByZGLE/iSalvNNt9QmtJpSzfZpPNjUH5S2MAn1xXnemQm01Kyi1TR572aPQLWN0Cb2jffL1H9e2K7DStQh0XS9J0rVrrbqLQRqQQSWbp1x60AaNx/Zt7d2ySywSXFvKZIl3jcHAKnj6EiqH/CPaE16FCqb5H83eJf3o/XOPbpXJadbtcm+gtdMlF82tyyLfBcqEW5Jb5u3ygjFaVrpl2viaMfYpROmozXMt6V+V7dg21N3fqnH+zQBr3mnaBDPqGrXG2ZoAbi4TfvClUxkr64WoLgaDpenXVmySx2t5A9wUGdu3HIX0PTj3rnYtF1E6bdW6afMl1FpV1BdSFcfa5XHyEH+Lof++qu6rpdp4gng0i3gY3aon224JbbCFAwvXGSQBj0zQBrP4d8NadaHVmtGURRhy4kYttHIHX36U4eKNIUurWVyghZZHJt+ELdGP1z1965ie18u01qLAVxaQ2JSN2ZGmZsnGfZh+VZd74Zaxm1QyeWDGLYLhnO5jt4HPNAHWv/AGJ4dv7i8uFv53YfNLJHvUB8ZAIHfgVvW0lhr1lMhtJVjKiNvMjMZK9QAeuKwvFulBfDs8raneqZXjCxeZ8uS68AYq/e6MsOjzGfW76GFowJXeTO1O+OOCfWgCXSrrR7dbW3soisTySxwyNkjcD82GPr29cVm6z4s8O6Xr1vot3Yh7ngQgRKQM+npXOJorPYaUh1HUVtJ9SCWsDyYIhCthsYyDwDn3rE8Y6JLceJNWukSWSS3mtlhYLk5BXJJ/H9KAPUbK+0Zr6ULYi1ubdFy0sAQhTwADSRa5oVwYbfKRiS3Mibl27VY4IHoeK5a0jiv9NMduLmfUysL3TyZwu1+nPcYrnVvmtbiExlA9v+8UtCXLZQHBPpzjHtQB6PbT+HNGnfTE2xmVlLrISykkZHLe1SnxBorHUS5hK27oszDa27pg+4HFcnqOkahrHiTzY4bpUkMTbsDyQfK6kHrg0+W0ji0vxG6xWZkV1Vjt2pIQoyoIHc0Ab1l4p8NazBEE8loLiR/wDWqoUsvUnP1qbU9a8P6d5ljcwwvF5YnMaIrKctjp65rybR7Czjsodtq8bCUx3NsEZhBFuDbzkccj8jXS+NVjXV5JYtkqmzjESQx4ON5PJ+gzQB2lvrGgalLLvto1a2iDM00IwqHjrRb+KvD4ubi0WSOFEwSxTCPn8KwfCtoIrO/gkdVZog/mOu5ADyMjHOKqwQJcagLGeaxU27iV7sO2ZA3UY6fhQB1Nzc6HDK1gLRTHNFl2t48YB5wSvIz1p2lXGgQ281vbqI0tgXcT5+UN1OW9a5fXNMvb/WtTi0zeArWzHy/wC75fp3qlJb3Fpo+oW942Z4raBZS/zYO7vQB2x1/QmSzLtAEuQyRlgMKF5wfQVNqev6RosE91JJF5gVWZUxuYHAH868/sNHjks9a1hbiJoxNLF5bR4j2442Dsc1e/s261e+vdKitwEuLS1WW4bH7pQueB60AdlZXuj2yXt7BcgiRhNPyTtJHpXPzat4L1bVbmeeYyuu0SFlfY5A4GMc4qK2t9UsrzWILaa2e+hs0UTbeOAcEgfxYrFXSbu4i0C2CW5kunMksnmOrybRnLY7E0AdhaafoKziKLzvs6lblN7nyge2M9PpU2nw6N4hie6jj5Nx5kib+S6nAJH4VgeLrNpBLBiSEG3SW68gna2GAA/Km+A7aDStRaBWjLXCHasTbsAEnLH8aAO8s7GCxEnkrgyOXdicliatUUUAZHieKGfw3fRXE3kwtHhpMZ2jIrRtgFtYQDlQigH14rO8TxQz+G76K4m8mFo8NJjO0ZFaNsAtrCFOVCKAfUYoAmooooAKKKKACiiigAooooAKKKKACiiigAooooAKKKKACiiigBCcAmub8GAvpl9c9Rc6hPKv03YH8q3byZbaynmb7scbMfwFZHgyEweENNVvvGLeT67iT/WgDfooooAKKKKACiiigAooooAKKKKACsPxbdix8L31yYY5tiqfLkGVPzAc1uVh+LbsWPhe+uTDHMEVT5cgyrfMBzQBtIcop9qdTUOUU+1OoAKKKKACiiigAooooAKKKKACmOiyIyMMqwwR7U+igDm/BrGPS7ixY/NZ3MkOPQZyB+RFdJXMaL/ovi/XbPoJfLuh77hg/wAq6egAooooAK5uzyvj7Uh2aziI/M10lc79zx83/TSyH6NQB0VFFFABRRRQAUUUUAFFFFABRRRQAVzvjVyvhifHUvGPzYV0Vc54x+bRoo/+elzGP/HqAOhVdqhR0AxTqKKACiiigAooooAK53xlxoyN/duIz/48K6Kud8aceGpn/uyIc+nzCgDoqKKKACiiigAooooAKKKKACiiigAooooAKKKKACiiigAooooAK5/x3/yT3xL/ANgq6/8ARTV0Fc/47/5J74l/7BV1/wCimoAPAn/JPfDX/YKtf/RS1uyAmNgOuDWF4E/5J74a/wCwVa/+ilrdkBMbAdcHFAGT4Vt7i08J6RbXWftEVpEkmTn5gozzVjUNUj0+50+KRGb7bcGBWB4UiN3yfbCH86r+Fbe4tPCWkW91n7RFaRJJk5+YKM81U8W6DL4gTS7dWZIorsyTOjbWVfJkXI/FhQBoz67pltZJdzXka27sVV+xI9Ksw3trc+b5UyP5WN+D93IDD9CDXIaroGp3cOnSFJA+nrLB5dnIsfnKwXDDIwPu9PeorvSLqzOk6dYRSxR39otndq77miSMA7iw6nBZc+4oA1bjxdpUF0zII3ZzCkc6uuJVZsdf9nJODWpd6lCsSvaG3upfMVdglXOCRnHuM5xXLy6LD4juWe2sksLGxDGGZ4QGlmxjdjuoGfrmqn9k3FzpF5qOn6ej3UmpxyQKF2AohVCR6A7SfxoA6xNbsYtd/suN7dFaEzllcDLFiCPr3rLv/H+n2GoXVo1vPIYUDI6LxKemB+PFPj0e2/4TKOSWwgH+gAsyx/Lv3nPPrXKeJdD1DWvFdxLaK8XkWu2Ty/uKV5UZ9Tk0AdTc+PrGHRLfVEs7t4p2CqDHg+/5UmmeOdHu7i1i2/ZZLpBId64O49Bx1JwfyrnP7B1CPwpoNhJbq5WdpHLjd8pVmOfTms/wppz2uq6ddtY3Rt94N3K0fAmG5U2j+7tYgn6UAd43iLTLbVZtPktPJeL987MFA6H5vc4Bp8/ibTvsV5diHzPIlWNAQMyuQNoX865keE5NZ8Q3t0skr2mGYy3CYMlxtZRt7hADio/7JB0yaaSF5vsupRNE6qcHaFDMB36GgDbg8a2Oo6uunSaZOXBQqWQEBj/hUuq+MbS1u57KSyWZY5lgbfMi5YjI4Pb3rhtIs7yHWtKuJLO4VEv2dz5XIUhwCTn3FbGo+HH1mefUxEQLjVF2hoQTsXI3c9uKAOrttdgv7J7yOxjaW1mMO1pU+UjqQ3SobPxO13rb6f8A2M8aqcTXLSpsU+nuelcz/ZVzHphS3tpHgOqSE4g4KEEZ2jtWZYaTqFq8s32W9xc3iny54iTGocYII4AI6igDqrn4kaTa65c6U0TiaGJ3YngHBIx+OBj61dm8U6Nb6DJf2qwsVKo0YTGGJAKnjtmuD1PTJbnxXcNd2EtzYyB44porch2cchc/U5z04reSzuW8Fy2N3FdQX5ul8+OJP9YzODwfTHOaAOj0vxfBqNzJbx2zjZctBv6IAOhyfX0oHiTR11W90ryox9n+ZnwNjPjJH1rk4LG9XxWHMbgJqRUIQceUAcNjGPTmr9r4V+xeMdUZbR5LKSLzC8igqWI5HPU5oA67RL+x1jTxeW8cQMwy6rgn8cVofZoMk+THkjGdo6Vi+ELGKz8O2u22SGQr8+EwTz3roKAIzFGVKlF2kYIx2qL7Baf8+sP/AHwKs0UARrFGjFlVVY4BIHXFM+y25LnyI8yHL/KPmPvU9FAEJtoGQoYYyrHJG0YJpwjRXLqihiMEgcmpKKAIlghR3ZYlDSffIHLfWmi2gV1cRRh1GFYKMgegqeigBjIrqVdQwIwQRnNRQ2VrbOXgt4o2IwSiAGrFFABRRRQBkeJ4YZ/Dd9FcTCGJo8NIRnaMitG2AW1hCtlQigH14rO8TQw3Hhu+iuJhBE0eGkIztGRWjbALbQgHKhFAPrxQBNRRRQAUUUUAFFFFABRRRQAUUUUAFFFFABRRRQAUUUUAFFFFAGR4nJXwpqxBwRaS8/8AATU2hADw/poH/PrF/wCgiofFP/Ip6v8A9ecv/oJqfRP+QBp3/XrF/wCgigDQozRXK+I9MOqeI9Ct5UmayxcNMI3ZRnaNuSD65oA6nI9aMj1rGPhjSjp4sfJl8gP5mPOfOfrnNH/CL6UdPFj5Mvkb/Mx5z5z9c5oA2cj1oyPWsb/hF9K/s/7F5Mvkb/Mx5z5z9c5o/wCEY0r+z/sPky/Z9/mY8587vrnNAGzketGR61jf8IvpX9n/AGHyZfs+/wAzHnPnd9c5o/4RfSv7P+w+TL5G/wAzHnPnd9c5oA2cj1oyPWsb/hF9K/s82Pky+QX8zHnPnd9c5oHhjShp5sfJl8gv5mPOfOfrnNAGzketYni27Fl4WvrkwxzhFX93JyrfMBzTh4Y0oaebHyZfIL+Zjznzn65zTJPCWjzaW2my2zyWjvvaNpWOT9c5oA20IKKeOlLketYw8L6UNONiIZfIL79vnPnP1zmgeF9KGnmyEMvkF95HnPnP1zmgDZyPWjI9axh4X0pbBrIQy+QX3kec+c/XOaB4Y0pbBrIQy+Qz7yPOfOfrnNAGzketGR61jL4X0pbBrIQy+Qz7yPOfOfrnNC+F9KWwayEMvkM+8jznzn65zQBs5HrRketYy+F9KWwayEMvkM+8jznzn65zQvhfSlsGshDL5DPvI8585+uc0AbWRSZHrWMvhfSksGshDL5DNvI8585+uc0L4X0pLB7IQy+Q7byPOfOfrnNAG1RWD4UFr/YKJZyTyQJLIimZiW4YgjJ7VvUAczOvk/EK0dTgT2Lq/uVYY/ma6auc1f8Ad+LtDk/viWP9M10dABRRRQAVzd2Svj/TQP4rKXP4EYrpK5yX5/H1t/0zsn/VqAOjooooAKKKKACiiigAooooAKKKKACuc8V/MulRf89L+Nf1ro65vX/32v6Fbf8ATwZv++RQB0lFFFABRRRQAUUUUAFYPjGBpvCl+qfeCbvyOa3qq38AudPuYD0kjZfzFAEltOtzaw3C/dlRXH0IzU1YfhKfz/CtgT1jjMR/4ASv9K3KACiiigAooooAKKKKACiiigAooooAKKKKACiiigAooooAK5/x3/yT3xL/ANgq6/8ARTV0Fc/47/5J74l/7BV1/wCimoATwJ/yTzwz/wBgq1/9FLW9ICY2A6kHFYXgT/knvhr/ALBVr/6KWugoA5Dw7r2naVoOlaVqN8seowW0UM0bBiwk2gEE49a15/E+jW16bOa/jS4DBShBzn06VqGKMtuKKT64oMUZbcUUn1xQBlz+J9Gtr02c1/GlwGClCDnPp0on8TaLbXhtJr6NLgNtKFTkE9ulahijJyUUn1xQYoyclFJ9cUAZc/ibRra8NnNfRpOGClCp6nt0pJ/E2i2t2bOW+jScMF8vaep/CtUxRk5KKT64oMUZOSik+uKAMu48T6Na3htJr6NLgEKUIOcn8KJ/E2i2t41pNfRpcZClCpzk/hWoYoyclFJ9SKDFGTkopPqRQBl3HibRrW7NpPexpOCF2FT1P4Uk/ibRbW7NpNfRpMCBsKnqfwrVMUZOSik+pFBijJyUUn1IoAy5/E2jWl2bSa+jjnBA2FT1P4Ulx4m0W0ujaT30aTAgbCp6n8K1TFGTkopPqRQYoyclFJ9SKAMq48TaLaXZtZ76NJwQNhU5yenaluPE2i2l19lnvo0mBA2FT3/CtQxRk5KKT6kUGKMnJRSfUigDLuPE+jWl19lnv40myBsIPfp2oufE+jWl19lnv40myBsIPfp2rUMUZOSik+pFBijJyUUn1IoAy7jxNo1ndfZp76NJgR8hU55/Ci58TaLaXX2a4vo0m4+Uqc89O1ahijJyUUn1IoMUZOSik+pFAGXc+JdFtLr7PcX0aT8fKVOeenai58T6NaXP2a4v40m4+Qg9+natQxRk5KKT6kUGKMnJRSfUigDLufE2jWdz9mnvo45uPkIPfp2oufE+jWdz9muL+OObj5SD36dq1DFGxyUUn1IoMUZOSik+pFAGXc+J9Gs7n7PcX8cc3HykHv07UXPifRrO5+z3F/HHLx8pB79O1ahijY5KKT6kUGKMnJRSfUigDLufE+jWdz9nuL+OOXj5SD36dqLnxPo1ncC3uL+OOU4O0g9+natQxRk5KKT6kUGKMnJRSfUigDLuvE+jWdwLe4v445SAdpB79O1Fz4n0azuBBcX8ccpAO0g9+natQxRsclFJ9SKUxRsclFJ9xQBlXXifRrK4EFxfxxykA7SD36dqLrxPo1lcCC4v445SAQpB79O1ahijY5KKT6kUpijY5KKT7igDKufE2jWU4guL+OOUgEKQeh6dqLnxNo1lOILi/jjkIBCkHoenatUxRsclFJ9xQYo2OSik+4oAyrnxNo1lMIbi/jjkIBCkHoenai58TaNZTCG4v445CAQpB6Hp2rVMUZOSik+4oMUbHJRSfcUAc14m1jSLjSrnS59QSGW4jAUbGJ5Ix2rordQlrEoOQqAZ9eKcYoyclFJ9SKkoAKKKKACiiigAooooAKKKKACiiigAooooAKKKKACiiigAooooAo6ta/b9GvbQHHnQPHn6giqnhS6+2eFtNmHB8hUI91+U/wAq2CMjFc14RP2dtX008G1vnKr6I/zL/M0AdNWFqTXg8V6GsPmfZStx5+Pu/dG3P41u1hak94vivRFg8z7Ky3Hn4+7naNufxoAuazfy6Zo11ewWzXMkKbliXq3+etYNt4guru70RQ1tK94LnBt5D5WUUEA5Gev5V0l/GJrKWNrl7YMuPORgpT3BNYdn4b0dDbrBds88JnYOswLs0ow7HHegCovirUbG01a+1O1tPsdggAltnYh5M4K8jtkZNaHhnxC+vR3aukYktnVS8O4xuGGRgkA8d6h0/QtNsLGXTptXku7V08sw3EykLznI981e0yK10u2mZtVe6QuMtNIrbCeAOKAOL8X+J7yDxNHHYXs0VnHaHzQhCAS+YAM5HpU134su7b4WTagtxv1K3iVZi+Q24tjA9TWprPhv+1bmf7RqsUNzc7YhCFDARq24DHXJIyTU974fRtClsL+e1WSWTFswXaoc9OO54oA5HTfEmt3uvoVvpWi/tVUeNc7BBgA9R0yfrVrW/EWqx69qVvBdYijubdB5JPAKMWXp3wM1vnwY8N29+t+qSpdNdRboxtUNt3K3qPlyPSqmreDZNY1S4lGowxLNJHcJCi9Qg2qT+ZoApxa3eDwVqmoXt/IqOAYS4JZRt6Ke5yKj07xfrVxpdveC4hMYtIZ2UxcsWcIRn9a6hPDcdvpd/ZvPFi6Y+TlcLGSMYAqhH4OnTTXgNxD507xCZlTCrHHjCqPXjk0AZV94s1iy8R6rEsUM9tjyYxE53QkL94g+5Gaml8XXtj4dv1WzkmuIVEdrKG3GTK8s390jkmrt74CS7vNQv/t7JeXhCkqg2bAQQCvc5Gc96vw+GZo7HWI5LqN5dQXG5Y9ip8uOlAGT4f1+7ufEk+nwSNfKLe1Z3LfJEChLEkfxE44qjqvi7V4brW4IomVwwii+YMIf9rA56ZJ/CtdPCn9kGRdP1KKwW8iit3URD5mUYyp9SK1bHQbPSp3u7idXeUeWzSKqhs8c+pNAGHL4i1FfD+qSzPFDLpyI4ltzvEqkAjr9a5vSvE2rNrNzC2seYJL6ODagDFdw647Cuzm0C8WPUSt3a2y3sqg/JuVIlGAADxmqOm+EIdOvJbzSr2L7RNKJQXw4lTjO73zyD2zQBS8YeJNQtdTji0y7VmthteFCN0jMMAt2AHp3q3N4wFn4HmnNy95qcSiKTERUrI3GSOwGf0qbUfCUOs3VxcNNbmQzqJVQYEaqcnp1Y+pqWLw/bv4c1XT7PUUltpydsjYJiPBIJ70AYT+JdSg1/ToDe2ohRnjCzsyswCjJfA9c4r0uNxJGrgghgDkdKw59HtbvVtNuw9u32dGJXAJfIAzW6AAABgDtigDE8KCzGiYsWdofPl5fru3nP65rdrC8KCzXRMWLSND58vLjndvOf1rdoA5vX8nxF4cC9RcyE/TYa6Suc1P974z0aL+5FLL/ACH9a6OgAooooAK52H5/H1z/ANM7JP1Y10Vc1o3+leK9bve0ZS2H/ARn+tAHS0UUUAFFFFABRRRQAUUUUAFFFFABXOT/AL/x7aJ/z7Wjyf8AfRxXR1zmnf6R421ab/nhBHD9M/NQB0dFFFABRRRQAUUUUAFIRkYpaKAOb8JnyV1SyPBt759o/wBlgGH65rpK5vTv9G8barB2uYI5wP8AdJU/zFdJQAUUUUAFFFFABRRRQAUUUUAFFFFABRRRQAUUUUAFFFFABXP+O/8AknviX/sFXX/opq6Cue8d/wDJPPE3/YKuv/RTUAL4E/5J74a/7BVr/wCilroK5/wJ/wAk98Nf9gq1/wDRS10FABRRRQAUUUUAFFFFABRRRQAUUUUAFFFFABRRRQAUUUUAFFFFABRRRQAUUUUAFFFFABRRRQAUUUUAFFFFABRRRQAUUUUAFFFFABRRRQAUUUUAFFFFABRRRQAUUUUAFFFFABRRRQAUUUUAFFFFABXNH/iXeO1PSLVLYg+8sff/AL5OPwrpa5vxkjw6VFqkSlpdNnS5wOpUHDD6bSfyoA6SsLUnvF8V6GkPmfZWW48/H3fujbn8a14Jo7iCOaJg0cih1YdweRWPqUl4PFeiJCZPsrLcefgfLkKNufxoA09Sa1j064kvQhtkQtJv6YHNeU+GfPTV9Ais1ij1GFXS6tnT5khZi3nE+67QK9Q1XR7TWrZbe9VniDbtqsQCff1qh/wh+jjy3jheOeNgwuEciQ47FupHtQB5b4xjjk8TSoZHhQiWYgwlPLQgDJ455B/Oty6spW8CpAkc4me7iZpvL8obWZdpOfvYFdhceCdLv9Qa81Rpr98ny1nbiMegxitA6DanTotPZ5mgilWVQzkn5TkAn0zQB5jBqdydTi1pvtDSNFsOew+0eXndj9a7TxqZdUtU0DT23X8uLhmHJiRDuz7EkAD61dTwVoscCxCGT5WyCZDn7+/H03c4rSsNItNNmuZ4VZp7l98srnLN6DPoOwoA5rXtTfVPDmjtBJKq31zHDcLAcNgg7l/MVyenSa0+mRa3eTXCyeWsNrNGePLWbaVkHqf6V6Jc+FdMuWcskiq9wtyURyo8wDGRjpnPNK3h3TLbQrfTyXSwtG83DPwcEt8x7jNAGf47lni0zSpLaMSzjU7cpGWwGOTxmptP1i+GiRTx20up3bORcRqyxmFu64PYdKuT67oL3cNnPfWrTl0aKNzk7jypHv6VduLqy04maQojTSrGxUcljwM0Ac9qmv32kSx3l1DJFDeQGOK3YhjHcD7q5H97+lL4jguofA2+5u3N7bqsxIYjzZBzs47E8V0lz9leEyXAieOBt5LYIQjv7EVWnfTb+7tYZmjkmVftMKMe3QNj8aAPNbC31C6sdD3312kRuo3Vt24bmLFl55BU8V0PiO2v7sCfU1VbJLmOG3t1blstjzGI7+g7V1U+i2c81rIU2C2lMyInClz3Iqa/0+DUoEin3bUkWQYOOVORQBxPi+HUbXwlcw392xhRx5N1Ah8xRjALD17VyPheLUbdtEiTUpAtwFhtZE4LorZlyD69vpXsOp6Xb6vai2uS5hyCyK2N49D7VkW/gbQ7WJkjgfO7dG5c5i5yAn90fSgDmNX1KW2vb2JTbm4+2rbv+9MRZWwAxA6kZqTRLKx/4QC5gjuSsriTzog/LsM4HrzXaDw7pX2qa6eyieeZw7u43EsBgHmq8nhbTmuL64ijaCa9VVleM+ncDsaAPHdAnnk1rRRNHcqu7yyWlOAg4YfnXviBQihfu44rJt/DOlWhtfJtlAtlKoMZznqT61sAADAGBQBh+FFs10TFiztD58vLjndvOf1rdrC8KLaLomLF3eHz5eXGDu3nP61u0Ac3H/pfj2Z+1jZhM+7nJ/kK6SuZ8K/6VLq2pdRc3jBD/sr8uP0NdNQAUUUUARyyCKJ5G+6ilj+FYPg5CdEN23LXczz59QTx+lWPFN21n4du2Q4lkXyo/dm4H86vaXarZaVa2qjAiiVcfhQBcooooAKKKKACiiigAooooAKKKKACuc8Mfv73W7z/AJ6Xhjz/ALgx/WtnULlbLTbm5Y4EUbN+QrP8K2rW3h613j95MDM59Sxz/LFAG1RRRQAUUUUAFFFFABRRRQBzutf6B4h0nUxwjubSY+z/AHf/AB7FdFWR4ksjf6BdwrxIE3oR1DDkVY0i9/tHSLS87zRKzD0bHI/PNAF+iiigAooooAKKKKACiiigAooooAKKKKACiiigAooooAK5/wAd/wDJPfEv/YKuv/RTV0Fc/wCO/wDknviX/sFXX/opqAE8Cf8AJPPDP/YKtf8A0UtdDXP+BP8Aknvhr/sFWv8A6KWugoAKKKKACiiigAooooAKKKKACiiigAooooAKKKKACiiigAooooAKKKKACiiigAooooAKKKKACiiigAooooAKKKKACiiigAooooAKKKKACiiigAooooAKKKKACiiigAooooAKKKKACiiigAooooAKimhSeJ4pFDRupVlPcGpaKAOX8HSPbQXmhTsTNpkxjQnq0Lcofy4/CrepSXi+K9DjhMn2VluPPwPl4Ubc/jVfXYm0nUYvEVvGWEaeTeov8UOc7vqp5+maXUb2RfEWhSRTY0+VJ2lcH5D8g25P8qAOkoqsL21ZGdbmEov3mEgwPrQt9aMjOtzAUX7zCQED60AWaKrLe2jIzrcwlF+8wkGB9aFvrRkZ1uYCi/eYSDA+tAFmiqy3toyM63MBRfvMJBgfWhb61dGdbmEov3mEgIH1oAs1znjUyp4auHihWUphsM2FHOMn169K2lvrR0Z1uYSi/eYSDA+tRTy6dfWc0Us1vLbkYk/eAjHvQB5FqKzJrsNz9hklkW+tkIZipJx8rYx6Anit7W3Nzc3lxZ36Qf8AE3hikimQEh0x8w56c13MsWlXUkVy728htTuV/MBCHoCeaZJZaDdNLcSRWErZ3SSHaefUmgDiLxV+wz2puTdGXXF+0sG8tH3LkqCD04FZGn6dfDw8usXUhmDYjt5RKQ1uFmICdfmBHevSf7L8PS2rRiGyMCyiZlVhtD9iaclhoZsIrWMWv2S2feqLINqHOeefWgDYT7i/SnVWW9tGRmS5hKp94iQYH1oW+tHRnW5gZV+8RICB9aALNFVlvbR0Z1uYWVfvESAgfWhb60dWdbmFlX7xEgIH1oAs0VWW9tJFZkuYWVfvESAgfWhb20dWZbmFlXliJAQPrQBZoqst9aOrMtzCyr94iQED60LfWkiMyXMDKv3iJAQPrQBl+FFs10TFi7vD58vLjB3bzn9am8S6g2naFcyx/wCvceVCPV24H86g8J/Yv7DzYStJAZ5SGbud5z+GaqagTrHi+0sF5ttOH2mf0Mh4Rf5mgDZ0XT10zRrWzHWOMbj6t3P51oUUUAFFFNZgqlmOABkk9qAOb1v/AImHiTSdMHKRsbuYdsLwoP4n9K6auY8Nk6nqmpa6R+6mYQWxPeNO/wCJzXT0AFFFFABRRRQAUUUUAFFFFABRRRQBzni+Rm06CwjOJL64SEfTOT+lb8caxRrGgwqgKB7CufuwL7xrYw9VsoGnYdstwK6SgAooooAKKKKACiiigAooooAaQGBB6Hiud8LsbSXU9Ibj7JcF4x/0zf5h+u6ukrl9XY6P4msdX6WtyPsdz6KSfkY/jx+NAHUUUUUAFFFFABRRRQAUUUUAFFFFABRRRQAUUUUAFFFFABXP+O/+Se+Jf+wVdf8Aopq6Cuf8d/8AJPfEv/YKuv8A0U1AB4E/5J74a/7BVr/6KWugrn/An/JPfDX/AGCrX/0UtdBQAUUUUAFFFFABRRRQAUUUUAFFFFABRRRQAUUUUAFFFFABRRRQAUUUUAFFFFABRRRQAUUUUAFFFFABRRRQAUUUUAFFFFABRRRQAUUUUAFFFFABRRRQAUUUUAFFFFABRRRQAUUUUAFFFFABRRRQAUUUUAMdFkRkdQysMEHoRXKWttBp103hzUolm0+Yl7FpRlcdTEfcdvauurP1XS4dWsXtpiVP3o5F4aNx0YH1FAEcfh7R4baW2j022WGXHmIEGGx0zRH4e0eG2lto9Ntlhlx5iBBhsdM1U0TVpZJZNJ1LCanbj5uwmTtIv17+hrfoAy4/D2jw20tvHptssM2PMQIMNjpmiLw9o8NtLbx6bbLDNjzECDDY6ZrUooAy4vD2jw20tvHptskM2PMQIMNjpmiLw9o8NvLbxabbJDNjzECDDY6ZrUooAy4vD2jw28tvFptskM2PMQIMNjpmiLw9o8FvLbxabbJDNjzECDDY6ZrUooAy4vD2jwW8sEWm2yRTY8xAgw2OmaIvD2jwW8sEWm2yRTYEiBBhsdM1qUUAZcXh7R4LeWCLTbZIpsCRFQYbHTNEPh7R4IJYItNtkimAEiKgw2PWtSigDLh8PaPBBLBFptskUwAkRUGGx60Q+HtHgglgi022SKYASIqDDY9a1KKAMuLw9o9vBLDFptskUwAkRUADfWiHw9o9vBLDFptskUwAkVUADD3rUooAy4fD2j28MsMOm2yRzDEiqgAYe9EPh7R7eGWGHTbZI5hiRVQAMPetSigDLh8PaPbwyxQ6bbJHMMSKsYAYe9EPh7R7aGWKHTbZI5RiRVjADD3rUqOSRIo2kkYKijLMTgAUAZ9xNYeHNHZ1jjgtoR8kca4BJ6AD1Jqr4XsJ7XTnurxcX17IZ5vYnov4DAqlZxnxRqseqSg/2XasfskbD/Wv/wA9D7eldXQAUUUUAFc54nuZZVt9EtHIur87WYdUiH3m/Lj8a3bi4itbeS4mYJHGpZmPYCsDw5BJf3Nx4gukKyXXy26N1jhHT8T1oA3bS1isbOK1gULFEoVQPQVYoooAKKKKACiiigAooooAKKKKACmO6ojOxwqjJNPrnfF15JFpSWVsf9Kv5Bbx46jPU/gM0AR+FWe+l1DWpPu3c22DPaNeB+ZrpqrWNpHYWEFpCMRwoEH4VZoAKKKKACiiigAooooAKKKKACqOradHqul3FlKPllQgH0PY1eooAw/C+pSX+leVdH/TbRzb3APXcvQ/iMH8a3K5a7/4kfi2C+Hy2epgW8/oso+4348j8a6mgAooooAKKKKACiiigAooooAKKKKACiiigAooooAK5/x3/wAk98S/9gq6/wDRTV0Fc/47/wCSe+Jf+wVdf+imoAPAn/JPfDX/AGCrX/0UtdBXPeBP+SeeGf8AsFWv/opa6GgAooooAKKKKACiiigAooooAKKKKACiiigAooooAKKKKACiiigAooooAKKKKACiiigAooooAKKKKACiiigAooooAKKKKACiiigAooooAKKKKACiiigAooooAKKKKACiiigAooooAKKKKACiiigAooooAKKKKAMfW9Dj1eGN0kNvewHfbXKfejb+oPcVBo2uPPK2n6pGLXVIuGT+GYf30PcH9K36z9S0q01aARXUeSpykinDofVT1BoA0KK5kX+peHv3eqK95YD7t7GuXQf9NFH8xW/a3dve26z2syTRMMh0OQaAJ6KKKACiiigAooooAKKKKACiiigAooooAKKKp3+o2um25nu5liQep5PsB3oAtEhQSSAB1Jrk5pJPF1+1pCzLolu+J5Rx9pcfwD/ZHc96nEN94lO64WSy0n+GH7sk/wDvf3V9q6KC3itYEggjWOJBhVUYAFACxxpDGscahUUYVQMACpKKKACiisDXNaltpY9M05RLqlwPkXtEvd29h+tAEOsk63qseiRnNtHiW9YenZPxro0RUQIoAVRgAdhWdoukRaPZmMO0s8reZPM/3pHPUmtOgAooooAKKKKACiiigAooooAKKKKACuVtj/bPjWe6PzW2lp5MfoZW+8fwFa2v6l/ZekTToN0zfJCv95zwBTfD2l/2To8Vu7bpmzJO/wDeduSaANaiiigAooooAKKKKACiiigAooooAKKKKAM/VtNh1fTZbObgOPlYdVYdCPoaraBqMl3DJZ3mBf2h8ucf3vRx7EVs1zuvW8ljcx6/ZoWltxtuY16yw9/xHUUAdFRUNtcxXltHcwOHikUMjDuDU1ABRRRQAUUUUAFFFFABRRRQAUUUUAFFFFABXP8Ajv8A5J74l/7BV1/6Kaugrn/Hf/JPfEv/AGCrr/0U1AB4E/5J74a/7BVr/wCilroK5/wJ/wAk98Nf9gq1/wDRS10FABRRRQAUUUUAFFFFABRRRQAUUUUAFFFFABRRRQAUUUUAFFFFABRRRQAUUUUAFFFFABRRRQAUUUUAFFFFABRRRQAUUUUAFFFFABRRRQAUUUUAFFFFABRRRQAUUUUAFFFFABRRRQAUUUUAFFFFABRRRQAUUUUAFFFFADSAQQRkHsa5668NNb3D32g3H2C6blo8ZhlP+0vb6iujooA5ePxNc6cyw+IdPe0OcC6i/eQt+I5X8a6C2vLa9hEtrPHNGwyGRgRUrIrqVdQynggjINYNx4Q05pTNYmbTpyd2+1faCfUr0NAHQ0VzPk+KdO4imtdUiHAEv7qQfUjg0p8R6jb8Xnh69UDq8JV1/Q5oA6WiudXxrpJOJFu4iOvmWzjH6VMPGHh/GW1S3T2dsGgDcorD/wCEx8Of9Bi0/wC+6RvGGgYympwye0Z3UAbtFc43jPS87YkvJmPQR2znP44pD4g1SckWfh+7Po87Kin+tAHSVSv9VsdMjMl7cxQr/tNyfwrG+x+JtUP+lXkOmQnrHajfJ/30eP0q1YeFtLsZRMYWubj/AJ7XLGRv16UAVD4g1HVDs0TTJCh4+13Q2Rj3A6mrVh4ciiuRfajM1/f/APPSX7qeyr0FbgGBgUtABRRRQAUUVia3rf8AZ3l2lnH9p1K44hgHb/ab0UUAJret/wBnGOzs4/tOp3HEMA7f7Teiin6Ho39mxSTXEv2jULg7ricjkn0HoB2FN0TRP7N8y6upftOpXHM9w3/oK+ij0rboAKKKKACiiigAooooAKKKKACiiigAoorJ1/VP7L04mJd91MfLt4x1Zz0oAoAjW/FXHzWemfk0x/wFdLWV4f0v+yNIit3bdOxMkz/3nPJNatABRRRQAUUUUAFFFFABRRRQAUUUUAFFFFABTSAykEZB4Ip1FAHM6ef+Ee1c6XISLC6YvaOeiOeWj/qPxrpqoanp0Oq2D2s3GeUcdUYdCPcGqeh6lNMJNPvwF1G0wsnYSL2cex/nQBt0UUUAFFFFABRRRQAUUUUAFFFFABRRRQAVz3jv/knnib/sFXX/AKKauhrn/Hf/ACT3xL/2Crr/ANFNQAeBP+Se+Gv+wVa/+ilroK5/wJ/yT3w1/wBgq1/9FLXQUAFFFFABRRRQAUUUUAFFFFABRRRQAUUUUAFFFFABRRRQAUUUUAFFFFABRRRQAUUUUAFFFFABRRRQAUUUUAFFFFABRRRQAUUUUAFFFFABRRRQAUUUUAFFFFABRRRQAUUUUAFFFFABRRRQAUUUUAFFFFABRRRQAUUUUAFFFFABRRRQAUUUUANZVYYYAj3FQNY2jnLW0DH3jBqzRQBV/s2x/wCfO3/79L/hTksrVPuW0K/SMCrFFADQoUYAAHtTqKKACiiigAooooAKQkAZJ4qhqer2ekxB7mTDNwkajLufQDvWSLPVfEHzX7PYaeelrG2JZB/tt2+goAkutauNQuHsdCVZHXiW7YZji+n95var2laJb6YHkBaa6k5luJOXc/0HtV21tLeyt0t7aJYokGAqjAqegAooooAKKKKACiiigAooooAKKKKACiiigCKeaO3geaVgkaKWZj2Arn9Fjl1m+bXLuMrEMpYxt/Cn98+5puoE+ItUGlRMfsFswa8cfxntH/jXSIqogRAFVRgAdhQA+iiigAooooAKKKKACiiigAooooAKKKKACiiigAooooAKw9c06dzFqWngDULXJUdpU7ofr/OtyigCjpmoQatYx3cB+VuGU9UYdVPuDV6uW1K0uNBv5Na06N5baQ5vrRP4h/z0Uf3h3Heugsr231C0jurWVZYZBuVl70AWaKKKACiiigAooooAKKKKACiiigArn/Hf/JPfEv8A2Crr/wBFNXQVz/jv/knviX/sFXX/AKKagBPAn/JPPDP/AGCrX/0UtdDXP+BP+Se+Gv8AsFWv/opa6CgAooooAKKKKACiiigAooooAKKKKACiiigAooooAKKKKACiiigAooooAKKKKACiiigAooooAKKKKACiiigAooooAKKKKACiiigAooooAKKKKACiiigAooooAKKKKACiiigAooooAKKKKACiiigAooooAKKKKACiiigAooooAKKKKACiiigAooooAKKKKACiimMyou5mCj1JxQA+isC88WaXbymC3d7256CG1Xec+hxwPxqv/wAVNrH/ADy0e2Pr+8mI/kKANnUdVsdKgM17cxwr2DHk+wHescanrGt8aXa/YrU/8vd0vzMP9lP8ap3en6b4cntbh9PvdY1CdyiOf3rggZJ54UVqrrt02nNdf2DqAdX2iAqu8j1HPSgB+meH7XTpTcyPJd3rfeuZzub8Oyj6VtVhLrt02nvdHQdRDq+0QFV3keo56ULrt02nvdf2DqIdXCiAqu8j1HPSgDdorCTXrptPe6Ohairq4UQFV3t7jnpQmvXTae90dC1FXVgogKrvb3HPSgDdorCTXrptPe6OhairqwUQFV3t7jnpQmvXT6fJdHQtRV1YKICq729xz0oA3aKwk166fT5Lo6FqKurBRAVXe3uOelCa7dPp8lydB1FXRgogKrvb3HPSgDdorCj166fT5Lk6FqKujBRAVXe3uOajPifybEXV7pd9aKZkhCyqM5Y4B4PSgDoaKKKACiiigArD1/U5oFj07T8NqN18sY/55r3c+wq1rGrwaNYPdT5Y/djjXlpGPRQPWqehabOjS6nqAH9oXQBZevlJ2Qf1oAv6TpcWkWCWsRLEfM7nq7HqTV+iigAooooAKKKKACiiigAooooAKKKKACiiigAooooAKKKKACiiigA6iuSvLebwrdyanYxtJpUrbru1QZMRPWRB/MV1tNIDAgjIPUGgCO3uIbu3SeCRZIpBuV1OQRU1cjJFN4RvGurZGk0SZt08K8m1Y9XUf3fUdq6mGaO5hSaF1eNwGVlOQRQBLRRRQAUUUUAFFFFABRRRQAVz/jv/AJJ74l/7BV1/6Kaugrn/AB3/AMk98S/9gq6/9FNQAngT/knnhn/sFWv/AKKWuhrn/An/ACT3w1/2CrX/ANFLXQUAFFFFABRRRQAUUUUAFFFFABRRRQAUUUUAFFFFABRRRQAUUUUAFFFFABRRRQAUUUUAFFFFABRRRQAUUUUAFFFFABRRRQAUUUUAFFFFABRRRQAUUUUAFFFFABRRRQAUUUUAFFFFABRRRQAUUUUAFFFFABRRRQAUUUUAFFFFABRRRQAUUVSvNV0/T033d5BCv+24FAF2iuZbxlZysU020vdQkHaCE4/M4FMNz4u1AfubKy06M/xXDmRsfRehoA6gnAyax7/xPpOnSeVLdK8//PGIb3/IVR/4Ra5vH3arrd7cA/8ALKEiJB7cckVr6fo2m6UpFjZxQk9WVfmP1PWgDHOq+ItSbGm6UlnCf+W982D+CDmlHhL7Y/ma1qV1fk/8sQ3lxD22jr+NdPRQBVs9Ps9PiEVnbRQIOMRqBVqiigDC1i4u4dd0KKAsIZppBNgZBAQkZ9Oa1Lu8gsYPOuZBHHuC7j0BJwKy9YubqHXdCigLCGaaQTYXIICEjPpzWnf2cWoWE9pMMxyoVNAFPUvEWm6VL5V1ORLs37EUs2PoKov4w05bqHDg2clo9ybnPChWC4I/GsVvDevrp4kadJb6SYC48uTy2aFRtUK+OD3P41SsvAuqCwNpO8KBbSeBX37iS8gdSf60AdzLrunwvcI9yoa3jWWQeit9386p3HiixXRf7StnWZN20IzbGJ7jB7+1c9N4U1fVn1GW/wDKtzMlv5KQSndmIk4Lds+tSWtne6PpL2kWjtJqN5OzKZZvPVDgDzGYjj6UAbOleLtM1J5wbmCLbN5UeZBl+n9eKrW/jKKfRNTvzaOklizjyi3Miq23cD6HFZMvhgWFzp2mw5nWadJ5T5QxGV+Zm3Y4ye1S3fhDUZPCs9pbvCmotLLtJb5Wjd84P4frQBr/APCVL/ZmsXv2Vv8AiXEAru+/8ob8OtWtN14ahHqTC3KfYmxy2d/yBv61h3Ph7Vkj1Cwt4YZLXU9pmmaXBhO0KcDv0p9rpmu6ZqGpwQWVvPZXrgiYz7WQbAv3ce1AHS6PqA1bSLW/EZjE8YfYTnGao+KWtF0mM3qSPF9piACHB3bhj9areFYtbsLG303UbCCKG3i2LPHPvLke2OKteKWtF0mM3qSPF9piwIzzu3DH4ZoA3KKKKACqt/fW+m2Ul3dSCOKMZJP8qlmmjt4XmmdUjQFmYnAArl7S3k8VX6aldoy6VA2bSBv+Wzf89GHp6CgCbSbGfV79de1OMoQP9DtW/wCWS/3j/tH9K6eiigAooooAKKKKACiiigAooooAKKKKACiiigAooooAKKKKACiiigAooooAKKKKAGsqupVgCpGCD3rk3D+DbgyoGfQZXy6AZNmx7j/Y9fSuupjoksbRuoZGGCpGQRQAkcqTRrJG6ujjKspyCKkrkR5ng265LSaBK3Hc2bH/ANkP6V1aOsiK6MGVhkEHgigB9FFFABRRRQAUUUUAFc947/5J54m/7BV1/wCimroa5/x3/wAk98S/9gq6/wDRTUAHgT/knvhr/sFWv/opa6Cuf8Cf8k98Nf8AYKtf/RS10FABRRRQAUUUUAFFFFABRRRQAUUUUAFFFFABRRRQAUUUUAFFFFABRRRQAUUUUAFFFFABRRRQAUUUUAFFFFABRRRQAUUUUAFFFFABRRRQAUUUUAFFFFABRRRQAUUUUAFFFFABRRRQAUUUUAFFFFABRRUUs8UKlpZEQDuzYoAlorAu/GOg2pKnUI5HBxshBkP5Cq3/AAlV9d8aZ4evps/dkmAiQ/iaAOoorl9njC++8+n6dGewzK4/HpR/wiU11zqevajcnusTCFfyWgDbutV0+xXddXsEI9XcCsqTxnpAk8u3ea7k7LbxM+fx6VPaeE9Esjuj06J37vN+8J/76zWvHFHCuyONUX0VQBQBzw1/WLgYsvDlyD63TrEKBF4tucF59Ps0PVVVpHH49K6WigDmj4Zu7lcX+v38w9IcQ/yqzaeE9Fs38xbGOWXvJPmRj+dblFADFVUUKihVHQAYAp9FFABRRRQAUUUUAFFFFAHN+JNQu9P1HSDbkCN3l80NwpxGSMntzXLQfEXUZNcmtjb2flCNCAZuhPXmul8VG/lvtHs7F0RbmWRJjJHvUKEJ5H1rmLTwJfDT3ZreAXkU7tvkIzeIWzhsfd7YoA6jWPEJtDAsV7aQsY97+ajOMHuCO1UT4wki0PUb1bqzu5YIPOiWFGAI75zUt7Zandu7yWIigtLYpBbxMCZZWXB/4CM1Uh8G3i6FJp0d0sEd3YiKZT83lzAD5l9uORQBrJ4wtUs557u2urYww+dtkTBkTgFlHcZNWLnxPp9rLcxyCTfBHHIVC/e8z7qj1JxWa3hS91CGVdWvopH+yG0ieFCp2kg5YHvkDpUQ8H388t7c3t/C9xKsHk7IyFjaIkrn1FAFqfxd9l1KzjurZ7WCe2eUpMMS7gwAUD3zVu/8VWWnSRJNDPuZFeXC/wCoU9C/pVO68LTave2d5q08LT28Dx5gUja5YEOuemMVV1TwXJqN1FeyixurzYsUpuUbayqeCAD1+tABd+OtttqhSxngNncLAssiblbIzu47YpJvGcy6xYQJbYgmiLv5jBWzxjg9Ks3Phadk1KKGZPLvZkm2hmTYwABGR1HA4rDuPD3iL7fNi389fOjKTidQAoxn5SMmgDQ1vxffadrc1oggjgjhSTe65JJ7dahTXH1rQZLjWLZhaC8hWBolKFjuGCQe2ai8R+BrvxGdSuZ3jSRlCW8O1WDBRwST0JpYtNj0fR/s99Z3MdkJrfaPMBJk3DoOwzQB6HTWYKpZiAAMkntTq5S9mm8T3r6ZZSNHpsLYu7hf+Wh/55qf5mgBrF/F99sQsuiW7/Ow4+1OOw/2R+tdUirGgRFCqowABwBTLe3htLeO3gjWOKNQqqowAKmoAKKKKACiiigAooooAKKKKACiiigAooooAKKKKACiiigAooooAKKKKACiiigAooooAKKKKAI5Yo54milRXjcYZWGQRXKpJJ4PulgnLSaFK2I5WOTaMTwrf7Hoe1ddUNxbxXVvJBOiyRSKVdGGQQaAJAQygqQQeQRTq5Kznm8KXsem3sjSaRM22zunOTCx6ROfT0P4V1tABRRRQAUUUUAFc/47/wCSe+Jf+wVdf+imroK5/wAd/wDJPfEv/YKuv/RTUAHgT/knvhr/ALBVr/6KWugrn/An/JPfDX/YKtf/AEUtdBQAUUUUAFFFFABRRRQAUUUUAFFFFABRRRQAUUUUAFFFFABRRRQAUUUUAFFFFABRRRQAUUUUAFFFFABRRRQAUUUUAFFFFABRRRQAUUUUAFFFFABRRRQAUUUUAFFFFABRRRQAUUVBc3MFnA01xKkUajJZjgCgCemkgDJIA9TXLnxHqerkx6BpjNHnH227BjiHuB1b8KfF4XuLsBtb1e5vGPWGI+VF9MDkj8aAL194n0jT3Mct2ry5x5UQ3tn6CqX9sa7qPGm6MbeM/wDLe+bZj32jkitex0mw0xNtlZww9sovJ+p6mrjnajN3AzQBzn9i6/eD/TtfMIPWOzhCj8GPNOj8FaRuDXa3F+w6Ndzs+Pw4FVtAvvFGrW1rfzHTYbWYlmi2v5irkjHpnitBU8Tf2jlptM+xb/uhX8zZ/LNAGla6bY2IAtbOCDAx+7jCn9Kt1hKnib+0ctNpn2Lf90K/mbP5ZoEfif8AtHLTaZ9i8zoFfzNn8s0AbtFYQj8T/wBo5M2mfYvM6BX8zZ/LNATxN/aWTNpn2LzPu7X8zZn8s0AbtFYWzxN/aWTNpn2LzPu7X8zZn8s0bPE39pZ87TPsXmfd2v5mzP5ZoA3aKwvL8Tf2lnztM+w+Z93a/mbM/lmjZ4m/tLIm0z7F5n3dr+Zsz+WaAN2isIp4m/tLIm0z7F5n3dr+Zsz+WaDH4n/tHIm0z7F5nQq/mbP5ZoA3aKwjH4n/ALRyJtM+xeZ0Kv5mz+WaGTxP/aOVm0z7F5nQq/mbP5ZoA3aKwmTxN/aOVm0z7Fv+6VfzNn8s0Mnib+0crNpn2Lf90q/mbP5ZoA3aKwnj8Tf2jlJtM+xb/ulX37f5ZoePxN/aOUm0z7Fv+6Vfft/lmgDdorCePxN/aOUm0z7Fv+6Vfft/lmk83xDDrsKSCwk02VmB2FhKgAyOvBoA0NT02PU7byZJ7iAA5328mxvzqgvhmFdPez/tHUyjPv8AMNyd49gcdK3aKAMJfDMK2D2f9o6mUZw/mG5O8ewOOlC+GYVsHs/7R1Mo77/MNyd49gcdK3aKAMJPDMKWD2f9o6mVdw/mG5O8ewOOlCeGYUsHs/7R1Mq7h/MNyd49gcdK3aKAOK8MaRJfeG5YrzUdTLtdSDzDOQ4CsQADjpithPDMKafJZjUdTKOwbzDckuPYHHSjwrdXV5o7S3hJl+0TLyuPlDkD9K3aAMJPDMKafJZjUdTKuwYyG5JcewOOlCeGYUsJLMajqZV2DGQ3JLj2Bx0rdooAwU8NQx2EloNR1Mq7BjIbklx9DjpQnhWz+xi1mub65jEyzDz5yx3Kcjn0rerI8QaodI0t5owHuZCIreP+9IeBQBT1u8n1C7Gh6dIUlcZup1/5Yx+n+8e1bNlYwafZx2ltGEijGAB/P61U0LSv7LsAJG8y7l/eXEp6u561q0AFFFFABRWfrMt1Do15JYjN0sTGIAZ+btxWZpWma2iRT3uvSTb4gWiNsq7WI9QexoA6OisKz0nWILkyXGvyXEZBAjNsq4PY5Bos9J1eC5Mlxr8lxGQQIzbKuPQ5BoA3aKwrPSNXguTJca+9xGQR5ZtlXHpyD2os9J1eC6Mk+vyXEeCPLNsq/TkGgDdorCs9J1iC6Mk+vyXEWD+6Nsq/TkGiz0nWILoyT6/JcRYP7o2yr9OQaAN2isKz0nWILrzZ9fkuIsH90bZV+nINFppOsQXRln1+S4i5/dG2VfpyDQBu0VhWmk6xBd+bPr8lxFz+6Nsq/TkGi00nV4LvzZ/EElxFz+6Nsqj8waAN2isK00nWILvzZ9fkuIuf3RtlX6cg0Wmk6xBd+bPr8k8XP7o2yr9OQaAN2isK00nWILzzZ9fkni5/dG2VR7cg0Wmk6vBeebPr8k8XP7o2yqPzBoA3aKwrTSNXgvPNn1+SeHn9ybZVH5g0Wmk6vBeCWfX5J4cn9ybZVH5g0AbtFYVrpOrw3oln1+SeHJ/cm2VR+YNFrpOsQ3omn8QSTw5P7k2yqPzBoA3aK57ToNSs9eeK71lL2B4GdYGiCOh3DkY6jBx+VdDQAUUUUAFFFFABRRRQBWvbK31GzltLuNZYJV2srd6xNInuNHvF0PUZmlRsmxuX6yKP4GP94fqK6Ss7V9Kh1ewa2lJRgQ8cq8NG46MD6igDRorD0LVpboy6dfgJqdphZl6CRe0i+x/Q8VuUAFFFFABXP+O/+Se+Jf8AsFXX/opq6Cuf8d/8k98S/wDYKuv/AEU1AB4E/wCSe+Gv+wVa/wDopa6Cuf8AAn/JPfDX/YKtf/RS10FABRRRQAUUUUAFFFFABRRRQAUUUUAFFFFABRRRQAUUUUAFFFFABRRRQAUUUUAFFFFABRRRQAUUUUAFFFFABRRRQAUUUUAFFFFABRRRQAUUUUAFFFFABRRRQAUUUUAFFFZ2r6nFpGmS3kgLbcBVHVmJwAPqaAKus+II9MaO1gia71Gb/U20fU+59F9zVa08Oy3dwl/r8/2u4GGS2XiCE+w/iPuas6BpDWUcl7eBX1K7O+4k7j0QewrboAQAAYAwBS0UUAFMkJEbEdQDT6ZISI2I6gGgDH8JXVze+FrG4vCTcOhLkrjnce1WrvWrCymlinnCyRIsjrj7qs20E/jVLwvc3l74Ss7i4Yfa5I2JLLgZ3HGR+VcPc2WqRz6/5PiBbkLaNPeyG1Vl8zB2xA54AA6UAd9rviTS/DkMc2qXPkRyHarFSQT+FNtvFGk3c1vFHc/vLgZiDKRu4z/KvNfFOjzXth4UsLu8kuY5InmZ5OGA2AgcdcE9TU3gW7SbR9ITU7+R5bRkS0tB1kJVh35PfmgD0+TV9PjvIbVrqLzpgzIu7qB1pz6nZJc29u1xH5txu8pc/e2jLfkDXkOqNPAmvXdzHp1jfpLDHFC0nzRREqcD1Jycmuh1xNON54ckuIlm09JLoXLWG5o1ygGWI5xQB6QGBAwQc9OetIXUAEsAD05rzu1muLG70i/kFwNJiu7tYcBj+6dQIgR1OTnGaqaLt+x+H5PEEdz9ha2fylk35W5MxI3Y5ztx14oA9Htb+2vTN9nmWTyJmgkx/C69V+vNTtLGiszuqhBliT0HvXn2kQXlp4g1C8vEmbSxqtxsRAR5ch24kYfxKeg7Csm207Uby71Gz1CeFr2a1ulntlEu+4yD5YJPyjHGMUAesI6yorowZGGQwOQRVS01axv57qG2uY5ZLVgswU/cJGRmqPhKOKHwlpUUKGNEtUUqc5UgYI5981zWnX1nf+J/FVjZMUkvLdI4D5TIpZY2VucY4JoA65te05dSSwNzH5zxGUfNxtBx1qzPfW1v5PmSqPOcJH/tE15knh/VIdYsbB7DS2uF0lo8lm5IIGc+uaq+LbSawgitJpIhd2ukxrG5lIKSeaBuQZ5NAHqUerWMqXbJcIRaMyzc/dKjJ/KrFtcQ3dtFcQSB4pUDow7qeQa82fRZdHvEtpQstxJb3jeehO+4Bjzll9ck1peFIdTs7CKK5GdQms4/sksgYQhQo+QgdCO/rQB3vHrVW51Gys2C3N1DCxGQHcDNc9fW+vrpbXt29s13ZSCeFbPd86j76nPXIzXG69ZPqqQag9vNJf3jebcwbNxissj5cHoehGOc5oA9RXUrZ9S+wK+Z/K83A6bc4rP1ezuLjX9Cnix5VvNK0vzY4KEDjvzXOeH9FitvGQkmUG4Wz3hkdsEFzg4J447V0er2dxca/oU8WPKt5pWl+bHBQgcd+aAN2iiigAooooAKKKKAMLwrdXV5ozS3ZJl+0SryuPlDkD9K3awvCt3c3ujtLdkmX7RMvK44DkD9K3aACiiigArlrcHXfFc1y4zZ6WfKhB6NKfvN+A4rb1a+XTdKurxzxFGW/HtVPwvZNYaBbpKP30oM0v8AvMcn+dAG1RRRQAUUUUAZfiEXDeHr8Wm/7QYW8vZ97PtVrT/MGnWokz5nkpu3dc4Gaq+IRcHw/fi03/aDC3l7PvZ9qCl23h+NIplgujbqDLKM7DgZJoAkOs2IuTb+epkEohIHZyMgVS1jxbo+g3cVtqNz5Ms3+rG0ndXn0tlqMejX6wa809jHdxqJjbLulkZhuYNnse9Z3xD0iW51qRJ7ppnstPDLMchmfPXA6UAetWniDTLy5NtFcjzgu8qylePXmpl1jT3vHtVuojMiB2G7oDXCaBdreWsFxcTvqGqfZ2jjscgDaAOvp9TWBbs0C2jzSaVDdz6kVuleQ8AdFP8AsigD15dRs3vDaLOhnEYl25/hzjP51a3D1FebaoulDxRFJfwyPZNpwWKS23mIPv4GV/Sm3NxqGn2ryXyXbSXGktDEEVmLSbyQMDoduKAPSWkRBlmA4z1qG0vLe/tkubaRZIpM7WHfBwf5VxWnLCurQDV1mNybWH7AW34H7v5unGc+tU/DkGq2elg3CymWaCRLBgCFibc3ysPU+poA9FknhijLySoqDgsWAAqO9vYLGzkurhysMY3MwBPH4V5Kulz32harb3LxXEixxvNawiXIkDDc5Ld+vA4r1G+1G30rQ3vgjtBFEGVUUk4xxx1oAXTtZ0/VbRrm0uVeJDhyeNp9welNh1zTp7+ezS5j82EKWGRjnpiuVjtU8R+HNYfTblJdQvWQykhkRSOi8jOMZ5rJOganea1q9rFY6ZHIY4ssrMNvXke9AHpUl7bxXMdu8qiWRSyr7DrVYa3px01tQ+1J9lXOXz0wcfzrzXXrSW58TSW0VxHBdNeWsKz+YTIgIwcLnkVJfaVNYWOq6fDDGlyunquISWDESDDEepHJoA9XyOmaMjOM81ymnJq8Frd2kZj/ALY8zzHmudxilXPBXHQY4xTNUfWdNtLfWLlY57q3Zklis9xV4246HuDz+FAHRy6lZQziCS7hSYkAIzgHJ6cUtvqFvdXVzbRNmS3IEg9MjIry6/0QtrNlhHllZlk1STZuCTE5jGeowTg47Cum8GaTFY6vqzsmLlPKSTbIWXO05xmgDbNoD4yjvPOjyLB4/Kz8xy6Hd9OP1rbrENoD4yjvPOjyLB4/Kz83Loc/Tj9a26ACiiigAooooAKKKKACiiigDB8QWEuIdXsEzqFjllUcedH/ABRn6jp7gVqWF7BqNlDd2zbopkDKf6H3q1XNW5/sDxB9jPGn6m7Pb+kc+Msn0YAsPcH1oA6WiiigArn/AB3/AMk98S/9gq6/9FNXQVz/AI7/AOSe+Jf+wVdf+imoAPAn/JPfDX/YKtf/AEUtdBXP+BP+Se+Gv+wVa/8Aopa6CgAooooAKKKKACiiigAooooAKKKKACiiigAooooAKKKKACiiigAooooAKKKKACiiigAooooAKKKKACiiigAooooAKKKKACiiigAooooAKKKKACiiigAooooAKSs7WdWt9E017+5WV0VlXbEm5mJOAAPqayf+Ey/6l/W//ANqBNpbnRToZYHjDshZSAy9R718meMvEvjbQ/E11o19rl1L9mnDRbgMMM5VulfSP/CY/wDUv63/AOAbVwXizRrHxR4v0fW5NA1kC0b/AEhPsZ/eqOVH507MXNHudt8OotaTwha3Gv3ktzfXI85vMAGxT0H5V11csvjEAAL4f1sAcACzPFL/AMJn/wBQDW//AADaizDmj3OoorkYvHlvPPPBFoutPLAQsqizbKEjIz+FTf8ACY/9S/rf/gG1FmHNHudRTHJEbEdQDXNf8Jj/ANS/rf8A4BtQfGQ/6AGt/wDgG1FmHNHuXfCV1cX3haxuLs5nkQl/l2/xHtVv+xtOFjJZiziFtISzxgYDE8kn1ri471Y78XYtfF+Q+/yfK/d/TG3pSrfKuo/bPs3jAnfv8oxny/pjHSizDmj3O6aytWeN2t4y0S7YyVHyj0FNXTbGORJEs7dZIxhHES5UexxxXA3Os22n3LapdJ4tjjWQOUeM+UCTgDG3pkgVML5V1D7Z9l8YFvM3+SYz5fXpjHSizDmj3Ozl0fTJp3nm0+1llkxueSJWJ/E1Zt7a3tI/Lt4IoU67Y0CjP0FcGL5RqH2z7N4vLeZv8kxny/pjb0oF8o1D7Z9l8YZ8zf5PlHy/pjHSizDmj3PQ6K88+3INR+2fZvGG7zN/k+WfL69MY6Ufbl/tH7b9m8X7vM8zyfLPl9emNvSizDmj3PQ6K88+3L/aP237N4v3eZ5nk+WfL69MbelH25f7Q+2/ZvF+7zN/k+WfL69MbelFmHNHueiUV5idfsP7bmfHizz4XWSS28s7F3cgEbehx60863aHUPtmzxaG8zf5PlHy/pjb0pFHoZtIGvFuzGpuFQxiTuFJzioLrSdOvpfOu7OCaTaE3SICQM5x+dcGdbtDqH2zZ4uDeZv8kRny/pjb0obW7RtQ+2bPFwbzN/lCM+X9MbelAHoX2K2+2C88lPtATYJMchfSrNeatrdo2ofbNni4Nv3+UIz5f0xt6U19dszqIvCvi1SZNwhEZEefTG3p7UAemUwRoHLhVDtwWxya83Ou2cmpG7C+LciTcYVjPlg+mNvT2obXLSS/+2BPFwO/f5Sxny/pjb0oA9DS0gju5LpIlE8oAd+5A6CsrWLO4uNf0KeL/VW80rS/NjgoQOO/NcjJrlm1+bwp4tU795iEZEY9sbelOXWtO/tuPVHsvFEssbM0cTwsY0LDBwuKAPSKK4u3+I1hdwia30rV5IySAwtG6g4P61N/wn1t/wBAbWP/AADaud4qhF2c1f1RapzfQ63P0o/KuR/4T62/6Aus/wDgG1QXnxL03T7c3F3purQwghS72jAZPShYqhJ2U194eyn2Z2uaM155/wALj8Nf88tQ/wDAZqP+Fx+G/wDnlqH/AIDNWntYd0b/AFHE/wAj+5nT+Fbu5vdHMt2cyi4lX7uOA5A/StyvLNF+L+kRWBXUUvTP5rkFbY42ljt6e2K0P+Fx+G/+eWof+AzUe1h3QfUcT/z7f3M9DFBwK4fTvidpesSSpp2n6tctEAXEdox256ZrQ/4TH/qAa3j/AK82rRaq6OWacJOM9Gu54n8ZdR8VeG/E7wxazd/2VeASwoSCoIPK9Oxrv/grL4m1PRZtZ13U57iCY7LaKTHAHVuBTPiHb2/jnR4LR9D1qKaGZXWU2RyFz8w/Kum0zxDbaRpltYWvh3W0gt4wiD7Gegp2ZPNHudnRXL/8Jn/1ANb/APANqjuPHMNrbyXE+h61HFGu53Nm2AKLMOaPc6yiuWTxosiK6aDrZVgCCLNuRS/8Jj/1L+t/+AbUWYc0e5q+IRcHw/fi03/aPJby9n3s+1SWipPpMEFzhy0CrKrHk/KM5rFk8XLLGyP4f1sqwwR9kbpWPaTaLY3DT23hXXElIIJ8mU8HrwWosw5o9zsTpmmvbw2/2eHyYCGjjHCqR3xUr2tlNM8jwwySOu1iQCSPSuJtJtEsZzPbeFNdSUggnyZTwevVqLSbRbG4Nxb+FNdSUggt5Mp4PXgtRZhzR7nbRWthFOZYbe3SUjBdEUMR9RzVYaPoxZmOn2TsxLMWiViT9SK4yz1Hw7Zao6W3hnW0vRHvZfJlJ2njOC2KmtJtEsbk3Fv4U11JSCC3kynr14LUWYc0e53cK28SCKARIi9ETAA/AVIJEJwHUn61wFpNotjcm4t/CmupKQRu8mU9evBai0m0WxuTcW/hTXUlII3eTKevXgtRZhzR7nfiRCcB1J+tAkQnAdSfY1wFpNoljdG4t/CuuJNg/N5Mp69eC1FpNoljdfabfwprqS8/N5Mp69eC2KLMOaPc78SITgOpP1oEiE4DqT9a4C0m0Syu/tNv4U11Jufm8mU9evBbFMivNB0uV79PC+uRMiszSGGUgDvwWxRZhzR7noQkQnAdSfTNQxw2yXUk8axieUAOwPLAdK88sNY8MwSpfWfhzWg7ruWQQykEMOuC2O9SWuqeG7K7+1W/hrWkm5+byZT168FsUijuDpumSXf2k2ts1zuD+YVBbI6HPWpobe0huZZ4kjWaX77Dq2K4G11Tw3ZXf2q38Na0k3PzeTKevXgtii11Tw3ZXf2q38Na0k3PzeTKevXgtigD0USITgOpPpmgSITgOpPpmvObXVPDdld/arfwzrSTc/N5Mp69eC2KS21fwzZXn2mDw5rKTjJ3eVKcZ68FsUAeip5Kk7NgLHJ245NRW9vaWzy+QkaNK+99p5ZvU15/a6t4ZtLoXtv4c1pZeSH8qUjn6tiltdU8N2d4LuDwzraTgk7vJlPXrwWxQB1v2ZW8ZR3gniOLB4vKB+bl0Ofpx+tbded6drvh7Srx7uy8N6vHcSqUaT7NIxIzkjknuK0ZviPYWwQzaTrCB3Ea5tG5YnAFJtJXYHZUVyP/AAn1t/0BtZ/8A2o/4T62/wCgNrP/AIBtXP8AW8P/ADr7y/Zz7M64H2xR9K5H/hPbb/oDaz/4BtVK8+Kui6bIkd7ZapA8gLIr2rDIGMn9RVRxNGTtGab9Rxo1JOyi2/Q7ujNeef8AC4/DX/PLUP8AwGaj/hcfhv8A55ah/wCAzVftYd0bfUcT/wA+39zPQ80Zrzz/AIXH4b/55ah/4DNR/wALj8N/88tQ/wDAZqPaw7oPqOJ/59v7meh/lXhPxg8ceJvDmsx6eLW2Fk7pc2VyASwZCDj6gjn2Neg2nxJ06+tlubXTNXmgckK6WjYODg/qDXLfEe4svG/haWyTRtWW+iPm2kjWhGHHYn0PSs3iqEXZzX3ow9nPsyT4QeMvFHje41C91V7cadbKI0WOLBaQ89c9gP1FetV5T8PtTtPB3g6y0o6Nq/2kDzLlltCQ0jdefbgfhXST/ESxtYJJ59K1eOGNSzu1o2FA6k0LF0G7Ka+9B7OfZnaVz/jv/knviX/sFXX/AKKat8HIBHQ1z/jv/knnib/sFXX/AKKauggXwJ/yT3w1/wBgq1/9FLXQVz/gT/knvhr/ALBVr/6KWugoAKKKKACiiigAooooAKKKKACiiigAooooAKKKKACiiigAooooAKKKKACsPXLmf7TY6faXrWdzds+yUQiQYUAkEEj1rcrE1P7H/wAJFo3n+Z9o/feRt6dF3Z/SgBo0zW/sBg/t4fad2fP+yL09Nu79aBpmt/YDB/b3+k7s+f8AZF6em3d+tSaprTaZOP8ARzPAsZeXyTukTH+x1IrL0DxcdUmmtZbG7E0ZLeZ9nZU2EZUknoSKANAaZrf2AwHXs3O7In+yL09Nu79aBpmt/YDCdeBuN+RcfZF4Hpt3VyrfELUAQRZ2+1o3kA+fOFbGOldlba1bTYSQmKUW4uGDDjaRyQe+KAK40zWxYGE69m4LZFx9kXgem3dSjTNbFg0B14G4L5E/2ReB6bd1QReMdOmuIIhDeLHO4jSd4GEZY9Bu96bpHiyC9tQ10hin8mWcqgLDYjEE59eOlAFkaZrYsGgOvA3BfIn+yLwPTbuoXTNbFg0J17NwWyLj7IvA9Nu6o5fFumRfZj++ZJkWQusZIiVuhf8Au596z9d8ax6PdzQjynUKoRsnIkJ6EY9PSgDUXTNbFg0J14G4LZE/2ReB6bd1C6ZrYsGgOvA3BbIn+yLwPTbuqjqfjC0TR7ubTXNzdQIpZI0LbM9yPSqmneMLu4vZYJ7ZIoxcKivKdpKkDovUmgDZXTNbFg0B17NwWyJ/si8D027qRdM1sWLwnXs3BYET/ZF4Hpt3VQ1DxgYL2S3tbCaRYJ/KmlbCr0yQuTyauWniq0uZTFNBcWziRYyJUwMsOOfQ0APXTNbFi8J17dcFgRP9kX5R6bd1C6ZrYsXhbXg1wWBWf7Io2j027qZf+K7GyuZoPJu7h4P9Z9nhZwvrkj0rL1LxwbVb2a1tftNvBbxToyZLMHz29sUAa66Zra2Lwtr264LArP8AZFG0em3dzQuma2tjJC2vbrhmBWf7Io2j027ua5XQvicupRWkk9lIokQGVYkLMjM2F/A1e1nxtdadqd1aRWLfuxEVMqkfeJB6UAbiaZra2MkLa8GuGYFZ/sijaPTbu5oTTNbWxkhbXg1wzArP9kUbR6bd3NZFn4zuGsLq6ubPeqsqW/kKxMrHjGCM9aig+IEU00ZS1llhiiP20oh3Qvuxgj060Abi6Zra2MkLa9uuGYFZ/sijaPTbu5oTTNbWxkhfXt1wzArP9kUbR6bd3NYOt+Mr2x1K5ht7OVo40hZd0RGQzYY59MVeuvGMdl4fv9SuBArwNsjiWTdlj0BI4yfagDQTTdbSxkhfXg1wzApP9kUbR6bd3NUNTfXNE0cTNqovZzdRLk2oXCFgGGAT2PWqyePbUnSxKY4WuWImUkttGM5BHvWt4mv5rbQ47myOWeeEA7c/KzgHj6UAVvHn/It/9vUH/owVHrOsPol/FNcso0+WNlyRysg5HPv0qTx5/wAi1/29Qf8Aoxav3tja6hD5F5Ak0W4NtccZByDWkNjkxDV1c4qLxDramS6uJIlW3nhje0EXMglxjnPGAR+VT2GrX91KunW80dpJNeXX7/y94VY2HGCepzXTz6Lp8+oR38tojXUfCyHPH4dD+NQzaJpFzE1nJaxkeYZyisVIZjy3BzyaqzMeePYzfBxmutBvkmuWkkN9cJ5qN/tdvSr2h6PPpPn+dezXHmNuAd8hfXr3zV+ysLTTLf7PZQJBDuL7E6ZPU1bppESlduxz2hf8jN4l/wCu8P8A6KFZ2q+JL2z/ALcCSxKbS6tooAy9n27vr1NaGhf8jN4l/wCu8P8A6LFX7vQNJ1C7Fzd2MUsox8zZ7HIOOmQR1pdCm0palnUrprDS7u7VN7QRNIF9cDOK4/U21d9O0GX+1EkubvUYWRhHtWNWRiVIB+b8a6ZNMjttSku5NQu5PPJUW80oMWT2C4/rRBoGlWgUQ2aqqTCdQWYhZB0IyeOp9qGmwjJI5h/EOo/2V5LX+29S8ntg0Nr5kk4j7hM4HHXml0PXda8QXenIl1DaxSact1N+53MW80rgc8ZA/Culn8PaTcx7JbJCPOafgkHe33jkHPPepbHRdN0yTfZWkcLbCmVzwpO7H0zzRZj5420RmeOf+RQu/wDfi/8ARq10h6muc8c/8ihd/wC/D/6NWujPU0+pD+FHGaz4kvbD/hItkkSmyktVt9y/89Mbvr1NdVqFybLTrq6VC5gieQIP4toJx+lU73QNK1K48+8soppcAZbPODkZGeSCODT4tJEepy3pvr2QSZzbySAxDPouP60alNpnK6nJq8ui6HdHU0e4vNTtXjxHsWIMCSpwfmH19KVtf1Eac9vJqGL6PUJ7RXhtfMknEYBysecdDzzXTW/h/SrVdsNmqgTi4UbmIWQZwwBPGMnpxUd7o2iNCftdtCiNcGfcXKfvW6nIIOT+tKzK547WOb0PX9b8Q3Glxx3UNqk2nG6nPk7mLCYpgDPGQOfTNd5WZZaTpWl3Kizt4YJijKoU87S24gDPTPNXo54pXkSORGaM7XCnJU+h9KaIm09kcW4z4614HoVtP/QGrnNL1jVJP7NuLy5gaG9W5+QR7RH5WSGJ+g5FdFISPHGvkddlp/6A1Nh0+wEVuIYIjHBv8nbyF3ZDY+vOaxe56FP4Ecm3ibUo4NRMU/nFbEXVvLLbeWuTIE+Xn5l561au9T1yxOpiS7t5BpywyuRDjzPM/g68AevWttfDejoCFsI8FSp+ZjwTnHXpkDirc2n2k/2jzbdH+0hRNn+ML93P0pFmCdZ1OXxFLbwW87WsN19ncCDKbccyGTtj0rkXudQ/4SK+NukxnhY7YyxLBMZDgZr0eXT9PuNQW4eNTdx/MGVyGHoSAcH8RVQaHplvqSXUgUyvgIJD8xcck56k+1AHM2ur31roM7xH97c3LeZdSHhDtXt6ntT/AA3rFwL77LaRj7OWO+CaQs6nu4PofQ108WiWluPmlkZTM05V2G0uehI9BxgVHY6ZY4hniuzNOjOTOjAF8nkEDqPagDkG1HVLyR4UklmjvIjLdMsW0wqkm35OeeK7Pw5cz3NvN585mMdwyK5XaSoxjIqtY6XY6NeeadQlaSKAx7ZXGEVn3ZA7c1qaXYLp6MiytK0kpkd26kmgCj4T/wCQBH/11l/9GNW3WJ4T/wCQBF/11l/9GNW3X5Tj/wDeqnq/zPoKH8OPoFct8Qf+RQl/67xf+hV1Nct8Qf8AkUJf+u8X/oVPAf71T9Ubw+Jeq/M8muHkjuYyhO3aSR681Ek7tdAByVMhGPbFXTEpkDnOQCPwqIWcSggZGTuznkH2r7aM42sz7Sph6zlzRel77kPnSfawm47fMIx7YqdGJvJFJO0KCB6Uhs4iFG5gwOd2eSaBZoDuEkgJHJ3f/WocoMcKdeD1V9b7+Wx6h8G/+QjrX+5F/Wuuv/EF9ZS3Wm/I2oGUfZvl4aIjO7HtgiuQ+DfGo61/uRf1r1N7G0kvo717dGuY0KJKRyFPUV7uE/gxPyjP2lmVW/c4aXxDqf8AZUr3M0M4u7B7pEEe3ySpA2nByf0qTWtS1G90TV2gvUtIbKBUMZTmQlQchs5HXiuqj8PaTELoJYxgXQxMMk7h6deB9KjudA0XVGEs9nFPhfLzuOCB2IBwce9dFmeTzx7Bd6fJqugQW6XMsDNGhLo2CeBnNVNZtJLHwJf28s7zulswMjnJNdCiLGiogwqjAHoKyPFf/Ip6p/17tTsRF62Lls5j0SF1+8tsCPqFrA0fX7u9vNDhlliJu7SSadVXncDwR6V0WngHTLUEZBhT/wBBFU4/DmlQTPcW1qsFw6svnRkh1DdcZ6UDTWtxniG/urWOzgtJFhlu5xD5zLuEfGc471zWqzaxY67ey2+pKTa6YksjPHkSkMei5wufWumg0OyaxmsLm4uNQjLZf7TLuZT9QBip10bTljaMWqlXhEDbiSWjH8JJNK1xqSWhyer+K761u7eS2ud65hE1ulsWRN+PvyZ+U88VteHbrVNSuLy6uryI20VzLBHAkWCQDwS2etXLjwzot3L5s+nxu+0JnLAYHTgHHHrV+0sraxiMVrEsSMxcgdyeposwclayRjQ/8lAuv+wen/odb0rFIXYdQpI/KsGH/koF1/2D0/8AQ66DGeKaIlujk9I8QXl5c6DFLLEWvIZnnULg/KTjHpWr4hvrmzt7aK0dYpbqdYBMy7hHn+LHenR+HdKguXube0WG5YMBNGTuXd1xngUQ6BbLYS2V3PdX8Mpyftcm4j6EAYo1KvG9zmdUk1iz16drfU1322l+bK7RZEhD9lzgZ9aZrHiy+tTbXFtc7sRwvNbx2xdV34+++fl68V18ejafGhRbVcGHyDliSY852kk5qrceH9BubpEuLSBp/KCKhcglF6cA849aVmUpR6or6Dc6pqN9fXFxeRfZILqSCOBIuSABgls+9aOvf8gDUP8Ar3f+VSWcNjYxSpaCONAxeQK2cNjkn8qg1mWObw1fSROro1s5DKcg8Gn0JveRwt1eXFh4KhubUoJ0tothcZGSAOaryapfWg1C2ur6PzYJIljlSDJO8H5QueTxxWrZw28/h2zjulRoTbxbg5wPuiprjS7G6E3n2yP5xUyE5BYr0OR6Vgemcxa61rOoCztoZ0hle5mhlkmgw21E3A7M8H2qey1vVAtncXTxSR3KTgRImCDGG5z77elb1to2nWcolt7RI3BJDAngkYJ5PpUqafZxCHZboog3GP8A2d2d2Prk0Actb6tq1/pV289tc+VJb+bGzQeVhj/AOfm47+1ctp15qKWDSxGXyZTtlkDFtpzyhz0r0mPSNM/fNbx7fN+WQxytg+2M4H4VWg0DTIorm0iKrLIDvZAAyqenH8jQBzWqatOlhaWckBWzjt0ZkVyHn+XsR0Aqxa6/qJ8PXTq6FYlAjmHzOuTjaw7kDvW9daVZw2jq920IEaxCR2B2IOMDPTPrTptBsri3uIYZniScLvEbDAI/iA7GgDk4rvU2lf8AfzJbWMksdvcCLl32g4dc8dTz7iuk1OVptK0aVzl3u7VmPuWFSQafaCyubGHUZGN3Kzs7MGcnADD8hRrcSwWelwpnZHfWyrn0DgVz4r+BP0f5F0/jXqb9FFFfkzep9ELXm3xJ/wCQxpv/AF7yf+hLXpNebfEn/kMab/17yf8AoS16mUf70vR/kzry/wD3mHqef+fKtnIzucndsP0JGKmeRxBcnccqcA+nFSvaRPB5LA7ck9eck5pHtUd2YlgG+8Aev1r6/nhc+p+r10rXvolv11uEbsRcfMThjj2GBToCWt426kqDn1OKabVd7P5jjdyQD1OKWGBYFwHcjGACcgCpbi1obU4VYtcy01693oeseAf+RMsv96X/ANGtXS1zXgH/AJEyy/3pf/RrV0tfEY5/7TU/xP8AM+Hn8TFrI8Uf8ipq/wD16Sf+gmtesjxR/wAipq//AF6Sf+gmpwn8eHqvzMqnws9Pj/1Sf7orC8d/8k98S/8AYKuv/RTVuxf6pP8AdFYXjv8A5J74l/7BV1/6Kav1hbHzoeBP+Se+Gv8AsFWv/opa6Cuf8Cf8k98Nf9gq1/8ARS10FMAooooAKKKKACiiigAooooAKKKKACiiigAooooAKKKKACiiigAooooAKxNU+x/8JFo3n+Z9o/feRt6dF3Z/StusTVBZ/wDCRaN55k+0fvvI29Oi7s/pQBl+J9P1WfU7W+0jTraSa3Vw0kzAeYGAGPU4x0NU/DWkX+gfahDa3TrOhkkRwoHm/wCxzwPau7ooA8mm8MazJq8dyNLlEIiZSu1cZJz93zMYrrb3Q7vXNOsWydPuIj5coYDLxfxLwTjOK6yqOrSvBo99NExWRLeRlYdiFJBoA5G/8Fajc6yl3HdW7RQXCTW/mvJmNV42bR8uPfrTx4O1O2tUWzvbYXBt5baRpFYqFdi2R781Vbx61gLC1cxSzC3hecSFvMk34+4AME/XFaH/AAlepf2jKDYwDT478WRcyHzGJHBAxj65oAq3HgJmktJhFZ3cqQxQzC4llRfk7qF6/Q1pz6de+IL4rfwNaaXa5EUat88r44fjoB2rI1vWtb07WoonikSC5uAyq1xGNqr15zwD70upeNZoLuxlkt57ZIruWCaFSr+aQgI5GeMnrQAlxoV1e6Zqpms7qeSZ44YVkbazovAZuenWqh8NaoviJpxbyALeRtEyr8qxADIDbuPpitjXfGcuix2ccy2kd1cRGciR22bR/CCAct+lW08Wr9hvLi4tzE0cSTQpnl1YfL+OaAM6bwfLrF9fvcusCfbXkj8yFZQ6soGQD0+tWLTQJLhNWt2SSKJlSO3lkXB3IOGA+tcMPE/i1NVuxO+63eNVQxNkRknlm4yMDrXT6j4k1Y+G7G6aS2gmlvFjURuxLqGx6c5oAs3ngnULjTbW2+3RTEh/tgkZ0WV2/jG3kkdgeKpXXg/VLXSJI4pjLdPbxW8RtcDaUz8xLcYwaqaHrGs32sQQve3XEpd+Cysm4jGNvH1zWX4h8VasmuRJFrkPlpeMqiF1wAB0b/69AF/SvDWvW4s55tLXzLKUm5LSKGuxngLgdB15q14j8Oarfaxez2Fg5WXyiZZmDH5eSAD9anvvE91F4EguZLh728eX/W2a5U4b7pI4B7Vp+F/EM2pXDS3b3JlmOwQJAwigx2LEcn1NAGdJ4c1C30ZrWLTmcLdRPGiMiuQDlssOPzplt4Wlt/DUjDTZY9UmnlBVHByrPnLnuMd6yvEWtayuszgX9ytulyyrHbyAMAq5HGM4zXb+CpL+50GG91Cd5ZLhQ4DOG2/kKAMDWvDd9czanLZ2ciu6W8fml8mQBsvtGemPpmpLPwpNP4b1ixntT+8kL2iONmDtxwMnHNeg0UAcbYaJf2cfh+OWPLWzkzbH3Kny461q+Kry4sdHWa1P7w3EK/d3cFwD+lbtYXiq8uLHR1mtseYbiFOV3cFwD+lAFTx3/wAi2P8Ar6g/9GCn6813FpzXVm7CS3YSlB/Go+8v5VW+IbyJ4SkeIKZFuISoc8Z3jGcdqy21jxUcg2+jEf8AXWX/AOJrmrY/D4VpVpWvsZzw1Ss04K9jK1HXp79ReQ3l7HDdlhZQwSJEGVByxdxgc9u9UIdZvZohqa3BF2+nWvmyIBkfvyGz+Gc1tyXevTRJFLpnh544zlEYuQp9hs4pUvNfjVlTTdAVXBVgC4BHofkrD+28D/z8Q1ga6+z+RW1DxDfzSasNOne4txqEUAaKRU8pDHltrtwOe59a6nwxLfTaHG1+ytKHYKRKshKZ+Xcy8E464rn1u9fSBoF0zw+sLjDRguFYe42YNLb6h4is4RDbWGgwRDkJE8iqPwCU1neB/wCfiJlgK7VlE19C/wCRm8S/9d4f/RYroq8+spfE9lqGoXix6QzXro7KZJPl2rt4+Wr/APbXiv8A599G/wC/sv8A8TQs7wH/AD8RMsvxDfwl7xXxc+HyBkjVI8f98tXL2eseIJLfUbuZ3h/0O4eRXuY2MbqDs2Rj5l981rPqnieQqXtNEYody7pJDtPqPk61CbjXDcPcHSvD3nupV5Pn3MD1BOzJFJ53gf8An4i44GulZxLvhqe+j1lbS51Ce7WbS4btjLjiQnB24HA9q6+uIXU/EqMHWy0NWChAweQHaO33OntUv9s+Kv8An30b/v7L/wDE01neA/5+IiWX4hu/KX/HX/Io3f8Avw/+jVp3i2a7SLSobO7ktWudSiheRACdh3ZHP0rn9Zm8T6xpctjJHo8ayFSWWSQkbWDf3farcmq+J5SpktNEba25d0kh2n1HydaP7bwH/PxFLAYhJe6UJNWuU01rGW/vnmTUri1haORI3kWPBG+RhtGM+nNUrPVtX1eygnbVp4fI0OS7lSHbl5kkYDJx7DPrWvLd69PGY5tM8PSIX8wq5cjd/ewU6+9Kl3r8YYR6boCBgVbaXGQeoPyd6X9tYH/n4ivqVf8Al/IqNq+t2FvO0V1Je3M+ix34RgAFlZwp2DsME8HPSog17dWunxagRNbDXLXyRNcR3D4IYncU469K0xqPiRWDCx0IME8sEPJnb/d+509qz7m21e5gjiTT9EtRHcJcq1rI8Z8xehOE56mj+2sD/wA/ECwVf+X8jZ1mTT7fx/4emaWGO5ZbhZC0mDjyxtGM1a0WNI/GnifYiruNqzbRjJMZyT71izyazdXAuLjR/Dk04xiSQOzcdOSmabaS+IrK/vr2OHS2nvWVpS9xKQNowAo2cACn/beB/wCfiJ+oV7W5Sw3/ACPeu/7tp/6A1cNBd6jHoul21lvSMwTSCRZ0iHmCZgAS/BHfA5raiuPEdx4p1uUR6UJttsHBkkx9xsY+WrMlprk0IhlstAkiByI3DlQfoVxXbCpCrFTg7p6o0UHBcst0ZWo3epq2rXR1CSJrG3tJFhiI2F3A35PcGuma71Aaj5A0tjbbsfafPTp67c5qh5Gv7WX7Noe1gAwzJggdAfl7VJnxN/c0f/v5L/8AE1Qytus4PHh8t4hPJp7b13jLP5gwOvWql9Y3dxqFhLqbqs9xKyRJEci2AGQVPdvU/hVw2Gsm5+0nT/Dxnzu80q+/Pru2ZzTp7XxBcTW8skekF4GLx4ll4JGP7tAEepWc0tlbpqaz3U8UjeU9lCzDBGMuoI5/HFYHh6COe+eWSwvFt0mKwCG0aPBHBLnJGPaupJ8TEEbdIGR1EkvH/jtV7Gz8Qafai3gj0nYCSS0spJJOSSdtAGFqXhj/AInAgaeJUuIWcsd/yhDkD71dT4YCNpFtMsYRpeW2sSCc4yMk1TmsteuLqO4lh0dnRGQAyS4IPUEbeasRL4kj2JHDoqKMAKryAD/x2gBfCf8AyAI/+usv/oxq3KwfB+//AIRuDzNu/wAyXdt6Z3t0rbaWNd26RRtGWyeg96/Ksfriqnq/zPfo/wAOPoPHU1yvxC/5FGX/AK7xf+hV1AdSxUMCw5IzyK53xtbSXnhoWsTKsk1zCilugJbvSwLtiYN90bKSjJSfRo8hkuHid0OCSB5f19KrNdyiUJu3AhgSFwAQOxru3+Gurs6sbzTtynKk7+P/AB2oj8LtTLl/tOnbic9ZOv5V9dHH4RLWaPoK2Z05P3Ju1+z2OKjuZEt3yeVQEE+pp/2qdrjaqEqpAIC8HPvXaN8MNTZQputPIHGMydPyoPwy1VmD/a9P3DoQ0g/pT+v4PfmRKzOCSXO9LdH5+R0Xwd/5COtf7kX9a7nxBqk2g3cd8zu9nKhi8sDOJf4MfXpXnvhCy1/wxrep21udMnd4YncyPIABzjGFrsJNU8TSKFktNFcAg4aSQ8jv9yvUpZvg6VOMJzSdj4bNaFTE42pWpq8W9DGvda1Gwv7cG/vHuIriJLnfIiRJvIyNhG5hg9R0qfSNUfTnXddeTZt9udicBS4f5fxq5Lc67PMZptL8PSSkbS77y2PTJSla71941jfTPD7IrblUlyAfUDZ1q/7bwP8Az8RxfUa9rcn5GY+ta9c2umeRJId1mkyzG4jhWSQnnfu+8MdhXY+JC7eDdQMmN5tSWx0zjmufmudcuYkin0rw9LHH9xH3sF+gKcU3UrrxPqGl3Fg0OjRpNGY9yySfKPpto/tvA/8APxEvAV217p2unf8AIMtP+uKf+girNcTBqnimC3ihEGjERoFB82XnAx/dqT+2vFX/AD76N/39l/8Aiar+3MB/z8RDy7EX+EzdSvL6zvtcFijkzahEkrRyLGyr5fUM3A+pp0U+s3jaVZ3GpS22+G4dzBKkjOF+7lgCM+uKtPf+IpFkV7DQWWX/AFgZpCH+vyc0yG61+2RUg03w/EqAhRGXULnrjCd6n+2sB/z8Rp9Rr/ynS+Gbua+8OWNzcPvlePLN6nJH9K1q4tNV8TxoEjtNFRB0VZJAB/45Tv7Z8Vf8++jf9/Zf/iar+3MB/wA/EZvLsQ38Jow/8lAuv+wen/odZfiOe/bWr9YNSuLaG1077QscWPmcN3JHSqiT+J01yTVPL0fe8AgKeZLgAHOc7atNqfiVyzPZaEzMu1iXkJI9D8nSl/beA/5+Iv6hiE78pla34ju4pree2u7oTRpbtKvmIkS7wM/KeX69ulSrPq09yLhdbuAtxqzWaRgLsSLjpxyfQ1ZkuNclkEkuleHndV2hm3khfTOzpUq6h4iRVVdP0FQrblAaQYPqPk60v7bwP/PxD+o17fD+Rn3OrawNPjtIpriVFvZoGuBMkThUAK5dvl6mtXQvOuPE8E+oLE14NK+Z1IfH7zHDD264qCS88QTQvDLp2gPE53MjFyrH1I2c1WjGuw6nHfwWmkQyRwmARxzSLHsznG3Z60f23gf+fiD6jXtblNPQW05df8S2ts8DK5jPlhw275W3cUaSqp8MWVVCqLecAAYAG5qz0OsxGR4NJ8PW8rggyw70fnryEqrLP4h0zwtPp8UGl/Zo4HGWnkZyDkk52jJ5NNZ1gW7KohPA1/5Srqn/ACIUWf8An3h/9lqul9q0viWRclIY7jy9r3CKrR46hD8xPvVjT18QyaNZp5WjvEYI8B2kORtGMjbU72uuyTrPJZ6C8y/dkbeWH0O3IrvNTO0i61BZ9Lmlvp7k3n2gNE5AX5d20D0PHWugtLm8ufMW+002kYX7zTo+fb5TxVIReIV27bfRBsztw0g2564+Xint/wAJKylWj0YgjBBeXB/8doAz9Dl2WOqw6R9nklW+fy0MnyqCF5PtTLXTbqPWLpYLtRqEcaSPcOuRKWzlWH93jj0q5b2WtWjFraw8PwMRgmIOhI/BKEtfEEd5LdLHpHmyqFY+bLjA6fw0AZniWCFPPurizu5ZxEvmlLZpYTgHgcgDk0aFpn2mwZJra5ivJYwS7wPHCBnIAGeSPrWle2niG/tWtpl0oRtjcEllBI9Pu9KnUeJUUKsejgAYA8yX/wCJoA5D+xhYSXMzPE/2S42KpLjfv6/xe9ddrsSQ2umxxjCLf24Azn+MVXTT9bSaWU22iu0riQ73kbDAYyPl4qHVjre/Tvty6cIPt8GfIdy2d4x1AFc+K/gT9H+RdP416nWUUUwSxnbh1O4kLg9SOtfk1j6If1rzf4k/8hfTcdfs8n/oS16OrK67lYMPUHNcT4w0O717xHYW9pLBGyWsrky5wRvQdga9LKpKOJUpOySf5M3wtaFGtGc9kzzJrp+EBAZclzjgAd/x4qNLiWRmDFsCRMZGCQT6V3B+GerbnJu9OJYYJ+fkf980xfhhqaY23Wn8d8ydjkdq+oWYYRfbR7E8zhJ/G7a9H2sv8zj1uWPlcj5mcEfTOP5Ci0uJpjuZWClcg7cYP9a7IfDHVRIJPtWnbs5zmT/CiP4Z6qjb0u7AE/7Un8sUnj8JZ2mhxzSmmuabsvJ9ku39XOs8A/8AImWX+9L/AOjWrpq57wTbva+Fbe3kKl4pp0Yr0JErjit5pY03bnUbBubJ6D1NfIY3XE1Gv5n+Z8+5J6odWT4o/wCRT1f/AK9JP/QTWqHUsVDAsACRnkCsrxT/AMinq/8A16Sf+gmpwv8AHh6r8yKnwM9Pi/1Sf7orC8d/8k98S/8AYKuv/RTVuxf6pP8AdFYXjv8A5J74l/7BV1/6Kav1hbHzongT/knnhn/sFWv/AKKWuhrn/An/ACT3w1/2CrX/ANFLXQUwCiiigAooooAKKKKACiiigAooooAKKKKACiiigAooooAKKKKACiiigArE1MWf/CR6N55k+0Zm8gKPl+6u7P6Vt1iaoLI+ItG88yC4/feQFHB4Xdn9KANuiuB0nxHrLtp9xf3Nobe9W4wixFRF5fIYtn8xiqLeMtYjj1JYZ0uGW1W4tpZbNoUyZAuBk/OvuKAPTKgubdLq2mt5M7JUZGwcHBGDXCy654jsjqAmurOQaeIZZCsJHmeZj5BzwBnr+lTx+KNWuPFBtrezuHtY7gW7otoxTGOX83OBj0xQBuv4ZtVFv9mu7y0aFVjLQSAGRV6Bsg5p0vhuxaOUZk3SXYvMl/8AlqOn4e1clrs+r2GvRr51tskmW4lRZZWWJV4DEbflBJ57VX8Razqdzapezq8cNjdlH+x3IVZMYw2WXPegDr7Pw8U+13GoTR399cLtJkXEar2UDsKZp3heCG3tTfMJriGWSQlOEJcYIIPUY4rktN1bUZfGUxkuWjD7Y4YpJ1yyKMlsd/Xiud1DxBqZlubRNUTyDdMyTSBofmzgYIzkD0oA9Wl8MWjQpHBc3dqyE+XJDIAyKf4QSD8vtUV74bW+1fTbuSYulkhB3nLSt23cYPrWetzda14LhlgnhjZB++mlmZSu3+IEDrx3FY+ieItZtoWkkjtZpbm7XdGzyB9r8BlyuCMDNAE6fDmWLVbi9j1C3t/toZLlIrcD5T2TPQnuf0rVl8JXZ0S30qO/j8u2mDQyvFl1QdFPqfeud8Tatqp1SP7dZPbxxuBZpBeRBhJ2aQFhx7dK6SLxFqMWl2a3lnCup3MoiiSKYOsg7uMdgKAK+i+CF0yWORL5JGjnMpYR/M2eoLZ/SpNR8BaRd3trPDCYQlwZplFxKA+euAGwDn0qvpuo3Om3c0hQPYy37xTEAlo2ONp+max7yFtP1+7hllW5t9gkE1xcTLliSSBsJHHSgDr73wzbnw+2l6Wy2a+YJFZsvg5zk5OT+dJF4duLa5jubbVpo5iQbkeWCk/vt/hPuK5nULm4s9AsILXUMQ3bu7SIry4ABIUZIOMjvVTRta1qa5ttTupWtpbowJ9nMeUkiPG4HPB9qANnUvAMmqI0cmoxpmRpTMtsDIWbtk9FxxXSaDYXOmaWlnci1xF8sQtkKrtHTg965Xwrrt48lzaSMUjgluJN0xLNcYY8Ic9BUem+Kdfv4prmOznMJiM482yaNUwfuBifnyM80AehkgdTijIPevKvH3iC5v7Mx6ZqMVlAsX+vdsB5GH3M564qLwrqGunU7GF7xB50aLkr5olhUHc4O7ru4oA9a3DnkVh+Kbyex0dZrUjzDcwpyu7guAf0rzfVtQvf7UvmN1K0Iv8A5QwMQYiPpjeOK6DT7q8sPBxu4pHeSa8hOJCJAoZgCANzY/E0AbHxD/5FKT/r4h/9GCqJ++av/EP/AJFKT/r4h/8ARgqgfvmvieKv4tP0f5nqZfsxKKKK+TPRFoorktftnuNU1Fy9wFg03zIljkZV8wMcHA6mujDUFWlyt2InLlVzre1HeuC1ediHa6lmW8/0U2ux2XKnbvOBx1znNa0bzHxSVLzDTfNbYSTgz45H+7+ma6JYJqPNfo3+W33marXdrHRXFxDawmaeRY4wQCzHAyTgfqal7Vz/AIpkjvfDl1FBKJG3xg+UwLL+8X0rLvSNNTV7YpM9qlzCqb5nCruTLFm+9tz1xSo4T2kE7632+7/McqvK7HaVFHcRSTSwxyK0kJAkUHlcjIz+FefC4J0KP7RchmtruULaNJKBMhwVVW4Y8dM9c81cvrV/tGs6hGtxFPE9mYVDsNuVUHgfeOCQc5rf+zlF2lL8PNL9SPb+R3Xaori4htYGnnkWONcbnY4AycD9TUN5OGguorWWNrtY38tAwJDYOOPriuEQXLaHqStcQyP5cBlt4nkkdZfNXLNvHHpgcVhh8H7X3pO2q/Flzq8ux6ICGJwQcHBweh9KUsu/buG7GcZ5xWB4fittNOsIx8k/2jKzeY56NgqeT3GaRbeD/hOkvACfO08rHIGJVmD8gc4+7SlhkpyV9Er7b/iNVG0mdDRRRXCahRRRQBhWH/I1a99LX/0Bq2axrD/kade+lr/6A1bNfqeV/wC50/RfkfP1/wCLL1Kc+q2NtdJbTXMaTO20ITznGcflUqXkElo10kgaBQzFx0wuc/yNed+LbRJvGtoHWaC4dv3M6uNnIxkgt1HXtVrRII30PWjEVmkijMIDTMAdqtmQDPRs54613mR176/pUf376JflDnJ6AjIJ/Cnz61pts4Sa9iRiocAnnaehrze2UtM0SOzRxQwmfbnaV2AH+IZ5PStvUJVTWbq2tnYag0NqbUqAFGEPL542eooA66HWdNuBIYbyJhGu5yD90eppr67pcTIr30SlyQuT1wcfzrmLuTyvAWrQ3Q3XwBWZl+YOxYfMuP4aoao01q0UbFt91H9niWUlSp3A9D90d8n0oA9GpU++v1qK3QpbxqZDIQoBcnJb3qVPvr9aAMbwn/yL8f8A11l/9GNWw0ET798UbeYAHyoO4DoD61j+E/8AkARf9dZf/RjVuV+VY5tYqpbu/wAz36P8OPoMEaK5dUUOwALAckDpzWR4m/48LT/r9g/9CrarF8Tf8eFp/wBfsH/oVZ4R3rRKqfAza70UGiudmglFFFIDGtf+Rv1H/r2h/rWyOlY1r/yN+o/9e0P9a2R0rpxPxL0X5Izp7P1CiiiuY0FooHUVxNnBPHNa3aSXLXEt/PG252I2c4GOmM4rqoUFVTbdrf8AB/yInPlO2oxXDWEsJ1ODzZZ/MNrMbwb3wHz6ZwD9K1vD006/aX1OR0mULt8w4Ai/hPpn1rWrguRN3/q9v6+REat2bzXEMdwlu0iiaQFkQnkgdTUtczrNrFqet2Hzu8At5zuhcgE4GBkVgaldztpFkjLJ9qFtvSSWWRMsCeFC/eb61dLBKoo2er3/AB/yFKra56ISFBJOAOTTIJ47mFJoJFkjcZVlOQa46O4STXbaTzvtjzQKdgdw1udnJKj5SCfWl8PWxsZtIcPOBPBKZ/Mc7eDxweBiiWCUYNt6+nk/8gVW72OzqKS6gimSGSVVkkBKqTyQOprF8STyzaUjWMsTxCUCdvMIUJ3yVyR+Fc/NayXllaxNKl2pguQrQM5UDHC7jgnHvSoYJTipSdt/yCdWzskd+CCAQcg96QMrZ2sDg4OD3rP0qa0h0ixiEqIDAgVXfk8YPXnrVLwxbRWq6jCiMj/bHZlZmPB6HmsHQSUn2LU9Ub1FFFcpoLVHWP8AkC3v/XB/5VeqjrH/ACBb3/rg/wDKtaH8SPqiZ/Cxuk/8gax/694//QRVwnAJPQVT0n/kDWP/AF7x/wDoIq1KCYnAGTtOBmv1xbHzjKI1zTC8iC8iLRgFgD0B/wD1VauLqG1CGaQIHcIue5PQV5GlpCNT1SVTLbvEA80UsgIkAP3Vw2eSfeukvLeP/hHNIdCpRrhXeV5mJGWJxjPbp+FMDrodc0yeVIor2J3c7VAP3j6Cmt4g0hWKnUIcgkHnvXFeGQZby1lZm8ksRFvBIDgk8DdxweuKbBJPc2gj0mQq8ZkF5vICEeY3yrn+P3oA7watp7W4nF3EYmJUNnqR1FEGrafc3ZtYbuN5wMmMHnpn+Vc1rskNxP4fS1jlwS7KqIWZcRng471V0x5H8TR2XnYeKVp5JA/JUqBjOMHOMYFAHeVj+IP9Vp//AGELf/0MVsVj+IP9Vp//AGELf/0MVz4r+BP0f5F0/jXqblRLBEuzbFGNhJXCj5SepHpnJ/OpaK/J7s+iGJGkS7URUXJOFGBzyayZf+Ryt/8Arwl/9GR1sVjy/wDI5W//AF4S/wDoyOujDv3pej/IifQ2aKKK5SwoooprcDF8Mf8AIGP/AF9XH/o561nhiffvijbzF2vlQdw9D6jk/nWT4Y/5Ap/6+rj/ANHPW1XRiXavP1f5kQ+FDRGiyGQIodgAWA5IHQZ/E1leKf8AkU9X/wCvST/0E1rVk+Kf+RT1f/r0k/8AQTRhf48PVfmFT4Genxf6pP8AdFYXjv8A5J74l/7BV1/6Kat2P/VJ/uisLx3/AMk98S/9gq6/9FNX6wtj50PAn/JPfDX/AGCrX/0UtdBXP+BP+Se+Gv8AsFWv/opa6CmAUUUUAFFFFABRRRQAUUUUAFFFFABRRRQAUUUUAFFFFABRRRQAUUUUAFYmpizPiLRjM0guAZvICjg8Luz+lbdYmpizPiLRjO0guB53kBRweF3Z/SgCwmh6ZHHBGtnGEtw4iXkhQ/3vzqjF4R8Po7KlghYDaQZXOATnHJ6ZAOK6GvPrq8u7bx3qao32exc24uLpRlk+QYGOwPrQB2E2jafP9p821RvtIVZsk/OFxtz9MCo59B0+4vI70wsl1GPkkSV1AOOCVBAb8RUL6hqcl+bSPRp/sjfKL5biLAGPvBd279K5e91C91a2m0Sa+e1nsld725Q7flH3OR6+1AHTWukWmkWt1NJdmS5uD+9u7nDEnsMdMDsKp3PhbTE0FbW9lRgj7zcyqM7i2c46CuAtE1G98OyyG6vII5JwzqkhdYm3ABSHyRxyK7LXJ7zU7S78OWVncXM0UURkuTLGnXB7nrx6UAbY8P2setDWI5ZElERjKsxZMeoB+6fpWND4W0mS4lfUdSW+SR2kETbVVXPf3PpVaLK6TrSSyalHPbQFGjup0kXkcEba4k2OoIbrdBGNtlGx/wCJWgxz1zv4PvQB6a/hqOWC3srvU55rVXLiD5V80dlYjqB+tXp9Kg1DULK7WdfItCSsUajDN0GT7elcBrd3qw1GN7Ce4FxCbaKDJXyV3j5t3Gea0tDtL20ln0xzfozWjNJB5gBMm7lkPGAaANnUfC1vrF+Wl1aYyRSCQIFjJT07Zx9a07Kwt9PdYprxZ7raTC8yIGRe+3AHFcAmnCW+Igh1GPU2YCaEpMCIjwMyZxx1z0qz4lnuLDVbhEUXT28dukfn4YruBDHJKjJ+tAHdaNpsem20qfaftEksplkcgDJPt2qDUNE0n7LPI8UEDPnMzDIUnvjNcdoI+3216Zn+xGawzI0TFQhDHkcnHTsaw7NNRvfDl2/2q7iieQ+YEkLCMggLkPkgMORQB6FeeF7RtMsYDqNxbRWSN+9QqCwIwckjGOan/wCEftxpumWpvXFrY7WHT95joSa5jxfbyvaW1ilvqM1xMkcK3TTbICT03gHkeuBUOgWjDStRsZbe/kvLZGieWUtNblvRFBJwOwPNAHbxaZpBjWKGGHbHIZgFblWJyTnPeoEsdD066lukdIJp4mJJnYoV7kKTt/IV574dDppxaNSgMhQqLdo2GMg5Y/eB9O1MvIHk03T2ka6jtF0iQu6uu3HGQoxmgDtG8F6dPocekfam+y7zNMIwAZCxznPJUfSm2Pg+xsPsl0NVuXuYCEhuGkHEf/PMDpg/nXPaHfX0+k6tBpkcK3a2iFTv8wkEY3FsnnH8NZ+lwahJ4SsDHeCBReRAo8JfDbuoJb9KAO0ufAlpeai99cXly0pn88YwArew+gAp2sQN4c0N2sXZ3lvIixkUN95wD29K6S2SaOFVnlEsoHzOE2g/hk4rJ8VXs9ho6zW23zDcQpyu7guAeKAKHxC/5FOT/r4h/wDRgqgQfMP1q58R0Mng6dA7IWnhG5eo+cciuXbQZgx/4n2sdf8AnrH/APEV8/nGU1cdOMqbSsnudmGxEaKaa3NzFJgVif2FN/0HtX/7+x//ABFH9hTf9B7V/wDv7H/8RXif6rYn+dfj/kdX1+HZm5RWH/YU3/Qe1f8A7+x//EUf2FN/0HtX/wC/sf8A8RT/ANVsT/Ovx/yD6/Dsy/JpNlNei8khZ5hjBLsV46fLnb+lXetYf9hTf9B7V/8Av7H/APEUf2FN/wBB7V/+/sf/AMRVvhrFyteotPUlY6mtos1ILG0tHd7a1hhZ/vmKMKW+uBzU9Yf9hTf9B7V/+/sf/wARS/2FN/0HtX/7+x//ABFTLhjFyd3NfiNY6mujNyisP+wpv+g9q/8A39j/APiKP7Cm/wCg9q//AH9j/wDiKX+q+K/nX4/5D+v0+zNRLG0juWuY7WBJ2zukWMBznrlsZqfmsT+wpv8AoPav/wB/Y/8A4ij+wpv+g9q//f2P/wCIpvhnFy3mvxF9eprozXntoLqPy7iGOZM52SIGGfoadFFHDGscUaxxqMKiKAoHsBWN/YU3/Qe1f/v7H/8AEUf2FN/0HtX/AO/sf/xFH+rOLty86t8w+vU97M3KKw/7Cm/6D2r/APf2P/4ij+wpv+g9q/8A39j/APiKn/VbE/zr8f8AIf1+HZm5RWH/AGFN/wBB7V/+/sf/AMRR/YU3/Qe1f/v7H/8AEU/9VsT/ADr8f8g+vw7MNP8A+Rp176Wv/oDVsVhJ4YEdxNcJrWrrLPt8xvNj+baMD+DsKf8A2DL/ANB7WP8Av7H/APEV9jg6MqNCNOW8Ul9x5lSSlNyXUuXGjabdtK1xZQytKQXLrktjp/8AqqR9NspN261i+aMRHC4yg6Lx2qh/YMv/AEHtY/7+x/8AxFH9gy/9B7WP+/sf/wARXSQXF0jTkztsYBkbfuDpSz6Tp91L5k9lDI+Au5l5wOgql/YMv/Qe1j/v7H/8RR/YMv8A0HtY/wC/sf8A8RQBbj0bTYQ4jsYVDja2F6j0qSTTbKUzNJaQuZhiQsgJYehqh/YMv/Qe1j/v7H/8RR/YMv8A0HtY/wC/sf8A8RQBrxxpDEscahUUYUDsKkT76/WsT+wZf+g9rH/f2P8A+IpRoMwORr2sf9/Y/wD4igA8KDPh6P8A66y/+jGrc6Vztt4YFnAIbfWtWjjBJCiWPqTk/wAHqam/sKb/AKD2r/8Af2P/AOIr4zFcN4irXlUU1Ztvr1foelTxsIwUWnobZFY/iX/jwtP+v2D/ANCpn9hTf9B7V/8Av7H/APEVFceGBdoqT61qzqriRQZY+GHIP3Kmjw1iKdRSc1p6/wCRU8dCUbWZ0PekrE/sKb/oPav/AN/Y/wD4ij+wpv8AoPav/wB/Y/8A4isv9VsT/Ovx/wAivr8OzNvAorE/sKb/AKD2r/8Af2P/AOIo/sKb/oPav/39j/8AiKX+q2J/nX4/5B9fh2Y61/5HHUf+vaH+ZrZrn18MhLqS5XWtWE0ihWfzY8kDoPuVL/YU3/Qe1f8A7+x//EVrV4axE2mpLZLr0XoTHHQXRm3gUcVif2FN/wBB7V/+/sf/AMRR/YU3/Qe1f/v7H/8AEVl/qtif51+P+RX1+HZm5SEZBB78Vif2FN/0HtX/AO/sf/xFH9hTf9B7V/8Av7H/APEU/wDVbFfzr8f8g+v0+zL9ppVlYSvJBCyu/VmkZz+G4nH4VZmhhuYmimiWSNuqSKGU/gax/wCwpv8AoPav/wB/Y/8A4ij+wpv+g9q//f2P/wCIq3w3jG+ZzV/Vk/XqaVuVmxDBDbRiKCFIoh0SNQqj8BUlYf8AYU3/AEHtX/7+x/8AxFH9hTf9B7V/+/sf/wARUPhjFPVzX4j+v0+zNuh0WRGR1DKwwVYZBFYn9hTf9B7V/wDv7H/8RR/YU3/Qe1f/AL+x/wDxFH+q+K/nX4/5B9fp9matvaW1mhW1t4oFJyVijCAn8Km5rE/sKb/oPav/AN/Y/wD4ik/sKb/oPav/AN/Y/wD4inLhjFyd3NfiH16mujNWaxtLiVJZ7WCWVPuvJGrMv0JHFWKw/wCwpv8AoPav/wB/Y/8A4ik/sKb/AKD2r/8Af2P/AOIofDOLejmvxD69T7M3MCjisT+wpv8AoPav/wB/Y/8A4ij+wpv+g9q//f2P/wCIqf8AVbE/zr8f8h/X4dmbhqlrH/IFvf8Arg/8qof2FN/0HtX/AO/sf/xFRy+HXmieKTXNXZHBVgZY+R/3xV0+GcRGafOtPX/Il46DVrM0NJ/5A1j/ANe8f/oIq2yhlKkZBGCKxYvDrQxJFHrmrqiKFVRLHwBwB9ynf2DL/wBB7WP+/sf/AMRX260R5ZaTRNMjlilWwgEkWdjbBlc9T9ae+k6fIu17OIqGL7dvG49TiqX9gy/9B7WP+/sf/wARR/YMv/Qe1j/v7H/8RTA0ItOsoGDRWkKMDuBCDINQNoWlMxY6fbkkkk7O9V/7Bl/6D2sf9/Y//iKP7Bl/6D2sf9/Y/wD4igC9Dptlbqqw2sSBSSNq9MjB/SkGlWCiILZwDym3oQgBU+uapf2DL/0HtY/7+x//ABFJ/YMv/Qe1j/v7H/8AEUAbNY/iD/Vaf/2ELf8A9DFN/sGX/oPax/39j/8AiKjn8MC5CCbWtXcRusi5lThgcg/c9ayrwdSlKK6poqD5ZJnQ4o4rE/sKb/oPav8A9/Y//iKP7Cm/6D2r/wDf2P8A+Ir4r/VbE/zr8f8AI9T6/DszbrIl/wCRyt/+vCT/ANGR1H/YU3/Qe1f/AL+x/wDxFRHwzm7W6Otav56oYw/mx5Ckgkfc9QPyrWjw1iIN3ktn3/yJljoPozoaKw/7Cm/6D2r/APf2P/4ij+wpv+g9q/8A39j/APiKx/1WxP8AOvx/yK+vw7M3KKw/7Cm/6D2r/wDf2P8A+Io/sKb/AKD2r/8Af2P/AOIprhbE/wA6/H/IPr8OzJPC/wDyBT/19XH/AKOeteuft/DP2WLyoNa1ZE3M+BLH1YlifudySal/sKb/AKD2r/8Af2P/AOIrStw1iKlSUlJavz/yJjjoJJWZt9qyfFH/ACKerD/p0k/9BNRf2FN/0HtX/wC/sf8A8RWZ4j0aWHw1qch1rVJAttIdjyRlW46HCdKdHhrEU6kZuS0afX/IJY6DTVmezxf6pP8AdFYXjv8A5J74l/7BV1/6Kat2P/VJ9BWF47/5J74l/wCwVdf+imr7VHlh4E/5J74a/wCwVa/+ilroK57wJ/yTzwz/ANgq1/8ARS10NABRRRQAUUUUAFFFFABRRRQAUUUUAFFFFABRRRQAUUUUAFFFFABRRRQAViamLM+ItGMzSC4Bm8gKODwu7P6Vt1iamLM+ItGMzyC5HneQFHynhd2f0oA26gNtAxkJhjJkGHJQfOPf1qeigBioqKFRQqgYAAwBVa506zu1cT2yPvKl8jG7HTPrj3q5RQBnXuj2V9F5Uke1DIsjCPC7yOm71FQXPhrS7vUJL6aGXz5FVGZJ3TIHThSK2KKAMNfC2lJbXFvHFKI7llaXMzMXx0BLEnFT3nh+wvfN82Nx5qLG+xyMqvQVq0UAcrquiaHa6hb395Dcb3mjCujtsRl+7uA4x7mptPk0nU9W1Ca3uJDdqxtmJlHAHPyD0qr411A6ZFaXK3dwpWUeZaxqrrLF/FuBUnH4iuV0mPSYPEWlXNtaWkN3c3UtwVt41AjQrhU3AYyfTNAGpeal4a03WZo5LrWTeqfJd40kbJAztyFwcCup023028jbWLcPMt1CoJlH3lXpkEda8z1zQ11TXNU1CaL7LLBiXyY3SXLt8v7w4OMjsCa9C0m5j0fRIbHURbWLLGViQT7g646gkD+VAD7Cw0nWVl1Dy3kW4AjMUhwqhT0AHbNaF9o9nfW7QvHsRmVn8rCl8dAT6VynhBPD8FlDdtNEt60r4JuG5JY/w5x+ld7QBkvoVtPqaX88k8zRf6qJ3/dxn1Cjv9c09dFsxb3UO2QpcuZJAJCpJ9iMEVp0UAZSeH9NhspbW2tltllUo7wjDkHr83WoZPC2lSII2icxrbfZVTecLH3wPX3rbooAy7DQ7TT5JZI2mkeSMRMZZN3yjoKYnhzS4rGOzgtxDBHKJgsZxlgc5J71r0UAFYXiq9nsNGWa327zcQp8y7uC4B4rdrC8VXs9ho6zW4XebiFPmXcMFwDxQBQ+If8AyKMn/XxD/wCjBWa/32+taXxD/wCRRk/6+If/AEYKzX++31oASiiigAooooAKKKKACiiigAooooAKKKKACiiigAooooAKKKKACiiigAooooAKKKKACiiigAooooAKKKKACiiigApkriKGSQgkIpYgewzT6juEMlrMi8s0bKB7kEUAV7HUre/ggeNgrzRCURMfmCn1qxJPFCyLJIqGRtqAnG4+grntC0S70m0W2JbbPEBLKrjzIXA7E8EenpV2bRZTp08X9oXd1McPC1yynY68jG1RQBovdwqZlEis8K7nQHkCubt/H2l3Mk6ICPJkVCWYd+v5d609Ps57bSLiW+YJeXG6Sdl+bacdBjrgVwFtYXj3N0f7Pc37ESWjRQMiydizEnAGPXmgDvbvxPp1slrIkyzR3BIVkb0Gc/pUNj4st764iiS2dfMUtkSI20AZ5AORWNqoMmm6QsC3ZESsDbiMgghSOfxpnhyyuonR5oJgZYnVh+8AQgEDknBzQBtx+KlmgaePTbgxKMljIgwD0J5qzN4gjt/sqTWssc9yCyRMyjAHqc471xcUb3cNtJcwzWc1kgWJFt3bzmB/5aEDBX0Fbuo+fq+qadcxQYgjt5DI7hk2njIxjP0oA17DX476+Nt9mkiB3bJGdSr7Tg4wc1sVw+jW7x+IIjc29wtou42jPDw5PXt8mP1ruKACiiigAooooAKKKKACiiigAooooAKKKKACiiigAooooAKKKKACiiigAooooAKKKKACiiigAooooAKKKKACiiigArJ8U/8AIp6v/wBekn/oJrWrJ8U/8inq/wD16Sf+gmgD1KL/AFSf7orC8d/8k98S/wDYKuv/AEU1bsX+qT/dFYPjv/knnib/ALBV1/6KagBfAn/JPfDX/YKtf/RS10Fc/wCBP+Se+Gv+wVa/+ilroKACiiigAooooAKKKKACiiigAooooAKKKKACiiigAooooAKKKKACiiigArntfkgtdR0zUJra/nNu0gUWds02NwH3goJHSuhooAxJfEcENpDcmw1VllzhE0+VnX/eULkfjRL4jghs4bk2GqssucImnys6/wC8oXI/GtuigDEl8R28NpFcmw1VllzhEsJWdcf3lC5H40S+I4IbOG5NhqrLLnCJp8rOv+8oXI/GtuigDDl8R28VpFcmw1VllJARLCVnXH95QuR+NEniOCK0iuTYaqyykgImnyl1x6qFyPxrcooAw5PEcEVpFcmw1VllJARdPlLrj1ULkfjRJ4jgis4ro2GqsshICLp8pdceqhcj8a3KKAMSTxFbx2kd0bDVWWQkBF0+UuPqoXI/Gon1mxhtYr3+ydRPmMcKmmyGRT6lQuR+NdBRQBzv9raba6cs0ejX4incloo9Mk3bvVkC5H1Ip1zrVg1lFdTaTqMqsSqodNkZ1+q7cgV0FFAHONqumQ2cV4NFvvnbAVNLkMikdyoXIqeTxJbx2Ud19g1UhyQEXT5S4x6rtyBW5RQBiSeI4I7KO6NhqpV2KhF0+UuPqu3IFD+I4I7KO6NhqpV2KhF0+UuPqu3IFbdFAGG/iOCOyjuzYaqVdioRdPlLj6rtyBSv4jgSyjujYaqVdioRdPlLj6rtyBW3RQBiP4jgSyjuzYaqVdioRdPlMg+q7cge9D+I4EsUuzp+qlWYqIxYSmQe5XbkD3rbooAxH8RwJYpdnT9VKsxUILCUyD3K7cge9UtW1u5uNIt5NN0+/M0tzGmyaxcFV3DcWDD5RjPJrqKKAOS+IpC+EJSSABcQ5J/66Cslru23t/pMPX/noP8AGu7urS2vbdre7t4riF/vRyoHU/UHis3/AIRLw1/0Luk/+AUf/wATQByn2u2/5+Yf+/g/xo+123/PzD/38H+NdX/wiXhr/oXdJ/8AAKP/AOJo/wCES8Nf9C7pP/gFH/8AE0Acp9rtv+fmH/v4P8aPtdt/z8w/9/B/jXV/8Ij4b/6F7Sf/AACj/wAKP+ES8Nf9C7pP/gFH/wDE0Acp9rtv+fmH/v4P8aPtdt/z8w/9/B/jXV/8Il4a/wChd0n/AMAo/wD4mj/hEvDX/Qu6T/4BR/8AxNAHKfa7b/n5h/7+D/Gj7Xbf8/MP/fwf411f/CI+G/8AoXtJ/wDAKP8Awo/4RLw1/wBC7pP/AIBR/wDxNAHKfa7b/n5h/wC/g/xo+123/PzD/wB/B/jXV/8ACJeG/wDoXtJ/8Ao//iaP+ES8Nf8AQu6T/wCAUf8A8TQByn2u2/5+Yf8Av4P8aPtdt/z8w/8AfwV1f/CJeGv+hd0n/wAAo/8A4mj/AIRLw1/0Luk/+AUf/wATQByn2u2/5+Yf+/go+123/PzD/wB/B/jXV/8ACJeGv+hd0n/wCj/+Jo/4RLw1/wBC7pP/AIBR/wDxNAHKfa7b/n5h/wC/g/xo+123/PzD/wB/BXV/8Il4a/6F3Sf/AACj/wDiaP8AhEvDX/Qu6T/4BR//ABNAHKfa7b/n5h/7+D/Gj7Xbf8/MP/fwf411f/CJeGv+hd0n/wAAo/8A4msrU9F0OyljhtPBen6hKyl2SGC2QqvTJDkcfSgDJ+123/PzD/38H+NH2u2/5+Yf+/grRm0fTo7KCaP4eWsssmd8Cw2gaPHTJLYOfYmll0fTo7KCZPh5ayyyZ3wLDaBo8dMktg59iaAM37Xbf8/MP/fwf40fa7b/AJ+Yf+/g/wAa0ZdH06OygmT4eWssr53wLFaBo8dMktg59iaJNH02OzhmT4eWksr53wCG0DR+mSWwc+xNAGd9rtv+fmH/AL+D/Gj7Xbf8/MP/AH8H+NaMmj6bHZwzJ8PLSWVyd8Cw2gaP0yS2Dn2Jol0fTksoZk+HlrJM5O+AQ2gaP6ktg59iaAM77Xbf8/MP/fwf40fa7b/n5h/7+D/GtGXR9OSyhmT4eWskzk74BDaBo/qS2Dn2Jok0fTo7KGZPh5ayTOSHgENoGj+pLYOfYmgDO+123/PzD/38H+NH2u2/5+Yf+/g/xrRk0fTksoZk+HlrJM5IeAQ2gaP3JLYOfYmiTR9OSyimT4eWskzkh4BDaBo/cktg59iaAM77Xbf8/MP/AH8H+NH2u2/5+Yf+/g/xrRk0bTksopk+HlrJM5IeAQ2gZPcktg59jSSaRpq2cUqfD21knYkPbiK0DRjsSS2OfY0AZ/2u2/5+Yf8Av4P8aPtdt/z8w/8Afwf41oyaPpyWUUy/Dy0kmckNAIrQMg9SS2Dn2NEmj6ctnFMnw8tHmckNAIrQMg9SS2D+BoAzvtdt/wA/MP8A38H+NH2u2/5+Yf8Av4P8a0ZNH05LKKZfh5avMxIaAQ2gZB6klsfkaJNG05LKOZfh5avMxIaAQ2gZB6klsfkaAM77Xbf8/MP/AH8H+NH2u2/5+Yf+/g/xrRk0fTlsY51+Hlq8zMQ1uIbQMg9SS2PyND6Ppy2Mc6/Dy2eZmIa3ENoGQepJbH5GgDO+123/AD8w/wDfwf40fa7b/n5h/wC/g/xrRk0fTlsY5l+Hlq0zMQ1uIbTcg9Sd2PyNI+kaaLJJl+Hlq07MQ1uIrTcg9Sd2PyNAGf8Aa7b/AJ+Yf+/g/wAaPtdt/wA/MP8A38H+NaL6Ppy2Mc6/Dy1aZmIa3ENpuUepO7H5Gh9H05bGOdfh5atMzENbiG03KPUndj8jQBnfa7b/AJ+Yf+/g/wAaPtdt/wA/MP8A38H+NaLaRpwskmX4eWrTsxDW4itNyj1J3Y/Wh9I05bJJR8PLVpyxBtxDablHrndj9aAM77Xbf8/MP/fwf40fa7b/AJ+Yf+/g/wAa0W0fThYpOvw8tWmZiDbiG03KPXO7b+tD6Ppy2CTj4d2pmLEG38q0DKPXO7b+tAGd9rtv+fmH/v4P8aPtdt/z8w/9/B/jWi2j6ctgk4+Hdq0xbBt/KtNyj1zu2/rQ2j6cLBZx8PLRpi2DbiK03KPXO7b+tAGd9rtv+fmH/v4P8aPtdt/z8w/9/B/jWi2j6cLBZx8O7UzlsG3EVpuA9c7tv60No+nCwWcfDu0M5bBtxDabgPXO7b+tAGd9rtv+fmH/AL+D/Gj7Xbf8/MP/AH8H+NaTaPpwsFnHw7tDOWwbfybTcB653bf1pDo+nCwWcfDu0M5bBt/JtNwHrndt/WgDO+123/PzD/38H+NH2u2/5+Yf+/g/xrROj6cLATj4d2pnLbTb+TabgPXO7b+tB0fThYCcfDu1M5babfybTcB653bf1oAzvtdt/wA/MP8A38H+NH2u2/5+Yf8Av4P8a0To+nCwE4+HdqZy237P5VpuA9c7tv60HR9OFgJx8O7Uz79v2fybTcB653bf1oAzvtdt/wA/MP8A38H+NH2u2/5+Yf8Av4P8a0To+nfYBP8A8K7tTPv2/Z/JtN2PXO7b+tB0fTRYCf8A4V5a+eX2/Z/KtN2PXO7b+uaAM77Xbf8APzD/AN/B/jR9rtv+fmH/AL+D/GtE6PpwsPP/AOFd2vn79v2fybTdj1zu2/rR/Y2nfYPP/wCFeWvn79v2fyrTdj1zu2/rmgDO+123/PzD/wB/B/jR9rtv+fmH/v4P8a0f7H077D53/CvLXz9+37N5Vpux/ezu24/HNH9jad9g8/8A4V3befv2/Z/KtN2P72d239c0AZ32u2/5+Yf+/g/xo+123/PzD/38H+NaP9jad9g8/wD4V3befv2/Z/JtN2PXO7bj8c1BeWmi6doz6le+ArWFY3AeP7Pasyr/AHuDjHtnNAFX7Xbf8/MP/fwf40fa7b/n5h/7+D/Gur/4RLw1/wBC7pP/AIBR/wDxNH/CJeGv+hd0n/wCj/8AiaAOU+123/PzD/38H+NH2u2/5+Yf+/g/xrq/+ES8Nf8AQu6T/wCAUf8A8TR/wiXhr/oXdJ/8Ao//AImgDlPtdt/z8w/9/B/jR9rtv+fmH/v4P8a6v/hEfDf/AEL2k/8AgFH/AIUf8Il4a/6F3Sf/AACj/wDiaAOU+123/PzD/wB/B/jR9rtv+fmH/v4P8a6v/hEvDX/Qu6T/AOAUf/xNH/CJeGv+hd0n/wAAo/8A4mgDlPtdt/z8w/8Afwf40fa7b/n5h/7+D/Gur/4RHw3/ANC9pP8A4BR/4Uf8Il4a/wChd0n/AMAo/wD4mgDlPtdt/wA/MP8A38H+NH2u2/5+Yf8Av4P8a6v/AIRLw3/0L2k/+AUf/wATR/wiXhr/AKF3Sf8AwCj/APiaAOU+123/AD8w/wDfwf40fa7b/n5h/wC/grq/+ES8Nf8AQu6T/wCAUf8A8TR/wiXhr/oXdJ/8Ao//AImgDlPtdt/z8w/9/BWT4ourdvCmrAXERJtJMAOOflNeg/8ACJeGv+hd0n/wCj/+JoHhHw0DkeHtJz/15R//ABNAGvF/qk/3RWF47/5J74l/7BV1/wCimroK5/x3/wAk98S/9gq6/wDRTUAHgT/knvhr/sFWv/opa6Cuf8Cf8k98Nf8AYKtf/RS10FABRRRQAUUUUAFFFFABRRRQAUUUUAFFFFABRRRQAUUUUAFFFFABRRRQAUUUUAFFFFABRRRQAUUUUAFFFFABRRRQAUUUUAFFFFABRRRQAUUUUAFFFFABRRRQAUUUUAFFFFABRRRQAUUUUAFFFFABRRRQAUUUUAFFFFABRRRQAVgmyf8A4TkX/mR+X/Z3k7N3z58zOcenvW9WCbKT/hORf74/L/s7ydm758+ZnOPT3oA3qq308tvYyzQpvkRSVXazZP0UEn8KtUdqAPEYtdvhDLcs1xMGSS5YlLlWbEm3oGAC9cEDjGK76+vr6402Ox0m1u4YWtzJPe3KspjTHKru+ZnP6daZqHgnQby0e0tpDav0ZluZGKoW3MoG/Ayf/wBVdHFZ266SbWCRvs5iZA7SFyARjO4kk/nQBieF5dSitLKJoGuNMmhDxXLzAyQjGQkmeW9mH44qHVpdVk8d2tnp19Fb79Nd2EymRciQchAwye2c8V0mlWiadpVrZpJ5iQxhA/8AeAHWqmpeHdK1e8iuby3LXUUZSOVJnjdVJyQCpBFAGBaeLry5cZihRRpk9y2Qf9ZG5X1+6cZx+tWdG1vVNcu7dI5be3jhtYJ7nMJcymRc4X5htAx15rUvPDGj3sEUFxZK0MSGNVVmXKnqpwRuB9Dnnmnjw7pizWcqW7xvZoI4THM6YUdA2D8w9mzQBy3hHxDeTWssMxbZaLPK7XBJknw7Y2c/dGMZ/CqE/i/xBe+HtQurZZbUfZluIbmTTpI1iJYDy8ucSHB+8OPau6h0PS4oYI4bVFSBmeLDHKliS3Oc4JJyOlRr4a0tBcgQyGO5QpJE88jR4Pohbav4AUARa5e32neD7m8hcSXsVuGDrHwW4yQv9K4OTXbmDW9TubfVL57gWcRVTYNhm54Ixx9a9UghS3gSFAQqKFXLFjge55NZ8FlCviG8vUuQ8rxJG8Ax8mM4J+uaAOL8SalfLrtk6ieWNLaNpo1V9iFs5c7SAMe+aXRNQlhtLhr2RrR4rWOV70XMkztv5UCNxgE46Culv/DkN3e3E1xfukd06GaMADfGo4jz2GeT61fs9MtoNWur+GUMZ444/LGMIEzj+dAHldh4o1T7Rd31xf6lGZJxCsbIuUQHAyNuAecmvRvEslxaeBr+RbiVp0tsiZflcnjnjoaqT+DtNmtWhD23mT3JmadoFaQ852qc8H3ro7uyt7zT5LO6QSW7psdWOMj6igDC0bxDLcaTNqF1FL5cREYtoYWlnXHGXVcnJ64Ap8viXZ9kvBBPDpzSGGc3ds8LocfK2GAOO3StiHT7WG6NzFEFlKCMspIyo6Z9frT7+wtdTspbO9hWa3lGHRuhFAGXYa2x0O41jUdsVoC0kexCSIh0JxnJPXiuaudUuV1681OG5vrCwmiiVZJNLkdSfXnGOtdnqGkwX2iTaXkwwSReUDH1Ue1Y8nh5b3TxbN4i1CWDITAaHB29uEz29aAOa8bX1/a3cMa3QlIsGkL+fLbgtn7wEYPPsaPCd/fS3V0nnmP/AEBZAUnmuPm/vbXA59hXYXGhQNLeXFzctieAW4JwBEg9Pc0610NbO6e8jvHLfZ1gjyo2oo7+9AHCf2jc/amvrfxE5uJHELW7SxiUr0DeWVxnPbrir/iDVLyw1H/SGmuZbW3h2eSWjZmckMSFBJ6dMV0MWi3L351OPXN0skQj3CFSpUH61Ym8P2kt7PfalItwskCRusi7VG0k7uvHWgDmtA1DUNUacW93cW7zWbMizOX8twxGfmUH8xWEmu67qGhXw+3sySMyKZ41faUwGG5MYyeRkdK71PDFo800kM5itZYBEkdsNu1c5Pzc5zT7zw7p8Wl3EFuyWEU2wTOOhC+xOAfegDnPFGo3FtpEFodXuVv5YEQW9tbErKT/ALWDtz0zmoNBv7uXTLu01DV7o39tEwezkHliLHQGXHJHqDXWXmjteXEEtzqP/EttwrpbqgUEjoWfPI+mKnt9IWCO+aK8kj+2Seb5kYUFOO2QR+lAHnvhzVrs27yJfmUl/L3fbDK3fIKngD0Irs9G1GS18Bw6hKXnkigZzuYktgnvU1r4asbW0mitZpGmkBPmzSeZhj1bb90H6AVoabpsFhpEOnI3nQxpsy+DuHfNAGJPqWqWXh+O8utSslmuWUxFbR22BhnaEDEyN+VZ+l+J9V1m2srWB4be8mmmja4ltWAAj/6ZlgQT6E8Vv/8ACK6R9iaz+zymAyCUA3MhKMOhQ7sr+BFNHhLRhamBLaREMnm5S4kVg/qGDZGe+DzQBzdzq2taZrOtXMdzDJa201urxSKxLbhg7ecIO/erKeKtTuvEE1tBZ3DWaTtbOFspMJgf6zzvu49q6R9C0uVbhHtg4nKGbLsSxX7pPPalk0LT3vxf+XKs/U7J5ERv95AwU/iKAODtvEmp2OlCWBkmuFsd6vcO7ZYz7eefT2zWpd+KtV0yK/troRz3cVzFBHLbWruB5gJz5YJZsY7Hn2roh4Z0Qp5Qs0K+X5e0O33N27HX+9zU8mi6fObovbAtdFTM24gsVGAQQeCPbFAFbQNSv9Q0Vri9s5knVmQK8LQGUDowR+Vz7muNupdQu109dKvJbIjUyGtL2MTvGy8sQyvyg9P1r0Cz06HT7L7LbPMqckNJM0rAn/ack1zS+D7C1nlurbV7mKS8JjZ2dGLM3XacAqT7HtQBl+IdVvbzwDY3s15HFcmcGURSND5oVyCFAYHnHTdWb8PZdRt9dEOrXUkE3klTbXNyzO5Y5UhWds8emK61/B9vFpFpYfa0EVuSpnlhVpShOSqufu5PU8mtG00azhuLqWGWN5JSrRkqGMRUYBFAGfrzaiPFWkjTvs5lMcuROzKuMewNdHafafsqfbBELjHziIkrn2zzXPyaDdNqdrPL4hkN3EjCMGFAWBHPHetyxtri2iZbm8a6ctkOyBcD04oAuVieK7lLPw3eXElvHcKigmKT7rc9626xPFdyln4bvJ5LeO4RFBMUn3W570AbdFFFABRRRQAUUUUAFFFFABRRRQAUUUUAFFFFABRRRQAVz/jv/knviX/sFXX/AKKaugrn/Hf/ACT3xL/2Crr/ANFNQAngT/knnhn/ALBVr/6KWuhrn/An/JPfDX/YKtf/AEUtdBQAUUUUAFFFFABRRRQAUUUUAFFFFABRRRQAUUUUAFFFFABRRRQAUUUUAFFFFABRRRQAUUUUAFFFFABRRRQAUUUUAFFFFABRRRQAUUUUAFFFFABRRRQAUUUUAFFFFABRRRQAUUUUAFFFFABRRRQAUUUUAFFFFABRRRQAUUUUAFYJspP+E5F/vj8r+zvJ2bvnz5mc49Pet6sSfR7hvFUOtQXiRqtqbWWF4d24btwIbcMc+xoA26r3siw2NxIxwqxMxPsBWbaWviJLwPd6rp81tzmOOwZG9vmMp/lVaTSddvVlt9Q1eyks5lZHjgsWjcqewYyn+VAHnVha6jHDbRS2sIjVHv4vtMKSCSMREksFIyCxAGeRV3xbd3Y8K2Jt4rmJ54IvtEtsWt7aGN/4VXOCxzjH54rqtP8ACepWt5dPc6rZzwXUZhdVsWR1i27VRG8whQPpzUsXhrVnhtbO91WylsLZkKRRWLI/yfd+YyEemeOaAMPwLdJd63JaI9wI7SBWjH2pmXB4wV3EVoa4pl+Itjbrqz6e0mmSYePZvfEgOBuBH6Vf0/QNbtvEE2qXWs2lwsq+WYlsChRB0CnzD355Bpz+H7+/vA+rzaNf2wyvlvpXz7eoG5pD3welAGHD4p1DAlu7pYIhpNxMSwUAyJIVV8+uBnHTmrmhalqGs31otzqUtusNlbz7Iwg+1M65bdlTwD/dxWkug6lPcQjUp9Gu7KEny4P7LIKDGBtJkIH5UkXh+/OoWs17Los8Fqf3CLpW14h22MZDtx7CgDnPB+qXkVo0MreRDELiS1j4P2tt7557Y/ujnvVG41LxNfeF9SupZNQs4XtVmE3mwBo5Nw+WMISwXH94Z4rtLTR9XhuI1nvNJeyRy6wRaaUKnk5B8wgHJ64qKz8OXlvqk11K+iNHOCs4i0ny5JVPZn8w5/EUAaV3qKaL4ea/uDNcrbwhmIwXk6fQZP4VyF6L+HVb7Wrq21mys7hYlH2WeDI7ZYEn17VvS6Bqt5bSaffajp76XIpja3gsGiYJ2AbzTjHHas9PBF7JOq3mrJNZKwPkhbgE46cmcj0/hoAwvHUFwb90hIuBDphLPPa+ew+brkFdp96radLfaZa6vLHtt5hYQlDb2YgPJxnBLBj7118XhfVG1G9mvNVs57e8URyxrZMr7AMBQ3mnH5VD/wAIbqM9zdfa9XtpLW6RYpI47R0cRr91VbzTj64oA5S1j1eae4DSXw0/TJpFt5UCiaOQoDlwFxt6jPXmuw1yeWf4YXM8rb5XsgzMeNx4qKw8HanZLd2v9tQmxu5C8yLav5pyMYEjSt2HpWja6PrESpaXGoaZNpijZ9mOntkp2BYykfpQBV0PWL99OuJZ4JZ76Lav9mxFFaNccEMxAbI5znFPvtcvrOC31W7s7iws4pDHdQTtGx2no+UZuh96t2+m63HqS3E2oaW8K/KFTTmWQJ2UP5p/lSjTtdnnZL7UtMuLBiQ9udObLL6EmUj9KAF0i7updDk1G9nCeduliDYURIfuj+XWvN7chI/tG3VUu0lNzJP9rt/s+d21nAzz6cDNeiHSdbuJPKvNS06XTyebdLB0YqOg3eb/AErEh8B6iupB5tcgfTBOZvsC2RC8nONxcnrQA7xWiXYglma+fTpol82aEu8Kp1Pyx8kn1PFULSG7tPD+r3kN3feRDblbd5PMRXHY7JOQQOMjg1tT+F9ZupRBLrdtFpe0obS1smjynpu8w8++Kjh8Ja0FltLnxBHPpkiGI25tGDBOwDeYeffFAHHyXzm+m08WMKWyq4WRMhgQm7IxJnOf9kCtXWzrNxLZwpqPkWj6VI22MFmfAGd2eM++DXRyeG9XuN0Euqaetoy7G8nTisxTpjzDIeffFRSeFdWnv7SaTWLeOG1UxxiC0dJAh/h3+aR2HOKAMrQLVs31t9vv4reTT41E88jALJgklM4AwP7tc7aSapfeH9QZb68SFnKvtkMqptwAT5mSA3UYrsB4K1OfUkm1HXIr60QnFvLbOCFPbcJcZ/Crlx4a1W7keKXUtPjsZGXzI4NPKSOg6KX8w/yoAxPFSSJpFtabdXuLiWFIlnjcRwEnpv5Ax64Gag8O20q2F/p11HqUt7bIyOZGaW1BxwqAEkgdsjNb7eGNan16G9vNcgnsYGBisfsTKqY6HIk5PuQfpUkPhzV4ry7L6vaNZ3cvmSxJaPHJj0Egl4+uKAOK8OB4rR3iHl5l8s4t5I3yM5yzcEH07V2uiXMtl8PIbmBN8sVu7IvqQTUVv4Uv7OWVLe+06C2lyHMVgwnKn/pqZTz7kVc0/Rta07ybaLVLE6dF8qw/YG37fTf5vX3xQBnT3s1l4agnfW76e4vXTaYkhLhmH3EyAq/Vs1m6RrmqarbWVncahPZl7meKS5/deaAn3VJwUyfYVuJ4XulllhY6F/Zs0vmS2q6Rgv8AU+Zgn3xSf8IvdNM0Up0J9NaQO1r/AGRy2OmT5mMj1xQBgXk2oadrGv6haalIi289spi2KRNkYO4kfyxV2LVfEN54juAlvcCzjneCRWeAQiMD7wGfMLfhithdE1T7Y++60drJ3BeD+zCGZR90FvMwSOxxTX8PahNraajcTaLL5bfKzaVmZV9BIZOD74oA4u21S+stGX7DOkEqaflJPKVipNxjqRkj2rZvNZ1rTl1Kwjubm+kiuoYlmVYllRZAScZwnGON361uLoWpC8+afRjZZx5I0ohtmc7d3mY689Ovanto+rPezNLeaS9nO376E6YS0i9gzeZg/UigCbw9Lq8uhk6lCwu1ZljE0iFnX+EuY8qD64riJojqs9nb21xLpd3FqLPNa2UqyRrswWlBdMjr6Ae1dhaaJqtg5hs7zSbXTSxP2a300xkA9fmEuM++Kx/+EAuF1CaWLULWG1nJE0UdtJulU9mYykE++2gDJ8QXg1HwDpyXt6s9+ZjKEeMM04RyOQFIHAHOMVU+H1g2h+IFj1DyobjyvKVYItyuXO4fOqAZx2Jrpx4M1VIrfT49cgj0aGTd9jSzYM6f3C/mdPoBV6DQNat9Su5odWsktrlwXiWxYOFAwAG83g474oAj16C8m8WaQtjdpay+XL87ReYMY6YyK6O0juIrZEuZxPMB80ipsDfhk4rjz4J1htWiu28SFooiQimBzIEPUb/M6++K1LHR/ENhcsF12Ca0Mm7y57N3kC+m/wA3+n4UAdLWJ4ruY7Pw3eTyW8dwiKCYpPutz3oNr4j+37xq2n/ZN+fK+wNv2+m7zcZ98fhUV3pWt3kzxXGo6bJp7t81u2nsWK+m7zevvigDoKKKKACiiigAooooAKKKKACiiigAooooAKKKKACiiigArnvHf/JPPE3/AGCrr/0U1dDXP+O/+Se+Jf8AsFXX/opqADwJ/wAk98Nf9gq1/wDRS10FeF+Hfjz4X0XwvpGl3On6w09nZQwO0UURUssYBIJkBxx6CtT/AIaO8H/9A3XP+/EP/wAdoA9gorx//ho7wf8A9A3XP+/EP/x2j/ho7wf/ANA3XP8AvxD/APHaAPYKK8f/AOGjvB//AEDdc/78Q/8Ax2j/AIaO8H/9A3XP+/EP/wAdoA9gorx//ho7wf8A9A3XP+/EP/x2j/ho7wf/ANA3XP8AvxD/APHaAPYKK8f/AOGjvB//AEDdc/78Q/8Ax2j/AIaO8H/9A3XP+/EP/wAdoA9gorx//ho7wf8A9A3XP+/EP/x2j/ho7wf/ANA3XP8AvxD/APHaAPYKK8f/AOGjvB//AEDdc/78Q/8Ax2j/AIaO8If9A7XP+/EP/wAdoA9gorx//ho7wf8A9A3XP+/EP/x2j/ho7wf/ANA3XP8AvxD/APHaAPYKK8f/AOGjvB//AEDdc/78Q/8Ax2j/AIaO8H/9A3XP+/EP/wAdoA9gorx//ho7wf8A9A3XP+/EP/x2j/ho7wf/ANA3XP8AvxD/APHaAPYKK8f/AOGjvB//AEDdc/78Q/8Ax2j/AIaO8H/9A3XP+/EP/wAdoA9gorx//ho7wf8A9A3XP+/EP/x2j/ho7wf/ANA3XP8AvxD/APHaAPYKK8f/AOGjvB//AEDdc/78Q/8Ax2j/AIaO8H/9A3XP+/EP/wAdoA9gorx//ho7wf8A9A3XP+/EP/x2j/ho7wf/ANA3XP8AvxD/APHaAPYKK8f/AOGjvB//AEDdc/78Q/8Ax2j/AIaO8H/9A3XP+/EP/wAdoA9gorx//ho7wf8A9A3XP+/EP/x2j/ho7wf/ANA3XP8AvxD/APHaAPYKK8f/AOGjvB//AEDdc/78Q/8Ax2j/AIaO8H/9A3XP+/EP/wAdoA9gorx//ho7wf8A9A3XP+/EP/x2j/ho7wf/ANA3XP8AvxD/APHaAPYKK8f/AOGjvB//AEDdc/78Q/8Ax2j/AIaO8H/9A3XP+/EP/wAdoA9gorx//ho7wf8A9A3XP+/EP/x2j/ho7wf/ANA3XP8AvxD/APHaAPYKK8f/AOGjvB//AEDdc/78Q/8Ax2j/AIaO8H/9A3XP+/EP/wAdoA9gorx//ho7wf8A9A3XP+/EP/x2j/ho7wf/ANA3XP8AvxD/APHaAPYKK8f/AOGjvB//AEDdc/78Q/8Ax2j/AIaO8H/9A3XP+/EP/wAdoA9gorx//ho7wf8A9A3XP+/EP/x2j/ho7wf/ANA3XP8AvxD/APHaAPYKK8f/AOGjvB//AEDdc/78Q/8Ax2j/AIaO8H/9A3XP+/EP/wAdoA9gorx//ho7wh/0Dtc/78Q//HaP+GjvB/8A0Ddc/wC/EP8A8doA9gorx/8A4aO8H/8AQN1z/vxD/wDHaP8Aho7wf/0Ddc/78Q//AB2gD2CivH/+GjvB/wD0Ddc/78Q//HaP+GjvB/8A0Ddc/wC/EP8A8doA9gorx/8A4aO8H/8AQN1z/vxD/wDHaP8Aho7wf/0Ddc/78Q//AB2gD2CivH/+GjvB/wD0Ddc/78Q//HaP+GjvB/8A0Ddc/wC/EP8A8doA9gorx/8A4aO8H/8AQN1z/vxD/wDHaP8Aho7wf/0Ddc/78Q//AB2gD2CivH/+GjvB/wD0Ddc/78Q//HaP+GjvB/8A0Ddc/wC/EP8A8doA9gorx/8A4aO8H/8AQN1z/vxD/wDHaP8Aho7wf/0Ddc/78Q//AB2gD2CivH/+GjvB/wD0Ddc/78Q//HaP+GjvB/8A0Ddc/wC/EP8A8doA9gorx/8A4aO8H/8AQN1z/vxD/wDHaP8Aho7wf/0Ddc/78Q//AB2gD2CivH/+GjvB/wD0Ddc/78Q//HaP+GjvB/8A0Ddc/wC/EP8A8doA9gorx/8A4aO8H/8AQN1z/vxD/wDHaP8Aho7wf/0Ddc/78Q//AB2gD2CivH/+GjvB/wD0Ddc/78Q//HaP+GjvB/8A0Ddc/wC/EP8A8doA9gorx/8A4aO8H/8AQN1z/vxD/wDHaP8Aho7wh/0Dtc/78Q//AB2gD2CivH/+GjvB/wD0Ddc/78Q//HaP+GjvB/8A0Ddc/wC/EP8A8doA9gorx/8A4aO8H/8AQN1z/vxD/wDHaP8Aho7wf/0Ddc/78Q//AB2gD2CivH/+GjvB/wD0Ddc/78Q//HaP+GjvB/8A0Ddc/wC/EP8A8doA9gorx/8A4aO8H/8AQN1z/vxD/wDHaP8Aho7wf/0Ddc/78Q//AB2gD2CivH/+GjvB/wD0Ddc/78Q//HaP+GjvB/8A0Ddc/wC/EP8A8doA9gorx/8A4aO8H/8AQN1z/vxD/wDHaP8Aho7wf/0Ddc/78Q//AB2gD2CivH/+GjvB/wD0Ddc/78Q//HaP+GjvB/8A0Ddc/wC/EP8A8doA9gorx/8A4aO8H/8AQN1z/vxD/wDHaP8Aho7wf/0Ddc/78Q//AB2gD2CivH/+GjvB/wD0Ddc/78Q//HaP+GjvB/8A0Ddc/wC/EP8A8doA9gorx/8A4aO8H/8AQN1z/vxD/wDHaP8Aho7wf/0Ddc/78Q//AB2gD2CivH/+GjvB/wD0Ddc/78Q//HaP+GjvB/8A0Ddc/wC/EP8A8doA9gorx/8A4aO8H/8AQN1z/vxD/wDHaP8Aho7wf/0Ddc/78Q//AB2gD2CivH/+GjvB/wD0Ddc/78Q//HaP+GjvB/8A0Ddc/wC/EP8A8doA9gorx/8A4aO8H/8AQN1z/vxD/wDHaP8Aho7wf/0Ddc/78Q//AB2gD2CivH/+GjvB/wD0Ddc/78Q//HaP+GjvB/8A0Ddc/wC/EP8A8doA9gorx/8A4aO8H/8AQN1z/vxD/wDHaP8Aho7wf/0Ddc/78Q//AB2gD2CivH/+GjvB/wD0Ddc/78Q//HaP+GjvB/8A0Ddc/wC/EP8A8doA9gorx/8A4aO8H/8AQN1z/vxD/wDHaP8Aho7wf/0Ddc/78Q//AB2gD2CivH/+GjvCH/QO1z/vxD/8do/4aO8H/wDQN1z/AL8Q/wDx2gD2CivH/wDho7wf/wBA3XP+/EP/AMdo/wCGjvB//QN1z/vxD/8AHaAPYKK8f/4aO8H/APQN1z/vxD/8do/4aO8H/wDQN1z/AL8Q/wDx2gD2CivH/wDho7wf/wBA3XP+/EP/AMdo/wCGjvB//QN1z/vxD/8AHaAPYKK8f/4aO8H/APQN1z/vxD/8do/4aO8H/wDQN1z/AL8Q/wDx2gD2CivH/wDho7wf/wBA3XP+/EP/AMdo/wCGjvB//QN1z/vxD/8AHaAPYK5/x3/yT3xL/wBgq6/9FNXn/wDw0d4P/wCgbrn/AH4h/wDjtZfiL48+F9a8L6vpdtp+sLPeWU0CNLFEFDNGQCSJCcc+hoA//9k=;" vertex="1" parent="1">
          <mxGeometry x="320" y="180" width="1024" height="782" as="geometry" />
        </mxCell>
        <mxCell id="uF9hVbnFrzSY0WjrrdnN-6" value="" style="group" vertex="1" connectable="0" parent="1">
          <mxGeometry x="330" y="1110" width="1080" height="500" as="geometry" />
        </mxCell>
        <mxCell id="uF9hVbnFrzSY0WjrrdnN-3" value="" style="group;strokeWidth=6;fillColor=none;" vertex="1" connectable="0" parent="uF9hVbnFrzSY0WjrrdnN-6">
          <mxGeometry width="1080" height="500" as="geometry" />
        </mxCell>
        <mxCell id="j6jogXTlzDITalrmMJ5L-39" value="elts" style="text;html=1;align=center;verticalAlign=middle;resizable=0;points=[];autosize=1;" parent="uF9hVbnFrzSY0WjrrdnN-3" vertex="1">
          <mxGeometry x="280" y="260" width="30" height="20" as="geometry" />
        </mxCell>
        <mxCell id="j6jogXTlzDITalrmMJ5L-42" value="&lt;font style=&quot;font-size: 20px&quot;&gt;temporary used for checking conflict when insert to &#39;keys&#39;&lt;/font&gt;&lt;font style=&quot;font-size: 20px&quot;&gt; array&lt;/font&gt;" style="text;html=1;align=center;verticalAlign=middle;resizable=0;points=[];autosize=1;fillColor=#ffe6cc;strokeColor=#d79b00;" parent="uF9hVbnFrzSY0WjrrdnN-3" vertex="1">
          <mxGeometry x="310" y="240" width="570" height="20" as="geometry" />
        </mxCell>
        <mxCell id="j6jogXTlzDITalrmMJ5L-10" value="ngx_hash_keys_arrays_t" style="swimlane;fontStyle=0;childLayout=stackLayout;horizontal=1;startSize=26;fillColor=none;horizontalStack=0;resizeParent=1;resizeParentMax=0;resizeLast=0;collapsible=1;marginBottom=0;" parent="uF9hVbnFrzSY0WjrrdnN-3" vertex="1">
          <mxGeometry y="85" width="220" height="182" as="geometry" />
        </mxCell>
        <mxCell id="j6jogXTlzDITalrmMJ5L-11" value="ngx_array_t       keys" style="text;strokeColor=none;fillColor=none;align=left;verticalAlign=top;spacingLeft=4;spacingRight=4;overflow=hidden;rotatable=0;points=[[0,0.5],[1,0.5]];portConstraint=eastwest;" parent="j6jogXTlzDITalrmMJ5L-10" vertex="1">
          <mxGeometry y="26" width="220" height="26" as="geometry" />
        </mxCell>
        <mxCell id="j6jogXTlzDITalrmMJ5L-12" value="ngx_array_t      *keys_hash;" style="text;strokeColor=none;fillColor=none;align=left;verticalAlign=top;spacingLeft=4;spacingRight=4;overflow=hidden;rotatable=0;points=[[0,0.5],[1,0.5]];portConstraint=eastwest;" parent="j6jogXTlzDITalrmMJ5L-10" vertex="1">
          <mxGeometry y="52" width="220" height="26" as="geometry" />
        </mxCell>
        <mxCell id="j6jogXTlzDITalrmMJ5L-13" value="ngx_array_t       dns_wc_head" style="text;strokeColor=none;fillColor=none;align=left;verticalAlign=top;spacingLeft=4;spacingRight=4;overflow=hidden;rotatable=0;points=[[0,0.5],[1,0.5]];portConstraint=eastwest;" parent="j6jogXTlzDITalrmMJ5L-10" vertex="1">
          <mxGeometry y="78" width="220" height="26" as="geometry" />
        </mxCell>
        <mxCell id="j6jogXTlzDITalrmMJ5L-14" value="ngx_array_t      *dns_wc_head_hash;" style="text;strokeColor=none;fillColor=none;align=left;verticalAlign=top;spacingLeft=4;spacingRight=4;overflow=hidden;rotatable=0;points=[[0,0.5],[1,0.5]];portConstraint=eastwest;" parent="j6jogXTlzDITalrmMJ5L-10" vertex="1">
          <mxGeometry y="104" width="220" height="26" as="geometry" />
        </mxCell>
        <mxCell id="j6jogXTlzDITalrmMJ5L-15" value="ngx_array_t       dns_wc_tail;" style="text;strokeColor=none;fillColor=none;align=left;verticalAlign=top;spacingLeft=4;spacingRight=4;overflow=hidden;rotatable=0;points=[[0,0.5],[1,0.5]];portConstraint=eastwest;" parent="j6jogXTlzDITalrmMJ5L-10" vertex="1">
          <mxGeometry y="130" width="220" height="26" as="geometry" />
        </mxCell>
        <mxCell id="j6jogXTlzDITalrmMJ5L-16" value="ngx_array_t      *dns_wc_tail_hash;" style="text;strokeColor=none;fillColor=none;align=left;verticalAlign=top;spacingLeft=4;spacingRight=4;overflow=hidden;rotatable=0;points=[[0,0.5],[1,0.5]];portConstraint=eastwest;" parent="j6jogXTlzDITalrmMJ5L-10" vertex="1">
          <mxGeometry y="156" width="220" height="26" as="geometry" />
        </mxCell>
        <mxCell id="j6jogXTlzDITalrmMJ5L-17" value="ngx_hash_key_t" style="swimlane;fontStyle=0;childLayout=stackLayout;horizontal=1;startSize=26;fillColor=none;horizontalStack=0;resizeParent=1;resizeParentMax=0;resizeLast=0;collapsible=1;marginBottom=0;" parent="uF9hVbnFrzSY0WjrrdnN-3" vertex="1">
          <mxGeometry x="430" width="170" height="104" as="geometry" />
        </mxCell>
        <mxCell id="j6jogXTlzDITalrmMJ5L-18" value="ngx_str_t         key;" style="text;strokeColor=none;fillColor=none;align=left;verticalAlign=top;spacingLeft=4;spacingRight=4;overflow=hidden;rotatable=0;points=[[0,0.5],[1,0.5]];portConstraint=eastwest;" parent="j6jogXTlzDITalrmMJ5L-17" vertex="1">
          <mxGeometry y="26" width="170" height="26" as="geometry" />
        </mxCell>
        <mxCell id="j6jogXTlzDITalrmMJ5L-19" value="ngx_uint_t        key_hash;" style="text;strokeColor=none;fillColor=none;align=left;verticalAlign=top;spacingLeft=4;spacingRight=4;overflow=hidden;rotatable=0;points=[[0,0.5],[1,0.5]];portConstraint=eastwest;" parent="j6jogXTlzDITalrmMJ5L-17" vertex="1">
          <mxGeometry y="52" width="170" height="26" as="geometry" />
        </mxCell>
        <mxCell id="j6jogXTlzDITalrmMJ5L-20" value="void             *value;" style="text;strokeColor=none;fillColor=none;align=left;verticalAlign=top;spacingLeft=4;spacingRight=4;overflow=hidden;rotatable=0;points=[[0,0.5],[1,0.5]];portConstraint=eastwest;" parent="j6jogXTlzDITalrmMJ5L-17" vertex="1">
          <mxGeometry y="78" width="170" height="26" as="geometry" />
        </mxCell>
        <mxCell id="j6jogXTlzDITalrmMJ5L-31" style="edgeStyle=orthogonalEdgeStyle;rounded=0;orthogonalLoop=1;jettySize=auto;html=1;" parent="uF9hVbnFrzSY0WjrrdnN-3" source="j6jogXTlzDITalrmMJ5L-11" target="j6jogXTlzDITalrmMJ5L-17" edge="1">
          <mxGeometry relative="1" as="geometry">
            <mxPoint x="420" y="15" as="targetPoint" />
            <Array as="points">
              <mxPoint x="290" y="120" />
              <mxPoint x="290" y="15" />
            </Array>
          </mxGeometry>
        </mxCell>
        <mxCell id="j6jogXTlzDITalrmMJ5L-38" value="elts" style="text;html=1;align=center;verticalAlign=middle;resizable=0;points=[];labelBackgroundColor=#ffffff;" parent="j6jogXTlzDITalrmMJ5L-31" vertex="1" connectable="0">
          <mxGeometry x="-0.3052" y="-1" relative="1" as="geometry">
            <mxPoint as="offset" />
          </mxGeometry>
        </mxCell>
        <mxCell id="j6jogXTlzDITalrmMJ5L-21" value="ngx_hash_key_t" style="swimlane;fontStyle=0;childLayout=stackLayout;horizontal=1;startSize=26;fillColor=none;horizontalStack=0;resizeParent=1;resizeParentMax=0;resizeLast=0;collapsible=1;marginBottom=0;" parent="uF9hVbnFrzSY0WjrrdnN-3" vertex="1">
          <mxGeometry x="430" y="104" width="170" height="104" as="geometry" />
        </mxCell>
        <mxCell id="j6jogXTlzDITalrmMJ5L-22" value="ngx_str_t         key;" style="text;strokeColor=none;fillColor=none;align=left;verticalAlign=top;spacingLeft=4;spacingRight=4;overflow=hidden;rotatable=0;points=[[0,0.5],[1,0.5]];portConstraint=eastwest;" parent="j6jogXTlzDITalrmMJ5L-21" vertex="1">
          <mxGeometry y="26" width="170" height="26" as="geometry" />
        </mxCell>
        <mxCell id="j6jogXTlzDITalrmMJ5L-23" value="ngx_uint_t        key_hash;" style="text;strokeColor=none;fillColor=none;align=left;verticalAlign=top;spacingLeft=4;spacingRight=4;overflow=hidden;rotatable=0;points=[[0,0.5],[1,0.5]];portConstraint=eastwest;" parent="j6jogXTlzDITalrmMJ5L-21" vertex="1">
          <mxGeometry y="52" width="170" height="26" as="geometry" />
        </mxCell>
        <mxCell id="j6jogXTlzDITalrmMJ5L-24" value="void             *value;" style="text;strokeColor=none;fillColor=none;align=left;verticalAlign=top;spacingLeft=4;spacingRight=4;overflow=hidden;rotatable=0;points=[[0,0.5],[1,0.5]];portConstraint=eastwest;" parent="j6jogXTlzDITalrmMJ5L-21" vertex="1">
          <mxGeometry y="78" width="170" height="26" as="geometry" />
        </mxCell>
        <mxCell id="j6jogXTlzDITalrmMJ5L-33" value="ngx_array_t" style="swimlane;fontStyle=0;childLayout=stackLayout;horizontal=1;startSize=26;fillColor=none;horizontalStack=0;resizeParent=1;resizeParentMax=0;resizeLast=0;collapsible=1;marginBottom=0;" parent="uF9hVbnFrzSY0WjrrdnN-3" vertex="1">
          <mxGeometry x="338" y="267" width="170" height="46" as="geometry" />
        </mxCell>
        <mxCell id="j6jogXTlzDITalrmMJ5L-35" value="void&amp;nbsp;&amp;nbsp;&amp;nbsp;&amp;nbsp;&amp;nbsp;&amp;nbsp;&amp;nbsp; *elts" style="text;html=1;align=center;verticalAlign=middle;resizable=0;points=[];autosize=1;" parent="j6jogXTlzDITalrmMJ5L-33" vertex="1">
          <mxGeometry y="26" width="170" height="20" as="geometry" />
        </mxCell>
        <mxCell id="j6jogXTlzDITalrmMJ5L-32" style="edgeStyle=orthogonalEdgeStyle;rounded=0;orthogonalLoop=1;jettySize=auto;html=1;exitX=1;exitY=0.5;exitDx=0;exitDy=0;" parent="uF9hVbnFrzSY0WjrrdnN-3" source="j6jogXTlzDITalrmMJ5L-12" target="j6jogXTlzDITalrmMJ5L-33" edge="1">
          <mxGeometry relative="1" as="geometry">
            <mxPoint x="330" y="280" as="targetPoint" />
            <Array as="points">
              <mxPoint x="270" y="150" />
              <mxPoint x="270" y="283" />
            </Array>
          </mxGeometry>
        </mxCell>
        <mxCell id="j6jogXTlzDITalrmMJ5L-25" value="ngx_str_t" style="swimlane;fontStyle=0;childLayout=stackLayout;horizontal=1;startSize=26;fillColor=none;horizontalStack=0;resizeParent=1;resizeParentMax=0;resizeLast=0;collapsible=1;marginBottom=0;" parent="uF9hVbnFrzSY0WjrrdnN-3" vertex="1">
          <mxGeometry x="568" y="267" width="170" height="52" as="geometry" />
        </mxCell>
        <mxCell id="j6jogXTlzDITalrmMJ5L-40" style="edgeStyle=orthogonalEdgeStyle;rounded=0;orthogonalLoop=1;jettySize=auto;html=1;exitX=1;exitY=0.75;exitDx=0;exitDy=0;entryX=0.006;entryY=0.164;entryDx=0;entryDy=0;entryPerimeter=0;" parent="uF9hVbnFrzSY0WjrrdnN-3" source="j6jogXTlzDITalrmMJ5L-33" target="j6jogXTlzDITalrmMJ5L-25" edge="1">
          <mxGeometry relative="1" as="geometry" />
        </mxCell>
        <mxCell id="j6jogXTlzDITalrmMJ5L-30" value="ngx_str_t" style="swimlane;fontStyle=0;childLayout=stackLayout;horizontal=1;startSize=26;fillColor=none;horizontalStack=0;resizeParent=1;resizeParentMax=0;resizeLast=0;collapsible=1;marginBottom=0;" parent="uF9hVbnFrzSY0WjrrdnN-3" vertex="1">
          <mxGeometry x="568" y="319" width="170" height="52" as="geometry" />
        </mxCell>
        <mxCell id="j6jogXTlzDITalrmMJ5L-34" value="ngx_array_t" style="swimlane;fontStyle=0;childLayout=stackLayout;horizontal=1;startSize=26;fillColor=none;horizontalStack=0;resizeParent=1;resizeParentMax=0;resizeLast=0;collapsible=1;marginBottom=0;" parent="uF9hVbnFrzSY0WjrrdnN-3" vertex="1">
          <mxGeometry x="338" y="313" width="170" height="46" as="geometry" />
        </mxCell>
        <mxCell id="j6jogXTlzDITalrmMJ5L-36" value="void&amp;nbsp;&amp;nbsp;&amp;nbsp;&amp;nbsp;&amp;nbsp;&amp;nbsp;&amp;nbsp; *elts" style="text;html=1;align=left;verticalAlign=middle;resizable=0;points=[];autosize=1;" parent="j6jogXTlzDITalrmMJ5L-34" vertex="1">
          <mxGeometry y="26" width="170" height="20" as="geometry" />
        </mxCell>
        <mxCell id="uF9hVbnFrzSY0WjrrdnN-4" value="" style="rounded=1;whiteSpace=wrap;html=1;fontSize=20;fillColor=none;strokeColor=#82b366;strokeWidth=6;" vertex="1" parent="uF9hVbnFrzSY0WjrrdnN-3">
          <mxGeometry x="-10" y="-40" width="1090" height="540" as="geometry" />
        </mxCell>
        <mxCell id="uF9hVbnFrzSY0WjrrdnN-5" value="Helper struture&lt;br style=&quot;font-size: 30px&quot;&gt;support conflict checking&lt;br style=&quot;font-size: 30px&quot;&gt;for literal, wildcard" style="text;html=1;align=left;verticalAlign=middle;resizable=0;points=[];autosize=1;fontSize=30;fillColor=none;strokeColor=none;fontStyle=1" vertex="1" parent="uF9hVbnFrzSY0WjrrdnN-3">
          <mxGeometry x="640" y="60" width="380" height="110" as="geometry" />
        </mxCell>
      </root>
    </mxGraphModel>
  </diagram>
</mxfile>
